M48
; DRILL file KiCad 10.0.0-rc1-bcf5a15dc2~186~ubuntu25.10.1 date 2026-02-25T20:50:31
; FORMAT={-:-/ absolute / metric / decimal}
; #@! TF.CreationDate,2026-02-25T20:50:31+13:00
; #@! TF.GenerationSoftware,Kicad,Pcbnew,10.0.0-rc1-bcf5a15dc2~186~ubuntu25.10.1
; #@! TF.FileFunction,Plated,1,4,PTH
FMAT,2
METRIC
; #@! TA.AperFunction,Plated,PTH,ViaDrill
T1C0.300
; #@! TA.AperFunction,Plated,PTH,ComponentDrill
T2C0.600
%
G90
G05
T1
X46.25Y-139.0
X46.25Y-143.5
X46.25Y-152.5
X46.5Y-148.0
X46.75Y-112.5
X46.75Y-134.75
X48.75Y-114.0
X49.5Y-111.5
X49.873Y-120.0
X50.0Y-116.75
X50.75Y-111.75
X50.75Y-134.75
X51.0Y-143.5
X51.0Y-152.5
X51.25Y-139.25
X51.25Y-148.0
X52.25Y-124.25
X52.949Y-125.0
X53.749Y-125.0
X53.75Y-110.5
X54.596Y-125.0
X55.442Y-125.0
X56.289Y-125.0
X57.135Y-125.0
X61.0Y-138.75
X61.25Y-112.5
X61.25Y-157.0
X61.5Y-133.5
X61.5Y-143.75
X61.5Y-148.0
X61.5Y-152.5
X62.5Y-167.65
X63.75Y-114.0
X63.75Y-171.75
X64.25Y-111.5
X64.848Y-120.0
X65.0Y-116.75
X65.5Y-167.65
X65.75Y-134.75
X65.75Y-143.75
X65.75Y-157.0
X66.0Y-148.25
X66.0Y-152.75
X66.25Y-138.5
X67.25Y-124.25
X67.861Y-125.0
X68.4Y-110.5
X68.661Y-125.0
X69.507Y-125.0
X70.354Y-125.0
X71.2Y-125.0
X72.047Y-125.0
X75.75Y-139.0
X76.0Y-143.75
X76.25Y-112.5
X76.25Y-148.0
X76.25Y-152.5
X76.25Y-157.25
X76.5Y-134.75
X78.5Y-114.0
X79.2Y-111.6
X79.647Y-120.0
X80.0Y-116.8
X80.5Y-134.75
X80.5Y-148.25
X80.75Y-152.5
X81.0Y-143.75
X81.0Y-157.25
X81.25Y-137.75
X82.2Y-124.2
X82.723Y-124.994
X83.25Y-105.75
X83.5Y-137.25
X83.523Y-124.994
X83.6Y-110.5
X84.37Y-124.994
X84.5Y-145.0
X85.216Y-124.994
X85.463Y-144.0
X86.063Y-124.994
X86.909Y-124.994
X88.25Y-110.5
X88.5Y-108.75
X90.0Y-108.75
X91.0Y-112.5
X91.0Y-135.25
X91.0Y-137.75
X91.0Y-139.25
X91.0Y-152.75
X91.0Y-157.0
X91.25Y-148.25
X91.751Y-137.001
X92.75Y-109.75
X93.0Y-103.75
X93.199Y-107.801
X93.2Y-111.4
X93.25Y-114.0
X93.75Y-171.75
X93.801Y-107.199
X93.85Y-167.65
X93.875Y-109.75
X94.51Y-120.1
X94.6Y-116.8
X94.813Y-140.216
X94.949Y-128.449
X95.25Y-135.25
X95.5Y-139.25
X95.5Y-148.25
X95.5Y-157.0
X95.551Y-129.051
X95.75Y-152.75
X95.75Y-168.25
X96.25Y-170.5
X96.75Y-108.75
X97.0Y-134.25
X97.25Y-133.25
X97.525Y-124.0
X97.546Y-142.204
X97.586Y-125.0
X98.25Y-108.75
X98.386Y-125.0
X98.4Y-110.5
X98.5Y-142.0
X99.232Y-125.0
X99.5Y-104.0
X99.5Y-108.5
X100.079Y-125.0
X100.5Y-171.0
X100.75Y-102.75
X100.925Y-125.0
X101.772Y-125.0
X102.0Y-108.5
X104.5Y-141.75
X104.731Y-107.731
X105.25Y-102.0
X105.25Y-103.25
X105.25Y-104.5
X105.287Y-108.65
X105.75Y-152.25
X106.0Y-112.5
X106.0Y-142.5
X106.0Y-148.0
X106.0Y-157.0
X106.25Y-134.5
X107.5Y-104.25
X108.2Y-111.4
X108.25Y-108.5
X108.5Y-114.0
X109.25Y-106.25
X109.375Y-120.0
X109.4Y-116.8
X110.25Y-152.5
X110.25Y-157.0
X110.5Y-148.0
X110.75Y-139.0
X110.75Y-142.5
X111.6Y-124.4
X112.45Y-125.0
X113.2Y-110.5
X113.25Y-125.0
X114.096Y-125.0
X114.943Y-125.0
X115.789Y-125.0
X116.636Y-125.0
X120.75Y-143.5
X120.75Y-148.0
X120.75Y-152.5
X120.75Y-157.0
X121.0Y-112.5
X121.0Y-134.75
X123.0Y-111.6
X123.25Y-114.0
X124.235Y-120.0
X124.4Y-116.8
X125.25Y-139.25
X125.25Y-143.5
X125.25Y-152.75
X125.25Y-157.25
X125.5Y-148.0
X126.25Y-167.75
X126.4Y-124.2
X127.312Y-125.006
X128.0Y-110.5
X128.112Y-125.006
X128.25Y-171.75
X128.958Y-125.006
X129.805Y-125.006
X130.5Y-167.75
X130.651Y-125.006
X131.498Y-125.006
X135.75Y-134.5
X135.75Y-139.0
X135.75Y-143.5
X135.75Y-148.0
X135.75Y-152.25
X135.75Y-157.0
X137.8Y-111.6
X138.0Y-114.0
X139.0Y-116.8
X139.05Y-120.0
X140.0Y-139.0
X140.25Y-134.5
X140.25Y-143.5
X140.25Y-148.0
X140.25Y-152.5
X140.25Y-157.0
X141.2Y-124.4
X142.176Y-125.0
X142.8Y-110.6
X142.976Y-125.0
X143.823Y-125.0
X144.669Y-125.0
X145.516Y-125.0
X146.362Y-125.0
T2
G00X89.005Y-101.433
M15
G01X89.005Y-100.633
M16
G05
G00X89.005Y-105.763
M15
G01X89.005Y-104.663
M16
G05
G00X97.645Y-101.433
M15
G01X97.645Y-100.633
M16
G05
G00X97.645Y-105.763
M15
G01X97.645Y-104.663
M16
G05
M30
