%TF.GenerationSoftware,KiCad,Pcbnew,10.0.0-rc1-bcf5a15dc2~186~ubuntu25.10.1*%
%TF.CreationDate,2026-02-25T20:50:38+13:00*%
%TF.ProjectId,connect_4,636f6e6e-6563-4745-9f34-2e6b69636164,rev?*%
%TF.SameCoordinates,Original*%
%TF.FileFunction,Soldermask,Top*%
%TF.FilePolarity,Negative*%
%FSLAX46Y46*%
G04 Gerber Fmt 4.6, Leading zero omitted, Abs format (unit mm)*
G04 Created by KiCad (PCBNEW 10.0.0-rc1-bcf5a15dc2~186~ubuntu25.10.1) date 2026-02-25 20:50:38*
%MOMM*%
%LPD*%
G01*
G04 APERTURE LIST*
G04 Aperture macros list*
%AMRoundRect*
0 Rectangle with rounded corners*
0 $1 Rounding radius*
0 $2 $3 $4 $5 $6 $7 $8 $9 X,Y pos of 4 corners*
0 Add a 4 corners polygon primitive as box body*
4,1,4,$2,$3,$4,$5,$6,$7,$8,$9,$2,$3,0*
0 Add four circle primitives for the rounded corners*
1,1,$1+$1,$2,$3*
1,1,$1+$1,$4,$5*
1,1,$1+$1,$6,$7*
1,1,$1+$1,$8,$9*
0 Add four rect primitives between the rounded corners*
20,1,$1+$1,$2,$3,$4,$5,0*
20,1,$1+$1,$4,$5,$6,$7,0*
20,1,$1+$1,$6,$7,$8,$9,0*
20,1,$1+$1,$8,$9,$2,$3,0*%
G04 Aperture macros list end*
%ADD10RoundRect,0.200000X0.200000X0.275000X-0.200000X0.275000X-0.200000X-0.275000X0.200000X-0.275000X0*%
%ADD11RoundRect,0.218750X0.256250X-0.218750X0.256250X0.218750X-0.256250X0.218750X-0.256250X-0.218750X0*%
%ADD12RoundRect,0.200000X-0.200000X-0.275000X0.200000X-0.275000X0.200000X0.275000X-0.200000X0.275000X0*%
%ADD13RoundRect,0.225000X-0.225000X-0.250000X0.225000X-0.250000X0.225000X0.250000X-0.225000X0.250000X0*%
%ADD14RoundRect,0.250000X-0.800000X-0.450000X0.800000X-0.450000X0.800000X0.450000X-0.800000X0.450000X0*%
%ADD15RoundRect,0.218750X-0.256250X0.218750X-0.256250X-0.218750X0.256250X-0.218750X0.256250X0.218750X0*%
%ADD16O,1.000000X2.100000*%
%ADD17O,1.000000X1.800000*%
%ADD18R,0.584200X1.150000*%
%ADD19R,0.304800X1.150000*%
%ADD20RoundRect,0.150000X-1.050000X-0.150000X1.050000X-0.150000X1.050000X0.150000X-1.050000X0.150000X0*%
%ADD21RoundRect,0.200000X0.275000X-0.200000X0.275000X0.200000X-0.275000X0.200000X-0.275000X-0.200000X0*%
%ADD22RoundRect,0.225000X0.225000X0.250000X-0.225000X0.250000X-0.225000X-0.250000X0.225000X-0.250000X0*%
%ADD23RoundRect,0.200000X-0.275000X0.200000X-0.275000X-0.200000X0.275000X-0.200000X0.275000X0.200000X0*%
%TA.AperFunction,Profile*%
%ADD24C,0.050000*%
%TD*%
G04 APERTURE END LIST*
D10*
%TO.C,R612*%
X110501667Y-131837500D03*
X108851667Y-131837500D03*
%TD*%
D11*
%TO.C,D209*%
X49425833Y-148262500D03*
X49425833Y-146687500D03*
%TD*%
D12*
%TO.C,R302*%
X61287500Y-149700000D03*
X62937500Y-149700000D03*
%TD*%
D13*
%TO.C,C601*%
X107412917Y-112587500D03*
X108962917Y-112587500D03*
%TD*%
D12*
%TO.C,R702*%
X120738333Y-149706250D03*
X122388333Y-149706250D03*
%TD*%
D11*
%TO.C,D512*%
X94062500Y-134837500D03*
X94062500Y-133262500D03*
%TD*%
%TO.C,D202*%
X47950833Y-152700000D03*
X47950833Y-151125000D03*
%TD*%
%TO.C,D707*%
X123788333Y-157143750D03*
X123788333Y-155568750D03*
%TD*%
D10*
%TO.C,R310*%
X65912500Y-140812500D03*
X64262500Y-140812500D03*
%TD*%
D12*
%TO.C,R704*%
X120738333Y-140818750D03*
X122388333Y-140818750D03*
%TD*%
D14*
%TO.C,SW102*%
X59475000Y-167400000D03*
X68575000Y-167400000D03*
X59475000Y-171900000D03*
X68575000Y-171900000D03*
%TD*%
D11*
%TO.C,D412*%
X79200000Y-134843750D03*
X79200000Y-133268750D03*
%TD*%
D10*
%TO.C,R507*%
X95637500Y-154125000D03*
X93987500Y-154125000D03*
%TD*%
%TO.C,R309*%
X65912500Y-145250000D03*
X64262500Y-145250000D03*
%TD*%
D11*
%TO.C,D510*%
X94062500Y-143812500D03*
X94062500Y-142237500D03*
%TD*%
%TO.C,D311*%
X64337500Y-139287500D03*
X64337500Y-137712500D03*
%TD*%
D10*
%TO.C,R509*%
X95637500Y-145250000D03*
X93987500Y-145250000D03*
%TD*%
D11*
%TO.C,D407*%
X79200000Y-157143750D03*
X79200000Y-155568750D03*
%TD*%
%TO.C,D211*%
X49425833Y-139287500D03*
X49425833Y-137712500D03*
%TD*%
D13*
%TO.C,C201*%
X47961250Y-112587500D03*
X49511250Y-112587500D03*
%TD*%
D15*
%TO.C,D102*%
X103325000Y-101725550D03*
X103325000Y-103300550D03*
%TD*%
D12*
%TO.C,R806*%
X135602917Y-131837500D03*
X137252917Y-131837500D03*
%TD*%
D10*
%TO.C,R712*%
X125363333Y-131843750D03*
X123713333Y-131843750D03*
%TD*%
D11*
%TO.C,D212*%
X49425833Y-134837500D03*
X49425833Y-133262500D03*
%TD*%
D10*
%TO.C,R409*%
X80775000Y-145256250D03*
X79125000Y-145256250D03*
%TD*%
D11*
%TO.C,D603*%
X107451667Y-148262500D03*
X107451667Y-146687500D03*
%TD*%
D10*
%TO.C,R511*%
X95637500Y-136275000D03*
X93987500Y-136275000D03*
%TD*%
D11*
%TO.C,D612*%
X108926667Y-134837500D03*
X108926667Y-133262500D03*
%TD*%
D16*
%TO.C,J101*%
X97645002Y-105212550D03*
D17*
X97645002Y-101032550D03*
D18*
X96525000Y-105787550D03*
X95725001Y-105787550D03*
D19*
X94575000Y-105787550D03*
X93575000Y-105787550D03*
X93075000Y-105787550D03*
X92075000Y-105787550D03*
D18*
X90125000Y-105787550D03*
D16*
X89004998Y-105212550D03*
D17*
X89004998Y-101032550D03*
D18*
X90924999Y-105787550D03*
D19*
X91575001Y-105787550D03*
X92574999Y-105787550D03*
X94075001Y-105787550D03*
X95074999Y-105787550D03*
%TD*%
D12*
%TO.C,R502*%
X91012500Y-149700000D03*
X92662500Y-149700000D03*
%TD*%
D10*
%TO.C,R212*%
X51000833Y-131837500D03*
X49350833Y-131837500D03*
%TD*%
%TO.C,R809*%
X140177917Y-145250000D03*
X138527917Y-145250000D03*
%TD*%
D12*
%TO.C,R503*%
X91012500Y-145250000D03*
X92662500Y-145250000D03*
%TD*%
D11*
%TO.C,D703*%
X122313333Y-148268750D03*
X122313333Y-146693750D03*
%TD*%
%TO.C,D708*%
X123788333Y-152706250D03*
X123788333Y-151131250D03*
%TD*%
%TO.C,D411*%
X79200000Y-139293750D03*
X79200000Y-137718750D03*
%TD*%
D10*
%TO.C,R308*%
X65912500Y-149700000D03*
X64262500Y-149700000D03*
%TD*%
%TO.C,R810*%
X140177917Y-140812500D03*
X138527917Y-140812500D03*
%TD*%
D12*
%TO.C,R606*%
X105876667Y-131837500D03*
X107526667Y-131837500D03*
%TD*%
D11*
%TO.C,D302*%
X62862500Y-152700000D03*
X62862500Y-151125000D03*
%TD*%
D12*
%TO.C,R705*%
X120738333Y-136281250D03*
X122388333Y-136281250D03*
%TD*%
%TO.C,R603*%
X105876667Y-145250000D03*
X107526667Y-145250000D03*
%TD*%
D11*
%TO.C,D204*%
X47950833Y-143812500D03*
X47950833Y-142237500D03*
%TD*%
%TO.C,D507*%
X94062500Y-157137500D03*
X94062500Y-155562500D03*
%TD*%
%TO.C,D704*%
X122313333Y-143818750D03*
X122313333Y-142243750D03*
%TD*%
D13*
%TO.C,C801*%
X137138750Y-112587500D03*
X138688750Y-112587500D03*
%TD*%
D11*
%TO.C,D509*%
X94062500Y-148262500D03*
X94062500Y-146687500D03*
%TD*%
D13*
%TO.C,C501*%
X92550000Y-112587500D03*
X94100000Y-112587500D03*
%TD*%
D10*
%TO.C,R412*%
X80775000Y-131831250D03*
X79125000Y-131831250D03*
%TD*%
D11*
%TO.C,D402*%
X77725000Y-152706250D03*
X77725000Y-151131250D03*
%TD*%
D10*
%TO.C,R408*%
X80775000Y-149706250D03*
X79125000Y-149706250D03*
%TD*%
D11*
%TO.C,D706*%
X122313333Y-134843750D03*
X122313333Y-133268750D03*
%TD*%
%TO.C,D608*%
X108926667Y-152700000D03*
X108926667Y-151125000D03*
%TD*%
%TO.C,D810*%
X138602917Y-143812500D03*
X138602917Y-142237500D03*
%TD*%
D10*
%TO.C,R608*%
X110501667Y-149700000D03*
X108851667Y-149700000D03*
%TD*%
D11*
%TO.C,D408*%
X79200000Y-152706250D03*
X79200000Y-151131250D03*
%TD*%
D12*
%TO.C,R202*%
X46375833Y-149700000D03*
X48025833Y-149700000D03*
%TD*%
D14*
%TO.C,SW101*%
X89325000Y-167400000D03*
X98425000Y-167400000D03*
X89325000Y-171900000D03*
X98425000Y-171900000D03*
%TD*%
D20*
%TO.C,U501*%
X90075000Y-114267500D03*
X90075000Y-115537500D03*
X90075000Y-116807500D03*
X90075000Y-118077500D03*
X90075000Y-119347500D03*
X90075000Y-120617500D03*
X90075000Y-121887500D03*
X90075000Y-123157500D03*
X96575000Y-123157500D03*
X96575000Y-121887500D03*
X96575000Y-120617500D03*
X96575000Y-119347500D03*
X96575000Y-118077500D03*
X96575000Y-116807500D03*
X96575000Y-115537500D03*
X96575000Y-114267500D03*
%TD*%
D11*
%TO.C,D503*%
X92587500Y-148262500D03*
X92587500Y-146687500D03*
%TD*%
%TO.C,D609*%
X108926667Y-148262500D03*
X108926667Y-146687500D03*
%TD*%
%TO.C,D511*%
X94062500Y-139287500D03*
X94062500Y-137712500D03*
%TD*%
%TO.C,D607*%
X108926667Y-157137500D03*
X108926667Y-155562500D03*
%TD*%
D12*
%TO.C,R306*%
X61287500Y-131837500D03*
X62937500Y-131837500D03*
%TD*%
%TO.C,R103*%
X82425000Y-104750000D03*
X84075000Y-104750000D03*
%TD*%
D11*
%TO.C,D811*%
X138602917Y-139287500D03*
X138602917Y-137712500D03*
%TD*%
%TO.C,D403*%
X77725000Y-148268750D03*
X77725000Y-146693750D03*
%TD*%
D13*
%TO.C,C402*%
X77687083Y-112581250D03*
X79237083Y-112581250D03*
%TD*%
D12*
%TO.C,R401*%
X76150000Y-154131250D03*
X77800000Y-154131250D03*
%TD*%
%TO.C,R206*%
X46375833Y-131837500D03*
X48025833Y-131837500D03*
%TD*%
D11*
%TO.C,D711*%
X123788333Y-139293750D03*
X123788333Y-137718750D03*
%TD*%
D12*
%TO.C,R501*%
X91012500Y-154125000D03*
X92662500Y-154125000D03*
%TD*%
D10*
%TO.C,R811*%
X140177917Y-136275000D03*
X138527917Y-136275000D03*
%TD*%
D21*
%TO.C,R102*%
X91575001Y-109075000D03*
X91575001Y-107425000D03*
%TD*%
D10*
%TO.C,R710*%
X125363333Y-140818750D03*
X123713333Y-140818750D03*
%TD*%
D11*
%TO.C,D807*%
X138602917Y-157137500D03*
X138602917Y-155562500D03*
%TD*%
%TO.C,D305*%
X62862500Y-139287500D03*
X62862500Y-137712500D03*
%TD*%
%TO.C,D604*%
X107451667Y-143812500D03*
X107451667Y-142237500D03*
%TD*%
D12*
%TO.C,R205*%
X46375833Y-136275000D03*
X48025833Y-136275000D03*
%TD*%
D11*
%TO.C,D502*%
X92587500Y-152700000D03*
X92587500Y-151125000D03*
%TD*%
D10*
%TO.C,R807*%
X140177917Y-154125000D03*
X138527917Y-154125000D03*
%TD*%
D11*
%TO.C,D207*%
X49425833Y-157137500D03*
X49425833Y-155562500D03*
%TD*%
%TO.C,D602*%
X107451667Y-152700000D03*
X107451667Y-151125000D03*
%TD*%
%TO.C,D606*%
X107451667Y-134837500D03*
X107451667Y-133262500D03*
%TD*%
D12*
%TO.C,R703*%
X120738333Y-145256250D03*
X122388333Y-145256250D03*
%TD*%
%TO.C,R802*%
X135552917Y-149700000D03*
X137202917Y-149700000D03*
%TD*%
D10*
%TO.C,R311*%
X65912500Y-136275000D03*
X64262500Y-136275000D03*
%TD*%
D12*
%TO.C,R201*%
X46375833Y-154125000D03*
X48025833Y-154125000D03*
%TD*%
D10*
%TO.C,R607*%
X110501667Y-154125000D03*
X108851667Y-154125000D03*
%TD*%
D12*
%TO.C,R203*%
X46375833Y-145250000D03*
X48025833Y-145250000D03*
%TD*%
%TO.C,R403*%
X76150000Y-145256250D03*
X77800000Y-145256250D03*
%TD*%
%TO.C,R504*%
X91012500Y-140812500D03*
X92662500Y-140812500D03*
%TD*%
D11*
%TO.C,D804*%
X137127917Y-143812500D03*
X137127917Y-142237500D03*
%TD*%
%TO.C,D506*%
X92587500Y-134837500D03*
X92587500Y-133262500D03*
%TD*%
%TO.C,D308*%
X64337500Y-152700000D03*
X64337500Y-151125000D03*
%TD*%
D12*
%TO.C,R706*%
X120738333Y-131843750D03*
X122388333Y-131843750D03*
%TD*%
D20*
%TO.C,U301*%
X60349167Y-114267500D03*
X60349167Y-115537500D03*
X60349167Y-116807500D03*
X60349167Y-118077500D03*
X60349167Y-119347500D03*
X60349167Y-120617500D03*
X60349167Y-121887500D03*
X60349167Y-123157500D03*
X66849167Y-123157500D03*
X66849167Y-121887500D03*
X66849167Y-120617500D03*
X66849167Y-119347500D03*
X66849167Y-118077500D03*
X66849167Y-116807500D03*
X66849167Y-115537500D03*
X66849167Y-114267500D03*
%TD*%
D14*
%TO.C,SW103*%
X123900000Y-167400000D03*
X133000000Y-167400000D03*
X123900000Y-171900000D03*
X133000000Y-171900000D03*
%TD*%
D11*
%TO.C,D303*%
X62862500Y-148262500D03*
X62862500Y-146687500D03*
%TD*%
D10*
%TO.C,R508*%
X95637500Y-149700000D03*
X93987500Y-149700000D03*
%TD*%
D12*
%TO.C,R301*%
X61287500Y-154125000D03*
X62937500Y-154125000D03*
%TD*%
D11*
%TO.C,D611*%
X108926667Y-139287500D03*
X108926667Y-137712500D03*
%TD*%
D12*
%TO.C,R505*%
X91012500Y-136275000D03*
X92662500Y-136275000D03*
%TD*%
D10*
%TO.C,R209*%
X51000833Y-145250000D03*
X49350833Y-145250000D03*
%TD*%
%TO.C,R512*%
X95637500Y-131837500D03*
X93987500Y-131837500D03*
%TD*%
D12*
%TO.C,R604*%
X105876667Y-140812500D03*
X107526667Y-140812500D03*
%TD*%
D11*
%TO.C,D610*%
X108926667Y-143812500D03*
X108926667Y-142237500D03*
%TD*%
D12*
%TO.C,R405*%
X76150000Y-136281250D03*
X77800000Y-136281250D03*
%TD*%
%TO.C,R406*%
X76150000Y-131843750D03*
X77800000Y-131843750D03*
%TD*%
D11*
%TO.C,D309*%
X64337500Y-148262500D03*
X64337500Y-146687500D03*
%TD*%
D22*
%TO.C,C101*%
X90025000Y-107500000D03*
X88475000Y-107500000D03*
%TD*%
D10*
%TO.C,R407*%
X80775000Y-154131250D03*
X79125000Y-154131250D03*
%TD*%
%TO.C,R312*%
X65912500Y-131837500D03*
X64262500Y-131837500D03*
%TD*%
D12*
%TO.C,R204*%
X46375833Y-140812500D03*
X48025833Y-140812500D03*
%TD*%
D10*
%TO.C,R611*%
X110501667Y-136275000D03*
X108851667Y-136275000D03*
%TD*%
D11*
%TO.C,D802*%
X137127917Y-152700000D03*
X137127917Y-151125000D03*
%TD*%
D12*
%TO.C,R605*%
X105876667Y-136275000D03*
X107526667Y-136275000D03*
%TD*%
D10*
%TO.C,R711*%
X125363333Y-136281250D03*
X123713333Y-136281250D03*
%TD*%
D12*
%TO.C,R601*%
X105876667Y-154125000D03*
X107526667Y-154125000D03*
%TD*%
D11*
%TO.C,D803*%
X137127917Y-148262500D03*
X137127917Y-146687500D03*
%TD*%
D20*
%TO.C,U201*%
X45486250Y-114267500D03*
X45486250Y-115537500D03*
X45486250Y-116807500D03*
X45486250Y-118077500D03*
X45486250Y-119347500D03*
X45486250Y-120617500D03*
X45486250Y-121887500D03*
X45486250Y-123157500D03*
X51986250Y-123157500D03*
X51986250Y-121887500D03*
X51986250Y-120617500D03*
X51986250Y-119347500D03*
X51986250Y-118077500D03*
X51986250Y-116807500D03*
X51986250Y-115537500D03*
X51986250Y-114267500D03*
%TD*%
D13*
%TO.C,C701*%
X122275833Y-112593750D03*
X123825833Y-112593750D03*
%TD*%
D10*
%TO.C,R812*%
X140227917Y-131837500D03*
X138577917Y-131837500D03*
%TD*%
D11*
%TO.C,D712*%
X123788333Y-134843750D03*
X123788333Y-133268750D03*
%TD*%
%TO.C,D809*%
X138602917Y-148262500D03*
X138602917Y-146687500D03*
%TD*%
D10*
%TO.C,R211*%
X51000833Y-136275000D03*
X49350833Y-136275000D03*
%TD*%
%TO.C,R307*%
X65912500Y-154125000D03*
X64262500Y-154125000D03*
%TD*%
%TO.C,R207*%
X51000833Y-154125000D03*
X49350833Y-154125000D03*
%TD*%
D13*
%TO.C,C301*%
X62824167Y-112587500D03*
X64374167Y-112587500D03*
%TD*%
D11*
%TO.C,D210*%
X49425833Y-143812500D03*
X49425833Y-142237500D03*
%TD*%
D10*
%TO.C,R707*%
X125363333Y-154131250D03*
X123713333Y-154131250D03*
%TD*%
%TO.C,R510*%
X95637500Y-140812500D03*
X93987500Y-140812500D03*
%TD*%
D11*
%TO.C,D505*%
X92587500Y-139287500D03*
X92587500Y-137712500D03*
%TD*%
%TO.C,D701*%
X122313333Y-157143750D03*
X122313333Y-155568750D03*
%TD*%
D10*
%TO.C,R208*%
X51000833Y-149700000D03*
X49350833Y-149700000D03*
%TD*%
D12*
%TO.C,R701*%
X120738333Y-154131250D03*
X122388333Y-154131250D03*
%TD*%
D20*
%TO.C,U401*%
X75212083Y-114261250D03*
X75212083Y-115531250D03*
X75212083Y-116801250D03*
X75212083Y-118071250D03*
X75212083Y-119341250D03*
X75212083Y-120611250D03*
X75212083Y-121881250D03*
X75212083Y-123151250D03*
X81712083Y-123151250D03*
X81712083Y-121881250D03*
X81712083Y-120611250D03*
X81712083Y-119341250D03*
X81712083Y-118071250D03*
X81712083Y-116801250D03*
X81712083Y-115531250D03*
X81712083Y-114261250D03*
%TD*%
D10*
%TO.C,R411*%
X80775000Y-136281250D03*
X79125000Y-136281250D03*
%TD*%
%TO.C,R410*%
X80775000Y-140818750D03*
X79125000Y-140818750D03*
%TD*%
%TO.C,R610*%
X110501667Y-140812500D03*
X108851667Y-140812500D03*
%TD*%
D12*
%TO.C,R304*%
X61287500Y-140812500D03*
X62937500Y-140812500D03*
%TD*%
%TO.C,R804*%
X135552917Y-140812500D03*
X137202917Y-140812500D03*
%TD*%
D11*
%TO.C,D208*%
X49425833Y-152700000D03*
X49425833Y-151125000D03*
%TD*%
%TO.C,D301*%
X62862500Y-157137500D03*
X62862500Y-155562500D03*
%TD*%
D15*
%TO.C,D101*%
X83325000Y-101725550D03*
X83325000Y-103300550D03*
%TD*%
D10*
%TO.C,R111*%
X104075000Y-104750000D03*
X102425000Y-104750000D03*
%TD*%
D20*
%TO.C,U601*%
X104937917Y-114267500D03*
X104937917Y-115537500D03*
X104937917Y-116807500D03*
X104937917Y-118077500D03*
X104937917Y-119347500D03*
X104937917Y-120617500D03*
X104937917Y-121887500D03*
X104937917Y-123157500D03*
X111437917Y-123157500D03*
X111437917Y-121887500D03*
X111437917Y-120617500D03*
X111437917Y-119347500D03*
X111437917Y-118077500D03*
X111437917Y-116807500D03*
X111437917Y-115537500D03*
X111437917Y-114267500D03*
%TD*%
D11*
%TO.C,D206*%
X47950833Y-134837500D03*
X47950833Y-133262500D03*
%TD*%
D12*
%TO.C,R305*%
X61287500Y-136275000D03*
X62937500Y-136275000D03*
%TD*%
D11*
%TO.C,D205*%
X47950833Y-139287500D03*
X47950833Y-137712500D03*
%TD*%
%TO.C,D306*%
X62862500Y-134837500D03*
X62862500Y-133262500D03*
%TD*%
D12*
%TO.C,R602*%
X105876667Y-149700000D03*
X107526667Y-149700000D03*
%TD*%
%TO.C,R402*%
X76150000Y-149706250D03*
X77800000Y-149706250D03*
%TD*%
D11*
%TO.C,D312*%
X64337500Y-134837500D03*
X64337500Y-133262500D03*
%TD*%
%TO.C,D404*%
X77725000Y-143818750D03*
X77725000Y-142243750D03*
%TD*%
%TO.C,D203*%
X47950833Y-148262500D03*
X47950833Y-146687500D03*
%TD*%
D23*
%TO.C,R101*%
X95074999Y-107425000D03*
X95074999Y-109075000D03*
%TD*%
D10*
%TO.C,R210*%
X51000833Y-140812500D03*
X49350833Y-140812500D03*
%TD*%
D22*
%TO.C,C115*%
X98275000Y-107500000D03*
X96725000Y-107500000D03*
%TD*%
D12*
%TO.C,R805*%
X135552917Y-136275000D03*
X137202917Y-136275000D03*
%TD*%
D11*
%TO.C,D705*%
X122313333Y-139293750D03*
X122313333Y-137718750D03*
%TD*%
%TO.C,D805*%
X137127917Y-139287500D03*
X137127917Y-137712500D03*
%TD*%
%TO.C,D812*%
X138652917Y-134837500D03*
X138652917Y-133262500D03*
%TD*%
%TO.C,D410*%
X79200000Y-143818750D03*
X79200000Y-142243750D03*
%TD*%
%TO.C,D808*%
X138602917Y-152700000D03*
X138602917Y-151125000D03*
%TD*%
D10*
%TO.C,R709*%
X125363333Y-145256250D03*
X123713333Y-145256250D03*
%TD*%
D11*
%TO.C,D710*%
X123788333Y-143818750D03*
X123788333Y-142243750D03*
%TD*%
%TO.C,D508*%
X94062500Y-152700000D03*
X94062500Y-151125000D03*
%TD*%
%TO.C,D307*%
X64337500Y-157137500D03*
X64337500Y-155562500D03*
%TD*%
D12*
%TO.C,R404*%
X76150000Y-140818750D03*
X77800000Y-140818750D03*
%TD*%
D11*
%TO.C,D806*%
X137177917Y-134837500D03*
X137177917Y-133262500D03*
%TD*%
%TO.C,D401*%
X77725000Y-157143750D03*
X77725000Y-155568750D03*
%TD*%
D10*
%TO.C,R808*%
X140177917Y-149700000D03*
X138527917Y-149700000D03*
%TD*%
D11*
%TO.C,D709*%
X123788333Y-148268750D03*
X123788333Y-146693750D03*
%TD*%
D10*
%TO.C,R609*%
X110501667Y-145250000D03*
X108851667Y-145250000D03*
%TD*%
D11*
%TO.C,D201*%
X47950833Y-157137500D03*
X47950833Y-155562500D03*
%TD*%
%TO.C,D409*%
X79200000Y-148268750D03*
X79200000Y-146693750D03*
%TD*%
D12*
%TO.C,R803*%
X135552917Y-145250000D03*
X137202917Y-145250000D03*
%TD*%
D11*
%TO.C,D801*%
X137127917Y-157137500D03*
X137127917Y-155562500D03*
%TD*%
D12*
%TO.C,R303*%
X61287500Y-145250000D03*
X62937500Y-145250000D03*
%TD*%
D11*
%TO.C,D605*%
X107451667Y-139287500D03*
X107451667Y-137712500D03*
%TD*%
D20*
%TO.C,U801*%
X134663750Y-114267500D03*
X134663750Y-115537500D03*
X134663750Y-116807500D03*
X134663750Y-118077500D03*
X134663750Y-119347500D03*
X134663750Y-120617500D03*
X134663750Y-121887500D03*
X134663750Y-123157500D03*
X141163750Y-123157500D03*
X141163750Y-121887500D03*
X141163750Y-120617500D03*
X141163750Y-119347500D03*
X141163750Y-118077500D03*
X141163750Y-116807500D03*
X141163750Y-115537500D03*
X141163750Y-114267500D03*
%TD*%
D10*
%TO.C,R708*%
X125363333Y-149706250D03*
X123713333Y-149706250D03*
%TD*%
D11*
%TO.C,D406*%
X77725000Y-134843750D03*
X77725000Y-133268750D03*
%TD*%
%TO.C,D304*%
X62862500Y-143812500D03*
X62862500Y-142237500D03*
%TD*%
D12*
%TO.C,R801*%
X135552917Y-154125000D03*
X137202917Y-154125000D03*
%TD*%
D11*
%TO.C,D702*%
X122313333Y-152706250D03*
X122313333Y-151131250D03*
%TD*%
%TO.C,D310*%
X64337500Y-143812500D03*
X64337500Y-142237500D03*
%TD*%
D12*
%TO.C,R506*%
X91012500Y-131837500D03*
X92662500Y-131837500D03*
%TD*%
D11*
%TO.C,D501*%
X92587500Y-157137500D03*
X92587500Y-155562500D03*
%TD*%
%TO.C,D504*%
X92587500Y-143812500D03*
X92587500Y-142237500D03*
%TD*%
%TO.C,D601*%
X107451667Y-157137500D03*
X107451667Y-155562500D03*
%TD*%
%TO.C,D405*%
X77725000Y-139293750D03*
X77725000Y-137718750D03*
%TD*%
D20*
%TO.C,U701*%
X119800833Y-114273750D03*
X119800833Y-115543750D03*
X119800833Y-116813750D03*
X119800833Y-118083750D03*
X119800833Y-119353750D03*
X119800833Y-120623750D03*
X119800833Y-121893750D03*
X119800833Y-123163750D03*
X126300833Y-123163750D03*
X126300833Y-121893750D03*
X126300833Y-120623750D03*
X126300833Y-119353750D03*
X126300833Y-118083750D03*
X126300833Y-116813750D03*
X126300833Y-115543750D03*
X126300833Y-114273750D03*
%TD*%
D24*
X38325000Y-103125000D02*
X38325000Y-173125000D01*
X38325000Y-103125000D02*
G75*
G02*
X43325000Y-98125000I5000000J0D01*
G01*
X43325000Y-98125000D02*
X143325000Y-98125000D01*
X43325000Y-178125000D02*
G75*
G02*
X38325000Y-173125000I0J5000000D01*
G01*
X43325000Y-178125000D02*
X143325000Y-178125000D01*
X143325000Y-98125000D02*
G75*
G02*
X148325000Y-103125000I0J-5000000D01*
G01*
X148325000Y-103125000D02*
X148325000Y-173125000D01*
X148325000Y-173125000D02*
G75*
G02*
X143325000Y-178125000I-5000000J0D01*
G01*
%TO.C,J101*%
X90742000Y-104713050D02*
G75*
G02*
X90092000Y-104713050I-325000J0D01*
G01*
X90092000Y-104713050D02*
G75*
G02*
X90742000Y-104713050I325000J0D01*
G01*
X96558000Y-104713050D02*
G75*
G02*
X95908000Y-104713050I-325000J0D01*
G01*
X95908000Y-104713050D02*
G75*
G02*
X96558000Y-104713050I325000J0D01*
G01*
%TD*%
M02*
