%TF.GenerationSoftware,KiCad,Pcbnew,10.0.0-rc1-bcf5a15dc2~186~ubuntu25.10.1*%
%TF.CreationDate,2026-02-25T20:50:38+13:00*%
%TF.ProjectId,connect_4,636f6e6e-6563-4745-9f34-2e6b69636164,rev?*%
%TF.SameCoordinates,Original*%
%TF.FileFunction,Legend,Bot*%
%TF.FilePolarity,Positive*%
%FSLAX46Y46*%
G04 Gerber Fmt 4.6, Leading zero omitted, Abs format (unit mm)*
G04 Created by KiCad (PCBNEW 10.0.0-rc1-bcf5a15dc2~186~ubuntu25.10.1) date 2026-02-25 20:50:38*
%MOMM*%
%LPD*%
G01*
G04 APERTURE LIST*
%ADD10C,0.120000*%
%TA.AperFunction,Profile*%
%ADD11C,0.050000*%
%TD*%
G04 APERTURE END LIST*
%TO.C,C702*%
D10*
X123191413Y-112083750D02*
X122910253Y-112083750D01*
X123191413Y-113103750D02*
X122910253Y-113103750D01*
%TO.C,R105*%
X102477500Y-169262742D02*
X102477500Y-169737258D01*
X103522500Y-169262742D02*
X103522500Y-169737258D01*
%TO.C,U702*%
X120290833Y-113508750D02*
X120290833Y-113713750D01*
X120290833Y-123723750D02*
X120290833Y-123928750D01*
X120290833Y-123928750D02*
X125810833Y-123928750D01*
X125810833Y-113508750D02*
X120290833Y-113508750D01*
X125810833Y-113713750D02*
X125810833Y-113508750D01*
X125810833Y-123928750D02*
X125810833Y-123723750D01*
X126450833Y-113708750D02*
X126110833Y-113238750D01*
X126790833Y-113238750D01*
X126450833Y-113708750D01*
G36*
X126450833Y-113708750D02*
G01*
X126110833Y-113238750D01*
X126790833Y-113238750D01*
X126450833Y-113708750D01*
G37*
%TO.C,C109*%
X96890580Y-131490000D02*
X96609420Y-131490000D01*
X96890580Y-132510000D02*
X96609420Y-132510000D01*
%TO.C,C114*%
X94665580Y-144740000D02*
X94384420Y-144740000D01*
X94665580Y-145760000D02*
X94384420Y-145760000D01*
%TO.C,R108*%
X62752500Y-164987258D02*
X62752500Y-164512742D01*
X63797500Y-164987258D02*
X63797500Y-164512742D01*
%TO.C,C112*%
X64165580Y-161990000D02*
X63884420Y-161990000D01*
X64165580Y-163010000D02*
X63884420Y-163010000D01*
%TO.C,R106*%
X88227500Y-142512742D02*
X88227500Y-142987258D01*
X89272500Y-142512742D02*
X89272500Y-142987258D01*
%TO.C,U602*%
X105427917Y-113502500D02*
X105427917Y-113707500D01*
X105427917Y-123717500D02*
X105427917Y-123922500D01*
X105427917Y-123922500D02*
X110947917Y-123922500D01*
X110947917Y-113502500D02*
X105427917Y-113502500D01*
X110947917Y-113707500D02*
X110947917Y-113502500D01*
X110947917Y-123922500D02*
X110947917Y-123717500D01*
X111587917Y-113702500D02*
X111247917Y-113232500D01*
X111927917Y-113232500D01*
X111587917Y-113702500D01*
G36*
X111587917Y-113702500D02*
G01*
X111247917Y-113232500D01*
X111927917Y-113232500D01*
X111587917Y-113702500D01*
G37*
%TO.C,U102*%
X89715000Y-134515000D02*
X89715000Y-134965000D01*
X89715000Y-141285000D02*
X89715000Y-141735000D01*
X89715000Y-141735000D02*
X90165000Y-141735000D01*
X90165000Y-134515000D02*
X89715000Y-134515000D01*
X96485000Y-141735000D02*
X96935000Y-141735000D01*
X96935000Y-134515000D02*
X96485000Y-134515000D01*
X96935000Y-134965000D02*
X96935000Y-134515000D01*
X96935000Y-141735000D02*
X96935000Y-141285000D01*
X96955000Y-142715000D02*
X96485000Y-142375000D01*
X96955000Y-142035000D01*
X96955000Y-142715000D01*
G36*
X96955000Y-142715000D02*
G01*
X96485000Y-142375000D01*
X96955000Y-142035000D01*
X96955000Y-142715000D01*
G37*
%TO.C,C103*%
X100240000Y-104865580D02*
X100240000Y-104584420D01*
X101260000Y-104865580D02*
X101260000Y-104584420D01*
%TO.C,C111*%
X102109420Y-171240000D02*
X102390580Y-171240000D01*
X102109420Y-172260000D02*
X102390580Y-172260000D01*
%TO.C,U302*%
X60839167Y-113502500D02*
X60839167Y-113707500D01*
X60839167Y-123717500D02*
X60839167Y-123922500D01*
X60839167Y-123922500D02*
X66359167Y-123922500D01*
X66359167Y-113502500D02*
X60839167Y-113502500D01*
X66359167Y-113707500D02*
X66359167Y-113502500D01*
X66359167Y-123922500D02*
X66359167Y-123717500D01*
X66999167Y-113702500D02*
X66659167Y-113232500D01*
X67339167Y-113232500D01*
X66999167Y-113702500D01*
G36*
X66999167Y-113702500D02*
G01*
X66659167Y-113232500D01*
X67339167Y-113232500D01*
X66999167Y-113702500D01*
G37*
%TO.C,C104*%
X104576248Y-107740000D02*
X105998752Y-107740000D01*
X104576248Y-109560000D02*
X105998752Y-109560000D01*
%TO.C,C105*%
X86740000Y-134890580D02*
X86740000Y-134609420D01*
X87760000Y-134890580D02*
X87760000Y-134609420D01*
%TO.C,U402*%
X75702083Y-113496250D02*
X75702083Y-113701250D01*
X75702083Y-123711250D02*
X75702083Y-123916250D01*
X75702083Y-123916250D02*
X81222083Y-123916250D01*
X81222083Y-113496250D02*
X75702083Y-113496250D01*
X81222083Y-113701250D02*
X81222083Y-113496250D01*
X81222083Y-123916250D02*
X81222083Y-123711250D01*
X81862083Y-113696250D02*
X81522083Y-113226250D01*
X82202083Y-113226250D01*
X81862083Y-113696250D01*
G36*
X81862083Y-113696250D02*
G01*
X81522083Y-113226250D01*
X82202083Y-113226250D01*
X81862083Y-113696250D01*
G37*
%TO.C,C108*%
X85240000Y-134609420D02*
X85240000Y-134890580D01*
X86260000Y-134609420D02*
X86260000Y-134890580D01*
%TO.C,C102*%
X100240000Y-107584420D02*
X100240000Y-107865580D01*
X101260000Y-107584420D02*
X101260000Y-107865580D01*
%TO.C,R109*%
X127177500Y-165062258D02*
X127177500Y-164587742D01*
X128222500Y-165062258D02*
X128222500Y-164587742D01*
%TO.C,R110*%
X128677500Y-165062258D02*
X128677500Y-164587742D01*
X129722500Y-165062258D02*
X129722500Y-164587742D01*
%TO.C,SW104*%
X90775000Y-166650000D02*
X90775000Y-166550000D01*
X90775000Y-168150000D02*
X90775000Y-171150000D01*
X90775000Y-172750000D02*
X90775000Y-172650000D01*
X96975000Y-166550000D02*
X90775000Y-166550000D01*
X96975000Y-166550000D02*
X96975000Y-166650000D01*
X96975000Y-168150000D02*
X96975000Y-171150000D01*
X96975000Y-172750000D02*
X90775000Y-172750000D01*
X96975000Y-172750000D02*
X96975000Y-172650000D01*
%TO.C,C202*%
X48876830Y-112077500D02*
X48595670Y-112077500D01*
X48876830Y-113097500D02*
X48595670Y-113097500D01*
%TO.C,U502*%
X90565000Y-113502500D02*
X90565000Y-113707500D01*
X90565000Y-123717500D02*
X90565000Y-123922500D01*
X90565000Y-123922500D02*
X96085000Y-123922500D01*
X96085000Y-113502500D02*
X90565000Y-113502500D01*
X96085000Y-113707500D02*
X96085000Y-113502500D01*
X96085000Y-123922500D02*
X96085000Y-123717500D01*
X96725000Y-113702500D02*
X96385000Y-113232500D01*
X97065000Y-113232500D01*
X96725000Y-113702500D01*
G36*
X96725000Y-113702500D02*
G01*
X96385000Y-113232500D01*
X97065000Y-113232500D01*
X96725000Y-113702500D01*
G37*
%TO.C,U101*%
X101840000Y-101190000D02*
X103100000Y-101190000D01*
X101840000Y-104950000D02*
X101840000Y-101190000D01*
X108660000Y-101190000D02*
X107400000Y-101190000D01*
X108660000Y-104950000D02*
X108660000Y-101190000D01*
X108890000Y-106470000D02*
X108560000Y-106230000D01*
X108890000Y-105990000D01*
X108890000Y-106470000D01*
G36*
X108890000Y-106470000D02*
G01*
X108560000Y-106230000D01*
X108890000Y-105990000D01*
X108890000Y-106470000D01*
G37*
%TO.C,U202*%
X45976250Y-113502500D02*
X45976250Y-113707500D01*
X45976250Y-123717500D02*
X45976250Y-123922500D01*
X45976250Y-123922500D02*
X51496250Y-123922500D01*
X51496250Y-113502500D02*
X45976250Y-113502500D01*
X51496250Y-113707500D02*
X51496250Y-113502500D01*
X51496250Y-123922500D02*
X51496250Y-123717500D01*
X52136250Y-113702500D02*
X51796250Y-113232500D01*
X52476250Y-113232500D01*
X52136250Y-113702500D01*
G36*
X52136250Y-113702500D02*
G01*
X51796250Y-113232500D01*
X52476250Y-113232500D01*
X52136250Y-113702500D01*
G37*
%TO.C,C106*%
X100990000Y-141640580D02*
X100990000Y-141359420D01*
X102010000Y-141640580D02*
X102010000Y-141359420D01*
%TO.C,C401*%
X78602663Y-112071250D02*
X78321503Y-112071250D01*
X78602663Y-113091250D02*
X78321503Y-113091250D01*
%TO.C,R104*%
X100977500Y-169262742D02*
X100977500Y-169737258D01*
X102022500Y-169262742D02*
X102022500Y-169737258D01*
%TO.C,C802*%
X138054330Y-112077500D02*
X137773170Y-112077500D01*
X138054330Y-113097500D02*
X137773170Y-113097500D01*
%TO.C,C602*%
X108328497Y-112077500D02*
X108047337Y-112077500D01*
X108328497Y-113097500D02*
X108047337Y-113097500D01*
%TO.C,C107*%
X86640580Y-136740000D02*
X86359420Y-136740000D01*
X86640580Y-137760000D02*
X86359420Y-137760000D01*
%TO.C,C110*%
X99490000Y-141640580D02*
X99490000Y-141359420D01*
X100510000Y-141640580D02*
X100510000Y-141359420D01*
%TO.C,C113*%
X128309420Y-162065000D02*
X128590580Y-162065000D01*
X128309420Y-163085000D02*
X128590580Y-163085000D01*
%TO.C,R107*%
X64252500Y-164987258D02*
X64252500Y-164512742D01*
X65297500Y-164987258D02*
X65297500Y-164512742D01*
%TO.C,U802*%
X135153750Y-113502500D02*
X135153750Y-113707500D01*
X135153750Y-123717500D02*
X135153750Y-123922500D01*
X135153750Y-123922500D02*
X140673750Y-123922500D01*
X140673750Y-113502500D02*
X135153750Y-113502500D01*
X140673750Y-113707500D02*
X140673750Y-113502500D01*
X140673750Y-123922500D02*
X140673750Y-123717500D01*
X141313750Y-113702500D02*
X140973750Y-113232500D01*
X141653750Y-113232500D01*
X141313750Y-113702500D01*
G36*
X141313750Y-113702500D02*
G01*
X140973750Y-113232500D01*
X141653750Y-113232500D01*
X141313750Y-113702500D01*
G37*
%TO.C,C302*%
X63739747Y-112077500D02*
X63458587Y-112077500D01*
X63739747Y-113097500D02*
X63458587Y-113097500D01*
%TO.C,C502*%
X93465580Y-112077500D02*
X93184420Y-112077500D01*
X93465580Y-113097500D02*
X93184420Y-113097500D01*
%TD*%
D11*
X38325000Y-103125000D02*
X38325000Y-173125000D01*
X38325000Y-103125000D02*
G75*
G02*
X43325000Y-98125000I5000000J0D01*
G01*
X43325000Y-98125000D02*
X143325000Y-98125000D01*
X43325000Y-178125000D02*
G75*
G02*
X38325000Y-173125000I0J5000000D01*
G01*
X43325000Y-178125000D02*
X143325000Y-178125000D01*
X143325000Y-98125000D02*
G75*
G02*
X148325000Y-103125000I0J-5000000D01*
G01*
X148325000Y-103125000D02*
X148325000Y-173125000D01*
X148325000Y-173125000D02*
G75*
G02*
X143325000Y-178125000I-5000000J0D01*
G01*
%TO.C,J101*%
X90742000Y-104713050D02*
G75*
G02*
X90092000Y-104713050I-325000J0D01*
G01*
X90092000Y-104713050D02*
G75*
G02*
X90742000Y-104713050I325000J0D01*
G01*
X96558000Y-104713050D02*
G75*
G02*
X95908000Y-104713050I-325000J0D01*
G01*
X95908000Y-104713050D02*
G75*
G02*
X96558000Y-104713050I325000J0D01*
G01*
%TD*%
M02*
