%TF.GenerationSoftware,KiCad,Pcbnew,10.0.0-rc1-bcf5a15dc2~186~ubuntu25.10.1*%
%TF.CreationDate,2026-02-25T20:50:38+13:00*%
%TF.ProjectId,connect_4,636f6e6e-6563-4745-9f34-2e6b69636164,rev?*%
%TF.SameCoordinates,Original*%
%TF.FileFunction,Copper,L2,Inr*%
%TF.FilePolarity,Positive*%
%FSLAX46Y46*%
G04 Gerber Fmt 4.6, Leading zero omitted, Abs format (unit mm)*
G04 Created by KiCad (PCBNEW 10.0.0-rc1-bcf5a15dc2~186~ubuntu25.10.1) date 2026-02-25 20:50:38*
%MOMM*%
%LPD*%
G01*
G04 APERTURE LIST*
%TA.AperFunction,ComponentPad*%
%ADD10O,1.000000X2.100000*%
%TD*%
%TA.AperFunction,ComponentPad*%
%ADD11O,1.000000X1.800000*%
%TD*%
%TA.AperFunction,ViaPad*%
%ADD12C,0.600000*%
%TD*%
%TA.AperFunction,Profile*%
%ADD13C,0.050000*%
%TD*%
G04 APERTURE END LIST*
D10*
%TO.N,GND*%
%TO.C,J101*%
X97645002Y-105212550D03*
D11*
X97645002Y-101032550D03*
D10*
X89004998Y-105212550D03*
D11*
X89004998Y-101032550D03*
%TD*%
D12*
%TO.N,GND*%
X105750000Y-152250000D03*
X140000000Y-139000000D03*
X95500000Y-157000000D03*
X123250000Y-114000000D03*
X65750000Y-134750000D03*
X91000000Y-152750000D03*
X92750000Y-109750000D03*
X106000000Y-142500000D03*
X95750000Y-152750000D03*
X80750000Y-152500000D03*
X91000000Y-139250000D03*
X110250000Y-157000000D03*
X120750000Y-143500000D03*
X121000000Y-112500000D03*
X97525000Y-124000000D03*
X81000000Y-157250000D03*
X91751416Y-137001101D03*
X125250000Y-143500000D03*
X76000000Y-143750000D03*
X110750000Y-139000000D03*
X100750000Y-102750000D03*
X106250000Y-134500000D03*
X95250000Y-135250000D03*
X91000000Y-112500000D03*
X121000000Y-134750000D03*
X65750000Y-143750000D03*
X106000000Y-157000000D03*
X95500000Y-148250000D03*
X140250000Y-134500000D03*
X99500000Y-104000000D03*
X48750000Y-114000000D03*
X51000000Y-143500000D03*
X46250000Y-152500000D03*
X61500000Y-148000000D03*
X95500000Y-139250000D03*
X51250000Y-148000000D03*
X140250000Y-143500000D03*
X110750000Y-142500000D03*
X46500000Y-148000000D03*
X61250000Y-112500000D03*
X66000000Y-152750000D03*
X108500000Y-114000000D03*
X138000000Y-114000000D03*
X105287500Y-108650000D03*
X83500000Y-137250000D03*
X50750000Y-111750000D03*
X61500000Y-143750000D03*
X97250000Y-133250000D03*
X120750000Y-157000000D03*
X76250000Y-157250000D03*
X61500000Y-152500000D03*
X99500000Y-108500000D03*
X80500000Y-148250000D03*
X120750000Y-152500000D03*
X65750000Y-157000000D03*
X135750000Y-148000000D03*
X61500000Y-133500000D03*
X78500000Y-114000000D03*
X51000000Y-152500000D03*
X81250000Y-137750000D03*
X61000000Y-138750000D03*
X46250000Y-139000000D03*
X66000000Y-148250000D03*
X66250000Y-138500000D03*
X67250000Y-124250000D03*
X125250000Y-157250000D03*
X61250000Y-157000000D03*
X135750000Y-134500000D03*
X46250000Y-143500000D03*
X91250000Y-148250000D03*
X111600000Y-124400000D03*
X63750000Y-114000000D03*
X141200000Y-124400000D03*
X50750000Y-134750000D03*
X46750000Y-112500000D03*
X81000000Y-143750000D03*
X106000000Y-112500000D03*
X88500000Y-108750000D03*
X106000000Y-148000000D03*
X98500000Y-142000000D03*
X140250000Y-152500000D03*
X76250000Y-148000000D03*
X135750000Y-139000000D03*
X107500000Y-104250000D03*
X91000000Y-157000000D03*
X108250000Y-108500000D03*
X126400000Y-124200000D03*
X51250000Y-139250000D03*
X93250000Y-114000000D03*
X135750000Y-152250000D03*
X125500000Y-148000000D03*
X120750000Y-148000000D03*
X125250000Y-152750000D03*
X102000000Y-108500000D03*
X140250000Y-148000000D03*
X135750000Y-143500000D03*
X140250000Y-157000000D03*
X110500000Y-148000000D03*
X135750000Y-157000000D03*
X76250000Y-152500000D03*
X93875283Y-109750000D03*
X125250000Y-139250000D03*
X110250000Y-152500000D03*
X82200000Y-124200000D03*
X76250000Y-112500000D03*
X75750000Y-139000000D03*
X80500000Y-134750000D03*
X46750000Y-134750000D03*
X52250000Y-124250000D03*
X98250000Y-108750000D03*
X109250000Y-106250000D03*
X76500000Y-134750000D03*
%TO.N,VBUS*%
X90000000Y-108750000D03*
X96750000Y-108750000D03*
%TO.N,~{RST}*%
X96250000Y-170500000D03*
X95750000Y-168250000D03*
%TO.N,BOOT0*%
X97545588Y-142204412D03*
X100500000Y-171000000D03*
%TO.N,+3V3*%
X105250000Y-103250000D03*
X123000000Y-111600000D03*
X93750000Y-171750000D03*
X108200000Y-111400000D03*
X91000000Y-135250000D03*
X105250000Y-102000000D03*
X64250000Y-111500000D03*
X104500000Y-141750000D03*
X105250000Y-104500000D03*
X104731250Y-107731250D03*
X79200000Y-111600000D03*
X128250000Y-171750000D03*
X94812501Y-140215790D03*
X49500000Y-111500000D03*
X93200000Y-111400000D03*
X63750000Y-171750000D03*
X137800000Y-111600000D03*
X97000000Y-134250000D03*
X91000000Y-137750000D03*
%TO.N,~{CLEAR}*%
X142800000Y-110600000D03*
X128000000Y-110500000D03*
X88250000Y-110500000D03*
X113200000Y-110500000D03*
X98400000Y-110500000D03*
X53750000Y-110500000D03*
X85462754Y-144000000D03*
X68400000Y-110500000D03*
X83600000Y-110500000D03*
%TO.N,/STAT*%
X83250000Y-105750000D03*
X84500000Y-145000000D03*
%TO.N,Net-(U302-QH)*%
X67860830Y-125000000D03*
%TO.N,Net-(U302-QG)*%
X68660833Y-125000000D03*
%TO.N,Net-(U302-QF)*%
X69507307Y-125000000D03*
%TO.N,Net-(U302-QE)*%
X70353781Y-125000000D03*
%TO.N,Net-(U302-QD)*%
X71200254Y-125000000D03*
%TO.N,Net-(U302-QC)*%
X72046728Y-125000000D03*
%TO.N,Net-(U402-QH)*%
X82723330Y-124993750D03*
%TO.N,Net-(U402-QG)*%
X83523333Y-124993750D03*
%TO.N,Net-(U402-QF)*%
X84369807Y-124993750D03*
%TO.N,Net-(U402-QE)*%
X85216281Y-124993750D03*
%TO.N,Net-(U402-QD)*%
X86062754Y-124993750D03*
%TO.N,Net-(U402-QC)*%
X86909228Y-124993750D03*
%TO.N,Net-(U502-QH)*%
X97585830Y-125000000D03*
%TO.N,Net-(U502-QG)*%
X98385833Y-125000000D03*
%TO.N,Net-(U502-QF)*%
X99232307Y-125000000D03*
%TO.N,Net-(U502-QE)*%
X100078781Y-125000000D03*
%TO.N,Net-(U502-QD)*%
X100925254Y-125000000D03*
%TO.N,Net-(U502-QC)*%
X101771728Y-125000000D03*
%TO.N,Net-(U602-QH)*%
X112449997Y-125000000D03*
%TO.N,Net-(U602-QG)*%
X113250000Y-125000000D03*
%TO.N,Net-(U602-QF)*%
X114096474Y-125000000D03*
%TO.N,Net-(U602-QE)*%
X114942948Y-125000000D03*
%TO.N,Net-(U602-QD)*%
X115789421Y-125000000D03*
%TO.N,Net-(U602-QC)*%
X116635895Y-125000000D03*
%TO.N,Net-(U702-QH)*%
X127311663Y-125006250D03*
%TO.N,Net-(U702-QG)*%
X128111666Y-125006250D03*
%TO.N,Net-(U702-QF)*%
X128958140Y-125006250D03*
%TO.N,Net-(U702-QE)*%
X129804614Y-125006250D03*
%TO.N,Net-(U702-QD)*%
X130651087Y-125006250D03*
%TO.N,Net-(U702-QC)*%
X131497561Y-125006250D03*
%TO.N,Net-(U802-QH)*%
X142176247Y-125000000D03*
%TO.N,Net-(U802-QG)*%
X142976250Y-125000000D03*
%TO.N,Net-(U802-QF)*%
X143822724Y-125000000D03*
%TO.N,Net-(U802-QE)*%
X144669198Y-125000000D03*
%TO.N,Net-(U802-QD)*%
X145515671Y-125000000D03*
%TO.N,Net-(U802-QC)*%
X146362145Y-125000000D03*
%TO.N,/R1_CLK*%
X49872916Y-120000000D03*
%TO.N,/R1_DAT*%
X50000000Y-116750000D03*
%TO.N,/R3_DAT*%
X80000000Y-116800000D03*
%TO.N,/R7_DAT*%
X139000000Y-116800000D03*
%TO.N,/R3_CLK*%
X79647083Y-120000000D03*
%TO.N,/R5_DAT*%
X109400000Y-116800000D03*
%TO.N,/R5_CLK*%
X109374750Y-120000000D03*
%TO.N,/R2_CLK*%
X64848167Y-120000000D03*
%TO.N,/R6_DAT*%
X124400000Y-116800000D03*
%TO.N,/R7_CLK*%
X139050000Y-120000000D03*
%TO.N,/R4_CLK*%
X94509583Y-120100000D03*
%TO.N,/R6_CLK*%
X124235416Y-120000000D03*
%TO.N,/R2_DAT*%
X65000000Y-116750000D03*
%TO.N,/R4_DAT*%
X94600000Y-116800000D03*
%TO.N,Net-(R104-Pad1)*%
X93850000Y-167650000D03*
%TO.N,Net-(R107-Pad1)*%
X62500000Y-167650000D03*
X65500000Y-167650000D03*
%TO.N,Net-(R109-Pad1)*%
X126250000Y-167750000D03*
X130500000Y-167750000D03*
%TO.N,Net-(U202-QH)*%
X52949163Y-125000000D03*
%TO.N,Net-(U202-QG)*%
X53749166Y-125000000D03*
%TO.N,Net-(U202-QF)*%
X54595640Y-125000000D03*
%TO.N,Net-(U202-QE)*%
X55442114Y-125000000D03*
%TO.N,Net-(U202-QD)*%
X56288587Y-125000000D03*
%TO.N,Net-(U202-QC)*%
X57135061Y-125000000D03*
%TO.N,USB_D-*%
X93199479Y-107800521D03*
X94949479Y-128449479D03*
X93000000Y-103750000D03*
%TO.N,USB_D+*%
X95550521Y-129050521D03*
X93800521Y-107199479D03*
%TD*%
%TA.AperFunction,Conductor*%
%TO.N,GND*%
G36*
X143327702Y-98295617D02*
G01*
X143740533Y-98313642D01*
X143751268Y-98314582D01*
X144158279Y-98368166D01*
X144168898Y-98370038D01*
X144569699Y-98458893D01*
X144580111Y-98461682D01*
X144971640Y-98585131D01*
X144981775Y-98588820D01*
X145361042Y-98745918D01*
X145370833Y-98750484D01*
X145734964Y-98940039D01*
X145744305Y-98945432D01*
X146068511Y-99151974D01*
X146090516Y-99165993D01*
X146099377Y-99172197D01*
X146425050Y-99422094D01*
X146433337Y-99429048D01*
X146735980Y-99706370D01*
X146743629Y-99714019D01*
X147020951Y-100016662D01*
X147027905Y-100024949D01*
X147277802Y-100350622D01*
X147284006Y-100359483D01*
X147504559Y-100705680D01*
X147509964Y-100715042D01*
X147638151Y-100961285D01*
X147699512Y-101079159D01*
X147704084Y-101088963D01*
X147861173Y-101468209D01*
X147864872Y-101478372D01*
X147987599Y-101867613D01*
X147988311Y-101869869D01*
X147991110Y-101880316D01*
X148064044Y-102209301D01*
X148079958Y-102281084D01*
X148081836Y-102291737D01*
X148135415Y-102698711D01*
X148136358Y-102709487D01*
X148154382Y-103122297D01*
X148154500Y-103127706D01*
X148154500Y-173122293D01*
X148154382Y-173127702D01*
X148136358Y-173540512D01*
X148135415Y-173551288D01*
X148081836Y-173958262D01*
X148079958Y-173968915D01*
X147991111Y-174369680D01*
X147988311Y-174380130D01*
X147864873Y-174771625D01*
X147861173Y-174781790D01*
X147704084Y-175161036D01*
X147699512Y-175170840D01*
X147509968Y-175534951D01*
X147504559Y-175544319D01*
X147284006Y-175890516D01*
X147277802Y-175899377D01*
X147027905Y-176225050D01*
X147020951Y-176233337D01*
X146743629Y-176535980D01*
X146735980Y-176543629D01*
X146433337Y-176820951D01*
X146425050Y-176827905D01*
X146099377Y-177077802D01*
X146090516Y-177084006D01*
X145744319Y-177304559D01*
X145734951Y-177309968D01*
X145370840Y-177499512D01*
X145361036Y-177504084D01*
X144981790Y-177661173D01*
X144971625Y-177664873D01*
X144580130Y-177788311D01*
X144569680Y-177791111D01*
X144168915Y-177879958D01*
X144158262Y-177881836D01*
X143751288Y-177935415D01*
X143740512Y-177936358D01*
X143327703Y-177954382D01*
X143322294Y-177954500D01*
X43327706Y-177954500D01*
X43322297Y-177954382D01*
X42909487Y-177936358D01*
X42898711Y-177935415D01*
X42491737Y-177881836D01*
X42481084Y-177879958D01*
X42443573Y-177871642D01*
X42080316Y-177791110D01*
X42069873Y-177788312D01*
X41678372Y-177664872D01*
X41668209Y-177661173D01*
X41288963Y-177504084D01*
X41279159Y-177499512D01*
X41161285Y-177438151D01*
X40915042Y-177309964D01*
X40905686Y-177304563D01*
X40732581Y-177194282D01*
X40559483Y-177084006D01*
X40550622Y-177077802D01*
X40224949Y-176827905D01*
X40216662Y-176820951D01*
X39914019Y-176543629D01*
X39906370Y-176535980D01*
X39629048Y-176233337D01*
X39622094Y-176225050D01*
X39372197Y-175899377D01*
X39365993Y-175890516D01*
X39351974Y-175868511D01*
X39145432Y-175544305D01*
X39140039Y-175534964D01*
X38950484Y-175170833D01*
X38945915Y-175161036D01*
X38881749Y-175006125D01*
X38788820Y-174781775D01*
X38785131Y-174771640D01*
X38661682Y-174380111D01*
X38658893Y-174369699D01*
X38570038Y-173968898D01*
X38568166Y-173958279D01*
X38514582Y-173551268D01*
X38513642Y-173540533D01*
X38495618Y-173127702D01*
X38495500Y-173122293D01*
X38495500Y-171671153D01*
X62949500Y-171671153D01*
X62949500Y-171828846D01*
X62980261Y-171983489D01*
X62980264Y-171983501D01*
X63040602Y-172129172D01*
X63040609Y-172129185D01*
X63128210Y-172260288D01*
X63128213Y-172260292D01*
X63239707Y-172371786D01*
X63239711Y-172371789D01*
X63370814Y-172459390D01*
X63370827Y-172459397D01*
X63516498Y-172519735D01*
X63516503Y-172519737D01*
X63671153Y-172550499D01*
X63671156Y-172550500D01*
X63671158Y-172550500D01*
X63828844Y-172550500D01*
X63828845Y-172550499D01*
X63983497Y-172519737D01*
X64129179Y-172459394D01*
X64260289Y-172371789D01*
X64371789Y-172260289D01*
X64459394Y-172129179D01*
X64519737Y-171983497D01*
X64550500Y-171828842D01*
X64550500Y-171671158D01*
X64550500Y-171671155D01*
X64550499Y-171671153D01*
X92949500Y-171671153D01*
X92949500Y-171828846D01*
X92980261Y-171983489D01*
X92980264Y-171983501D01*
X93040602Y-172129172D01*
X93040609Y-172129185D01*
X93128210Y-172260288D01*
X93128213Y-172260292D01*
X93239707Y-172371786D01*
X93239711Y-172371789D01*
X93370814Y-172459390D01*
X93370827Y-172459397D01*
X93516498Y-172519735D01*
X93516503Y-172519737D01*
X93671153Y-172550499D01*
X93671156Y-172550500D01*
X93671158Y-172550500D01*
X93828844Y-172550500D01*
X93828845Y-172550499D01*
X93983497Y-172519737D01*
X94129179Y-172459394D01*
X94260289Y-172371789D01*
X94371789Y-172260289D01*
X94459394Y-172129179D01*
X94519737Y-171983497D01*
X94550500Y-171828842D01*
X94550500Y-171671158D01*
X94550500Y-171671155D01*
X94550499Y-171671153D01*
X94519738Y-171516510D01*
X94519737Y-171516503D01*
X94517163Y-171510288D01*
X94459397Y-171370827D01*
X94459390Y-171370814D01*
X94371789Y-171239711D01*
X94371786Y-171239707D01*
X94260292Y-171128213D01*
X94260288Y-171128210D01*
X94129185Y-171040609D01*
X94129172Y-171040602D01*
X93983501Y-170980264D01*
X93983489Y-170980261D01*
X93828845Y-170949500D01*
X93828842Y-170949500D01*
X93671158Y-170949500D01*
X93671155Y-170949500D01*
X93516510Y-170980261D01*
X93516498Y-170980264D01*
X93370827Y-171040602D01*
X93370814Y-171040609D01*
X93239711Y-171128210D01*
X93239707Y-171128213D01*
X93128213Y-171239707D01*
X93128210Y-171239711D01*
X93040609Y-171370814D01*
X93040602Y-171370827D01*
X92980264Y-171516498D01*
X92980261Y-171516510D01*
X92949500Y-171671153D01*
X64550499Y-171671153D01*
X64519738Y-171516510D01*
X64519737Y-171516503D01*
X64517163Y-171510288D01*
X64459397Y-171370827D01*
X64459390Y-171370814D01*
X64371789Y-171239711D01*
X64371786Y-171239707D01*
X64260292Y-171128213D01*
X64260288Y-171128210D01*
X64129185Y-171040609D01*
X64129172Y-171040602D01*
X63983501Y-170980264D01*
X63983489Y-170980261D01*
X63828845Y-170949500D01*
X63828842Y-170949500D01*
X63671158Y-170949500D01*
X63671155Y-170949500D01*
X63516510Y-170980261D01*
X63516498Y-170980264D01*
X63370827Y-171040602D01*
X63370814Y-171040609D01*
X63239711Y-171128210D01*
X63239707Y-171128213D01*
X63128213Y-171239707D01*
X63128210Y-171239711D01*
X63040609Y-171370814D01*
X63040602Y-171370827D01*
X62980264Y-171516498D01*
X62980261Y-171516510D01*
X62949500Y-171671153D01*
X38495500Y-171671153D01*
X38495500Y-170421153D01*
X95449500Y-170421153D01*
X95449500Y-170578846D01*
X95480261Y-170733489D01*
X95480264Y-170733501D01*
X95540602Y-170879172D01*
X95540609Y-170879185D01*
X95628210Y-171010288D01*
X95628213Y-171010292D01*
X95739707Y-171121786D01*
X95739711Y-171121789D01*
X95870814Y-171209390D01*
X95870827Y-171209397D01*
X95944013Y-171239711D01*
X96016503Y-171269737D01*
X96171153Y-171300499D01*
X96171156Y-171300500D01*
X96171158Y-171300500D01*
X96328844Y-171300500D01*
X96328845Y-171300499D01*
X96483497Y-171269737D01*
X96629179Y-171209394D01*
X96760289Y-171121789D01*
X96871789Y-171010289D01*
X96931348Y-170921153D01*
X99699500Y-170921153D01*
X99699500Y-171078846D01*
X99730261Y-171233489D01*
X99730264Y-171233501D01*
X99790602Y-171379172D01*
X99790609Y-171379185D01*
X99878210Y-171510288D01*
X99878213Y-171510292D01*
X99989707Y-171621786D01*
X99989711Y-171621789D01*
X100120814Y-171709390D01*
X100120827Y-171709397D01*
X100266498Y-171769735D01*
X100266503Y-171769737D01*
X100421153Y-171800499D01*
X100421156Y-171800500D01*
X100421158Y-171800500D01*
X100578844Y-171800500D01*
X100578845Y-171800499D01*
X100733497Y-171769737D01*
X100879179Y-171709394D01*
X100936411Y-171671153D01*
X127449500Y-171671153D01*
X127449500Y-171828846D01*
X127480261Y-171983489D01*
X127480264Y-171983501D01*
X127540602Y-172129172D01*
X127540609Y-172129185D01*
X127628210Y-172260288D01*
X127628213Y-172260292D01*
X127739707Y-172371786D01*
X127739711Y-172371789D01*
X127870814Y-172459390D01*
X127870827Y-172459397D01*
X128016498Y-172519735D01*
X128016503Y-172519737D01*
X128171153Y-172550499D01*
X128171156Y-172550500D01*
X128171158Y-172550500D01*
X128328844Y-172550500D01*
X128328845Y-172550499D01*
X128483497Y-172519737D01*
X128629179Y-172459394D01*
X128760289Y-172371789D01*
X128871789Y-172260289D01*
X128959394Y-172129179D01*
X129019737Y-171983497D01*
X129050500Y-171828842D01*
X129050500Y-171671158D01*
X129050500Y-171671155D01*
X129050499Y-171671153D01*
X129019738Y-171516510D01*
X129019737Y-171516503D01*
X129017163Y-171510288D01*
X128959397Y-171370827D01*
X128959390Y-171370814D01*
X128871789Y-171239711D01*
X128871786Y-171239707D01*
X128760292Y-171128213D01*
X128760288Y-171128210D01*
X128629185Y-171040609D01*
X128629172Y-171040602D01*
X128483501Y-170980264D01*
X128483489Y-170980261D01*
X128328845Y-170949500D01*
X128328842Y-170949500D01*
X128171158Y-170949500D01*
X128171155Y-170949500D01*
X128016510Y-170980261D01*
X128016498Y-170980264D01*
X127870827Y-171040602D01*
X127870814Y-171040609D01*
X127739711Y-171128210D01*
X127739707Y-171128213D01*
X127628213Y-171239707D01*
X127628210Y-171239711D01*
X127540609Y-171370814D01*
X127540602Y-171370827D01*
X127480264Y-171516498D01*
X127480261Y-171516510D01*
X127449500Y-171671153D01*
X100936411Y-171671153D01*
X101010289Y-171621789D01*
X101010292Y-171621786D01*
X101054694Y-171577385D01*
X101121786Y-171510292D01*
X101121789Y-171510289D01*
X101209394Y-171379179D01*
X101212854Y-171370827D01*
X101241984Y-171300499D01*
X101269737Y-171233497D01*
X101300500Y-171078842D01*
X101300500Y-170921158D01*
X101300500Y-170921155D01*
X101300499Y-170921153D01*
X101269738Y-170766510D01*
X101269737Y-170766503D01*
X101256062Y-170733489D01*
X101209397Y-170620827D01*
X101209390Y-170620814D01*
X101121789Y-170489711D01*
X101121786Y-170489707D01*
X101010292Y-170378213D01*
X101010288Y-170378210D01*
X100879185Y-170290609D01*
X100879172Y-170290602D01*
X100733501Y-170230264D01*
X100733489Y-170230261D01*
X100578845Y-170199500D01*
X100578842Y-170199500D01*
X100421158Y-170199500D01*
X100421155Y-170199500D01*
X100266510Y-170230261D01*
X100266498Y-170230264D01*
X100120827Y-170290602D01*
X100120814Y-170290609D01*
X99989711Y-170378210D01*
X99989707Y-170378213D01*
X99878213Y-170489707D01*
X99878210Y-170489711D01*
X99790609Y-170620814D01*
X99790602Y-170620827D01*
X99730264Y-170766498D01*
X99730261Y-170766510D01*
X99699500Y-170921153D01*
X96931348Y-170921153D01*
X96959394Y-170879179D01*
X97019737Y-170733497D01*
X97050500Y-170578842D01*
X97050500Y-170421158D01*
X97050500Y-170421155D01*
X97050499Y-170421153D01*
X97024531Y-170290606D01*
X97019737Y-170266503D01*
X97019735Y-170266498D01*
X96959397Y-170120827D01*
X96959390Y-170120814D01*
X96871789Y-169989711D01*
X96871786Y-169989707D01*
X96760292Y-169878213D01*
X96760288Y-169878210D01*
X96629185Y-169790609D01*
X96629172Y-169790602D01*
X96483501Y-169730264D01*
X96483489Y-169730261D01*
X96328845Y-169699500D01*
X96328842Y-169699500D01*
X96171158Y-169699500D01*
X96171155Y-169699500D01*
X96016510Y-169730261D01*
X96016498Y-169730264D01*
X95870827Y-169790602D01*
X95870814Y-169790609D01*
X95739711Y-169878210D01*
X95739707Y-169878213D01*
X95628213Y-169989707D01*
X95628210Y-169989711D01*
X95540609Y-170120814D01*
X95540602Y-170120827D01*
X95480264Y-170266498D01*
X95480261Y-170266510D01*
X95449500Y-170421153D01*
X38495500Y-170421153D01*
X38495500Y-167571153D01*
X61699500Y-167571153D01*
X61699500Y-167728846D01*
X61730261Y-167883489D01*
X61730264Y-167883501D01*
X61790602Y-168029172D01*
X61790609Y-168029185D01*
X61878210Y-168160288D01*
X61878213Y-168160292D01*
X61989707Y-168271786D01*
X61989711Y-168271789D01*
X62120814Y-168359390D01*
X62120827Y-168359397D01*
X62266498Y-168419735D01*
X62266503Y-168419737D01*
X62421153Y-168450499D01*
X62421156Y-168450500D01*
X62421158Y-168450500D01*
X62578844Y-168450500D01*
X62578845Y-168450499D01*
X62733497Y-168419737D01*
X62879179Y-168359394D01*
X63010289Y-168271789D01*
X63121789Y-168160289D01*
X63209394Y-168029179D01*
X63269737Y-167883497D01*
X63300500Y-167728842D01*
X63300500Y-167571158D01*
X63300500Y-167571155D01*
X63300499Y-167571153D01*
X64699500Y-167571153D01*
X64699500Y-167728846D01*
X64730261Y-167883489D01*
X64730264Y-167883501D01*
X64790602Y-168029172D01*
X64790609Y-168029185D01*
X64878210Y-168160288D01*
X64878213Y-168160292D01*
X64989707Y-168271786D01*
X64989711Y-168271789D01*
X65120814Y-168359390D01*
X65120827Y-168359397D01*
X65266498Y-168419735D01*
X65266503Y-168419737D01*
X65421153Y-168450499D01*
X65421156Y-168450500D01*
X65421158Y-168450500D01*
X65578844Y-168450500D01*
X65578845Y-168450499D01*
X65733497Y-168419737D01*
X65879179Y-168359394D01*
X66010289Y-168271789D01*
X66121789Y-168160289D01*
X66209394Y-168029179D01*
X66269737Y-167883497D01*
X66300500Y-167728842D01*
X66300500Y-167571158D01*
X66300500Y-167571155D01*
X66300499Y-167571153D01*
X93049500Y-167571153D01*
X93049500Y-167728846D01*
X93080261Y-167883489D01*
X93080264Y-167883501D01*
X93140602Y-168029172D01*
X93140609Y-168029185D01*
X93228210Y-168160288D01*
X93228213Y-168160292D01*
X93339707Y-168271786D01*
X93339711Y-168271789D01*
X93470814Y-168359390D01*
X93470827Y-168359397D01*
X93616498Y-168419735D01*
X93616503Y-168419737D01*
X93771153Y-168450499D01*
X93771156Y-168450500D01*
X93771158Y-168450500D01*
X93928844Y-168450500D01*
X93928845Y-168450499D01*
X94083497Y-168419737D01*
X94229179Y-168359394D01*
X94360289Y-168271789D01*
X94460925Y-168171153D01*
X94949500Y-168171153D01*
X94949500Y-168328846D01*
X94980261Y-168483489D01*
X94980264Y-168483501D01*
X95040602Y-168629172D01*
X95040609Y-168629185D01*
X95128210Y-168760288D01*
X95128213Y-168760292D01*
X95239707Y-168871786D01*
X95239711Y-168871789D01*
X95370814Y-168959390D01*
X95370827Y-168959397D01*
X95516498Y-169019735D01*
X95516503Y-169019737D01*
X95671153Y-169050499D01*
X95671156Y-169050500D01*
X95671158Y-169050500D01*
X95828844Y-169050500D01*
X95828845Y-169050499D01*
X95983497Y-169019737D01*
X96129179Y-168959394D01*
X96260289Y-168871789D01*
X96371789Y-168760289D01*
X96459394Y-168629179D01*
X96519737Y-168483497D01*
X96550500Y-168328842D01*
X96550500Y-168171158D01*
X96550500Y-168171155D01*
X96550499Y-168171153D01*
X96535585Y-168096175D01*
X96519737Y-168016503D01*
X96506062Y-167983489D01*
X96459397Y-167870827D01*
X96459390Y-167870814D01*
X96371790Y-167739712D01*
X96371784Y-167739705D01*
X96303232Y-167671153D01*
X125449500Y-167671153D01*
X125449500Y-167828846D01*
X125480261Y-167983489D01*
X125480264Y-167983501D01*
X125540602Y-168129172D01*
X125540609Y-168129185D01*
X125628210Y-168260288D01*
X125628213Y-168260292D01*
X125739707Y-168371786D01*
X125739711Y-168371789D01*
X125870814Y-168459390D01*
X125870827Y-168459397D01*
X126016498Y-168519735D01*
X126016503Y-168519737D01*
X126171153Y-168550499D01*
X126171156Y-168550500D01*
X126171158Y-168550500D01*
X126328844Y-168550500D01*
X126328845Y-168550499D01*
X126483497Y-168519737D01*
X126629179Y-168459394D01*
X126760289Y-168371789D01*
X126871789Y-168260289D01*
X126959394Y-168129179D01*
X127019737Y-167983497D01*
X127050500Y-167828842D01*
X127050500Y-167671158D01*
X127050500Y-167671155D01*
X127050499Y-167671153D01*
X129699500Y-167671153D01*
X129699500Y-167828846D01*
X129730261Y-167983489D01*
X129730264Y-167983501D01*
X129790602Y-168129172D01*
X129790609Y-168129185D01*
X129878210Y-168260288D01*
X129878213Y-168260292D01*
X129989707Y-168371786D01*
X129989711Y-168371789D01*
X130120814Y-168459390D01*
X130120827Y-168459397D01*
X130266498Y-168519735D01*
X130266503Y-168519737D01*
X130421153Y-168550499D01*
X130421156Y-168550500D01*
X130421158Y-168550500D01*
X130578844Y-168550500D01*
X130578845Y-168550499D01*
X130733497Y-168519737D01*
X130879179Y-168459394D01*
X131010289Y-168371789D01*
X131121789Y-168260289D01*
X131209394Y-168129179D01*
X131269737Y-167983497D01*
X131300500Y-167828842D01*
X131300500Y-167671158D01*
X131300500Y-167671155D01*
X131300499Y-167671153D01*
X131291957Y-167628210D01*
X131269737Y-167516503D01*
X131269735Y-167516498D01*
X131209397Y-167370827D01*
X131209390Y-167370814D01*
X131121789Y-167239711D01*
X131121786Y-167239707D01*
X131010292Y-167128213D01*
X131010288Y-167128210D01*
X130879185Y-167040609D01*
X130879172Y-167040602D01*
X130733501Y-166980264D01*
X130733489Y-166980261D01*
X130578845Y-166949500D01*
X130578842Y-166949500D01*
X130421158Y-166949500D01*
X130421155Y-166949500D01*
X130266510Y-166980261D01*
X130266498Y-166980264D01*
X130120827Y-167040602D01*
X130120814Y-167040609D01*
X129989711Y-167128210D01*
X129989707Y-167128213D01*
X129878213Y-167239707D01*
X129878210Y-167239711D01*
X129790609Y-167370814D01*
X129790602Y-167370827D01*
X129730264Y-167516498D01*
X129730261Y-167516510D01*
X129699500Y-167671153D01*
X127050499Y-167671153D01*
X127041957Y-167628210D01*
X127019737Y-167516503D01*
X127019735Y-167516498D01*
X126959397Y-167370827D01*
X126959390Y-167370814D01*
X126871789Y-167239711D01*
X126871786Y-167239707D01*
X126760292Y-167128213D01*
X126760288Y-167128210D01*
X126629185Y-167040609D01*
X126629172Y-167040602D01*
X126483501Y-166980264D01*
X126483489Y-166980261D01*
X126328845Y-166949500D01*
X126328842Y-166949500D01*
X126171158Y-166949500D01*
X126171155Y-166949500D01*
X126016510Y-166980261D01*
X126016498Y-166980264D01*
X125870827Y-167040602D01*
X125870814Y-167040609D01*
X125739711Y-167128210D01*
X125739707Y-167128213D01*
X125628213Y-167239707D01*
X125628210Y-167239711D01*
X125540609Y-167370814D01*
X125540602Y-167370827D01*
X125480264Y-167516498D01*
X125480261Y-167516510D01*
X125449500Y-167671153D01*
X96303232Y-167671153D01*
X96260292Y-167628213D01*
X96260288Y-167628210D01*
X96129185Y-167540609D01*
X96129172Y-167540602D01*
X95983501Y-167480264D01*
X95983489Y-167480261D01*
X95828845Y-167449500D01*
X95828842Y-167449500D01*
X95671158Y-167449500D01*
X95671155Y-167449500D01*
X95516510Y-167480261D01*
X95516498Y-167480264D01*
X95370827Y-167540602D01*
X95370814Y-167540609D01*
X95239711Y-167628210D01*
X95239707Y-167628213D01*
X95128213Y-167739707D01*
X95128210Y-167739711D01*
X95040609Y-167870814D01*
X95040602Y-167870827D01*
X94980264Y-168016498D01*
X94980261Y-168016510D01*
X94949500Y-168171153D01*
X94460925Y-168171153D01*
X94471789Y-168160289D01*
X94559394Y-168029179D01*
X94619737Y-167883497D01*
X94650500Y-167728842D01*
X94650500Y-167571158D01*
X94650500Y-167571155D01*
X94650499Y-167571153D01*
X94632419Y-167480261D01*
X94619737Y-167416503D01*
X94600812Y-167370814D01*
X94559397Y-167270827D01*
X94559390Y-167270814D01*
X94471789Y-167139711D01*
X94471786Y-167139707D01*
X94360292Y-167028213D01*
X94360288Y-167028210D01*
X94229185Y-166940609D01*
X94229172Y-166940602D01*
X94083501Y-166880264D01*
X94083489Y-166880261D01*
X93928845Y-166849500D01*
X93928842Y-166849500D01*
X93771158Y-166849500D01*
X93771155Y-166849500D01*
X93616510Y-166880261D01*
X93616498Y-166880264D01*
X93470827Y-166940602D01*
X93470814Y-166940609D01*
X93339711Y-167028210D01*
X93339707Y-167028213D01*
X93228213Y-167139707D01*
X93228210Y-167139711D01*
X93140609Y-167270814D01*
X93140602Y-167270827D01*
X93080264Y-167416498D01*
X93080261Y-167416510D01*
X93049500Y-167571153D01*
X66300499Y-167571153D01*
X66282419Y-167480261D01*
X66269737Y-167416503D01*
X66250812Y-167370814D01*
X66209397Y-167270827D01*
X66209390Y-167270814D01*
X66121789Y-167139711D01*
X66121786Y-167139707D01*
X66010292Y-167028213D01*
X66010288Y-167028210D01*
X65879185Y-166940609D01*
X65879172Y-166940602D01*
X65733501Y-166880264D01*
X65733489Y-166880261D01*
X65578845Y-166849500D01*
X65578842Y-166849500D01*
X65421158Y-166849500D01*
X65421155Y-166849500D01*
X65266510Y-166880261D01*
X65266498Y-166880264D01*
X65120827Y-166940602D01*
X65120814Y-166940609D01*
X64989711Y-167028210D01*
X64989707Y-167028213D01*
X64878213Y-167139707D01*
X64878210Y-167139711D01*
X64790609Y-167270814D01*
X64790602Y-167270827D01*
X64730264Y-167416498D01*
X64730261Y-167416510D01*
X64699500Y-167571153D01*
X63300499Y-167571153D01*
X63282419Y-167480261D01*
X63269737Y-167416503D01*
X63250812Y-167370814D01*
X63209397Y-167270827D01*
X63209390Y-167270814D01*
X63121789Y-167139711D01*
X63121786Y-167139707D01*
X63010292Y-167028213D01*
X63010288Y-167028210D01*
X62879185Y-166940609D01*
X62879172Y-166940602D01*
X62733501Y-166880264D01*
X62733489Y-166880261D01*
X62578845Y-166849500D01*
X62578842Y-166849500D01*
X62421158Y-166849500D01*
X62421155Y-166849500D01*
X62266510Y-166880261D01*
X62266498Y-166880264D01*
X62120827Y-166940602D01*
X62120814Y-166940609D01*
X61989711Y-167028210D01*
X61989707Y-167028213D01*
X61878213Y-167139707D01*
X61878210Y-167139711D01*
X61790609Y-167270814D01*
X61790602Y-167270827D01*
X61730264Y-167416498D01*
X61730261Y-167416510D01*
X61699500Y-167571153D01*
X38495500Y-167571153D01*
X38495500Y-144921153D01*
X83699500Y-144921153D01*
X83699500Y-145078846D01*
X83730261Y-145233489D01*
X83730264Y-145233501D01*
X83790602Y-145379172D01*
X83790609Y-145379185D01*
X83878210Y-145510288D01*
X83878213Y-145510292D01*
X83989707Y-145621786D01*
X83989711Y-145621789D01*
X84120814Y-145709390D01*
X84120827Y-145709397D01*
X84266498Y-145769735D01*
X84266503Y-145769737D01*
X84421153Y-145800499D01*
X84421156Y-145800500D01*
X84421158Y-145800500D01*
X84578844Y-145800500D01*
X84578845Y-145800499D01*
X84733497Y-145769737D01*
X84879179Y-145709394D01*
X85010289Y-145621789D01*
X85121789Y-145510289D01*
X85209394Y-145379179D01*
X85269737Y-145233497D01*
X85300500Y-145078842D01*
X85300500Y-144924500D01*
X85320185Y-144857461D01*
X85372989Y-144811706D01*
X85424500Y-144800500D01*
X85541598Y-144800500D01*
X85541599Y-144800499D01*
X85696251Y-144769737D01*
X85841933Y-144709394D01*
X85973043Y-144621789D01*
X86084543Y-144510289D01*
X86172148Y-144379179D01*
X86232491Y-144233497D01*
X86263254Y-144078842D01*
X86263254Y-143921158D01*
X86263254Y-143921155D01*
X86263253Y-143921153D01*
X86232492Y-143766510D01*
X86232491Y-143766503D01*
X86232489Y-143766498D01*
X86172151Y-143620827D01*
X86172144Y-143620814D01*
X86084543Y-143489711D01*
X86084540Y-143489707D01*
X85973046Y-143378213D01*
X85973042Y-143378210D01*
X85841939Y-143290609D01*
X85841926Y-143290602D01*
X85696255Y-143230264D01*
X85696243Y-143230261D01*
X85541599Y-143199500D01*
X85541596Y-143199500D01*
X85383912Y-143199500D01*
X85383909Y-143199500D01*
X85229264Y-143230261D01*
X85229252Y-143230264D01*
X85083581Y-143290602D01*
X85083568Y-143290609D01*
X84952465Y-143378210D01*
X84952461Y-143378213D01*
X84840967Y-143489707D01*
X84840964Y-143489711D01*
X84753363Y-143620814D01*
X84753356Y-143620827D01*
X84693018Y-143766498D01*
X84693015Y-143766510D01*
X84662254Y-143921153D01*
X84662254Y-144075500D01*
X84642569Y-144142539D01*
X84589765Y-144188294D01*
X84538254Y-144199500D01*
X84421155Y-144199500D01*
X84266510Y-144230261D01*
X84266498Y-144230264D01*
X84120827Y-144290602D01*
X84120814Y-144290609D01*
X83989711Y-144378210D01*
X83989707Y-144378213D01*
X83878213Y-144489707D01*
X83878210Y-144489711D01*
X83790609Y-144620814D01*
X83790602Y-144620827D01*
X83730264Y-144766498D01*
X83730261Y-144766510D01*
X83699500Y-144921153D01*
X38495500Y-144921153D01*
X38495500Y-142125565D01*
X96745088Y-142125565D01*
X96745088Y-142283258D01*
X96775849Y-142437901D01*
X96775852Y-142437913D01*
X96836190Y-142583584D01*
X96836197Y-142583597D01*
X96923798Y-142714700D01*
X96923801Y-142714704D01*
X97035295Y-142826198D01*
X97035299Y-142826201D01*
X97166402Y-142913802D01*
X97166415Y-142913809D01*
X97312086Y-142974147D01*
X97312091Y-142974149D01*
X97466741Y-143004911D01*
X97466744Y-143004912D01*
X97466746Y-143004912D01*
X97624432Y-143004912D01*
X97624433Y-143004911D01*
X97779085Y-142974149D01*
X97924767Y-142913806D01*
X98055877Y-142826201D01*
X98167377Y-142714701D01*
X98254982Y-142583591D01*
X98315325Y-142437909D01*
X98346088Y-142283254D01*
X98346088Y-142125570D01*
X98346088Y-142125567D01*
X98346087Y-142125565D01*
X98315325Y-141970915D01*
X98256477Y-141828842D01*
X98254985Y-141825239D01*
X98254978Y-141825226D01*
X98193994Y-141733957D01*
X98167377Y-141694123D01*
X98167374Y-141694119D01*
X98144408Y-141671153D01*
X103699500Y-141671153D01*
X103699500Y-141828846D01*
X103730261Y-141983489D01*
X103730264Y-141983501D01*
X103790602Y-142129172D01*
X103790609Y-142129185D01*
X103878210Y-142260288D01*
X103878213Y-142260292D01*
X103989707Y-142371786D01*
X103989711Y-142371789D01*
X104120814Y-142459390D01*
X104120827Y-142459397D01*
X104266498Y-142519735D01*
X104266503Y-142519737D01*
X104421153Y-142550499D01*
X104421156Y-142550500D01*
X104421158Y-142550500D01*
X104578844Y-142550500D01*
X104578845Y-142550499D01*
X104733497Y-142519737D01*
X104879179Y-142459394D01*
X105010289Y-142371789D01*
X105121789Y-142260289D01*
X105209394Y-142129179D01*
X105269737Y-141983497D01*
X105300500Y-141828842D01*
X105300500Y-141671158D01*
X105300500Y-141671155D01*
X105300499Y-141671153D01*
X105269737Y-141516503D01*
X105260836Y-141495014D01*
X105209397Y-141370827D01*
X105209390Y-141370814D01*
X105121789Y-141239711D01*
X105121786Y-141239707D01*
X105010292Y-141128213D01*
X105010288Y-141128210D01*
X104879185Y-141040609D01*
X104879172Y-141040602D01*
X104733501Y-140980264D01*
X104733489Y-140980261D01*
X104578845Y-140949500D01*
X104578842Y-140949500D01*
X104421158Y-140949500D01*
X104421155Y-140949500D01*
X104266510Y-140980261D01*
X104266498Y-140980264D01*
X104120827Y-141040602D01*
X104120814Y-141040609D01*
X103989711Y-141128210D01*
X103989707Y-141128213D01*
X103878213Y-141239707D01*
X103878210Y-141239711D01*
X103790609Y-141370814D01*
X103790602Y-141370827D01*
X103730264Y-141516498D01*
X103730261Y-141516510D01*
X103699500Y-141671153D01*
X98144408Y-141671153D01*
X98055880Y-141582625D01*
X98055876Y-141582622D01*
X97924773Y-141495021D01*
X97924760Y-141495014D01*
X97779089Y-141434676D01*
X97779077Y-141434673D01*
X97624433Y-141403912D01*
X97624430Y-141403912D01*
X97466746Y-141403912D01*
X97466743Y-141403912D01*
X97312098Y-141434673D01*
X97312086Y-141434676D01*
X97166415Y-141495014D01*
X97166402Y-141495021D01*
X97035299Y-141582622D01*
X97035295Y-141582625D01*
X96923801Y-141694119D01*
X96923798Y-141694123D01*
X96836197Y-141825226D01*
X96836190Y-141825239D01*
X96775852Y-141970910D01*
X96775849Y-141970922D01*
X96745088Y-142125565D01*
X38495500Y-142125565D01*
X38495500Y-140136943D01*
X94012001Y-140136943D01*
X94012001Y-140294636D01*
X94042762Y-140449279D01*
X94042765Y-140449291D01*
X94103103Y-140594962D01*
X94103110Y-140594975D01*
X94190711Y-140726078D01*
X94190714Y-140726082D01*
X94302208Y-140837576D01*
X94302212Y-140837579D01*
X94433315Y-140925180D01*
X94433328Y-140925187D01*
X94566295Y-140980263D01*
X94579004Y-140985527D01*
X94733654Y-141016289D01*
X94733657Y-141016290D01*
X94733659Y-141016290D01*
X94891345Y-141016290D01*
X94891346Y-141016289D01*
X95045998Y-140985527D01*
X95191680Y-140925184D01*
X95322790Y-140837579D01*
X95434290Y-140726079D01*
X95521895Y-140594969D01*
X95582238Y-140449287D01*
X95613001Y-140294632D01*
X95613001Y-140136948D01*
X95613001Y-140136945D01*
X95613000Y-140136943D01*
X95582239Y-139982300D01*
X95582238Y-139982293D01*
X95582236Y-139982288D01*
X95521898Y-139836617D01*
X95521891Y-139836604D01*
X95434290Y-139705501D01*
X95434287Y-139705497D01*
X95322793Y-139594003D01*
X95322789Y-139594000D01*
X95191686Y-139506399D01*
X95191673Y-139506392D01*
X95046002Y-139446054D01*
X95045990Y-139446051D01*
X94891346Y-139415290D01*
X94891343Y-139415290D01*
X94733659Y-139415290D01*
X94733656Y-139415290D01*
X94579011Y-139446051D01*
X94578999Y-139446054D01*
X94433328Y-139506392D01*
X94433315Y-139506399D01*
X94302212Y-139594000D01*
X94302208Y-139594003D01*
X94190714Y-139705497D01*
X94190711Y-139705501D01*
X94103110Y-139836604D01*
X94103103Y-139836617D01*
X94042765Y-139982288D01*
X94042762Y-139982300D01*
X94012001Y-140136943D01*
X38495500Y-140136943D01*
X38495500Y-137671153D01*
X90199500Y-137671153D01*
X90199500Y-137828846D01*
X90230261Y-137983489D01*
X90230264Y-137983501D01*
X90290602Y-138129172D01*
X90290609Y-138129185D01*
X90378210Y-138260288D01*
X90378213Y-138260292D01*
X90489707Y-138371786D01*
X90489711Y-138371789D01*
X90620814Y-138459390D01*
X90620827Y-138459397D01*
X90766498Y-138519735D01*
X90766503Y-138519737D01*
X90921153Y-138550499D01*
X90921156Y-138550500D01*
X90921158Y-138550500D01*
X91078844Y-138550500D01*
X91078845Y-138550499D01*
X91233497Y-138519737D01*
X91379179Y-138459394D01*
X91510289Y-138371789D01*
X91621789Y-138260289D01*
X91709394Y-138129179D01*
X91769737Y-137983497D01*
X91800500Y-137828842D01*
X91800500Y-137671158D01*
X91800500Y-137671155D01*
X91800499Y-137671153D01*
X91769738Y-137516510D01*
X91769737Y-137516503D01*
X91769735Y-137516498D01*
X91709397Y-137370827D01*
X91709390Y-137370814D01*
X91621789Y-137239711D01*
X91621786Y-137239707D01*
X91510292Y-137128213D01*
X91510288Y-137128210D01*
X91379185Y-137040609D01*
X91379172Y-137040602D01*
X91233501Y-136980264D01*
X91233489Y-136980261D01*
X91078845Y-136949500D01*
X91078842Y-136949500D01*
X90921158Y-136949500D01*
X90921155Y-136949500D01*
X90766510Y-136980261D01*
X90766498Y-136980264D01*
X90620827Y-137040602D01*
X90620814Y-137040609D01*
X90489711Y-137128210D01*
X90489707Y-137128213D01*
X90378213Y-137239707D01*
X90378210Y-137239711D01*
X90290609Y-137370814D01*
X90290602Y-137370827D01*
X90230264Y-137516498D01*
X90230261Y-137516510D01*
X90199500Y-137671153D01*
X38495500Y-137671153D01*
X38495500Y-135171153D01*
X90199500Y-135171153D01*
X90199500Y-135328846D01*
X90230261Y-135483489D01*
X90230264Y-135483501D01*
X90290602Y-135629172D01*
X90290609Y-135629185D01*
X90378210Y-135760288D01*
X90378213Y-135760292D01*
X90489707Y-135871786D01*
X90489711Y-135871789D01*
X90620814Y-135959390D01*
X90620827Y-135959397D01*
X90766498Y-136019735D01*
X90766503Y-136019737D01*
X90921153Y-136050499D01*
X90921156Y-136050500D01*
X90921158Y-136050500D01*
X91078844Y-136050500D01*
X91078845Y-136050499D01*
X91233497Y-136019737D01*
X91379179Y-135959394D01*
X91510289Y-135871789D01*
X91621789Y-135760289D01*
X91709394Y-135629179D01*
X91769737Y-135483497D01*
X91800500Y-135328842D01*
X91800500Y-135171158D01*
X91800500Y-135171155D01*
X91800499Y-135171153D01*
X91769738Y-135016510D01*
X91769737Y-135016503D01*
X91709794Y-134871786D01*
X91709397Y-134870827D01*
X91709390Y-134870814D01*
X91621789Y-134739711D01*
X91621786Y-134739707D01*
X91510292Y-134628213D01*
X91510288Y-134628210D01*
X91379185Y-134540609D01*
X91379172Y-134540602D01*
X91233501Y-134480264D01*
X91233489Y-134480261D01*
X91078845Y-134449500D01*
X91078842Y-134449500D01*
X90921158Y-134449500D01*
X90921155Y-134449500D01*
X90766510Y-134480261D01*
X90766498Y-134480264D01*
X90620827Y-134540602D01*
X90620814Y-134540609D01*
X90489711Y-134628210D01*
X90489707Y-134628213D01*
X90378213Y-134739707D01*
X90378210Y-134739711D01*
X90290609Y-134870814D01*
X90290602Y-134870827D01*
X90230264Y-135016498D01*
X90230261Y-135016510D01*
X90199500Y-135171153D01*
X38495500Y-135171153D01*
X38495500Y-134171153D01*
X96199500Y-134171153D01*
X96199500Y-134328846D01*
X96230261Y-134483489D01*
X96230264Y-134483501D01*
X96290602Y-134629172D01*
X96290609Y-134629185D01*
X96378210Y-134760288D01*
X96378213Y-134760292D01*
X96489707Y-134871786D01*
X96489711Y-134871789D01*
X96620814Y-134959390D01*
X96620827Y-134959397D01*
X96758683Y-135016498D01*
X96766503Y-135019737D01*
X96921153Y-135050499D01*
X96921156Y-135050500D01*
X96921158Y-135050500D01*
X97078844Y-135050500D01*
X97078845Y-135050499D01*
X97233497Y-135019737D01*
X97379179Y-134959394D01*
X97510289Y-134871789D01*
X97621789Y-134760289D01*
X97709394Y-134629179D01*
X97769737Y-134483497D01*
X97800500Y-134328842D01*
X97800500Y-134171158D01*
X97800500Y-134171155D01*
X97800499Y-134171153D01*
X97769738Y-134016510D01*
X97769737Y-134016503D01*
X97769735Y-134016498D01*
X97709397Y-133870827D01*
X97709390Y-133870814D01*
X97621789Y-133739711D01*
X97621786Y-133739707D01*
X97510292Y-133628213D01*
X97510288Y-133628210D01*
X97379185Y-133540609D01*
X97379172Y-133540602D01*
X97233501Y-133480264D01*
X97233489Y-133480261D01*
X97078845Y-133449500D01*
X97078842Y-133449500D01*
X96921158Y-133449500D01*
X96921155Y-133449500D01*
X96766510Y-133480261D01*
X96766498Y-133480264D01*
X96620827Y-133540602D01*
X96620814Y-133540609D01*
X96489711Y-133628210D01*
X96489707Y-133628213D01*
X96378213Y-133739707D01*
X96378210Y-133739711D01*
X96290609Y-133870814D01*
X96290602Y-133870827D01*
X96230264Y-134016498D01*
X96230261Y-134016510D01*
X96199500Y-134171153D01*
X38495500Y-134171153D01*
X38495500Y-128370632D01*
X94148979Y-128370632D01*
X94148979Y-128528325D01*
X94179740Y-128682968D01*
X94179743Y-128682980D01*
X94240081Y-128828651D01*
X94240088Y-128828664D01*
X94327689Y-128959767D01*
X94327692Y-128959771D01*
X94439186Y-129071265D01*
X94439190Y-129071268D01*
X94570293Y-129158869D01*
X94570306Y-129158876D01*
X94714350Y-129218540D01*
X94768754Y-129262380D01*
X94781459Y-129285649D01*
X94841123Y-129429693D01*
X94841130Y-129429706D01*
X94928731Y-129560809D01*
X94928734Y-129560813D01*
X95040228Y-129672307D01*
X95040232Y-129672310D01*
X95171335Y-129759911D01*
X95171348Y-129759918D01*
X95317019Y-129820256D01*
X95317024Y-129820258D01*
X95471674Y-129851020D01*
X95471677Y-129851021D01*
X95471679Y-129851021D01*
X95629365Y-129851021D01*
X95629366Y-129851020D01*
X95784018Y-129820258D01*
X95929700Y-129759915D01*
X96060810Y-129672310D01*
X96172310Y-129560810D01*
X96259915Y-129429700D01*
X96320258Y-129284018D01*
X96351021Y-129129363D01*
X96351021Y-128971679D01*
X96351021Y-128971676D01*
X96351020Y-128971674D01*
X96322572Y-128828658D01*
X96320258Y-128817024D01*
X96264731Y-128682968D01*
X96259918Y-128671348D01*
X96259911Y-128671335D01*
X96172310Y-128540232D01*
X96172307Y-128540228D01*
X96060813Y-128428734D01*
X96060809Y-128428731D01*
X95929706Y-128341130D01*
X95929693Y-128341123D01*
X95785649Y-128281459D01*
X95731245Y-128237618D01*
X95718540Y-128214350D01*
X95658876Y-128070306D01*
X95658869Y-128070293D01*
X95571268Y-127939190D01*
X95571265Y-127939186D01*
X95459771Y-127827692D01*
X95459767Y-127827689D01*
X95328664Y-127740088D01*
X95328651Y-127740081D01*
X95182980Y-127679743D01*
X95182968Y-127679740D01*
X95028324Y-127648979D01*
X95028321Y-127648979D01*
X94870637Y-127648979D01*
X94870634Y-127648979D01*
X94715989Y-127679740D01*
X94715977Y-127679743D01*
X94570306Y-127740081D01*
X94570293Y-127740088D01*
X94439190Y-127827689D01*
X94439186Y-127827692D01*
X94327692Y-127939186D01*
X94327689Y-127939190D01*
X94240088Y-128070293D01*
X94240081Y-128070306D01*
X94179743Y-128215977D01*
X94179740Y-128215989D01*
X94148979Y-128370632D01*
X38495500Y-128370632D01*
X38495500Y-124921153D01*
X52148663Y-124921153D01*
X52148663Y-125078846D01*
X52179424Y-125233489D01*
X52179427Y-125233501D01*
X52239765Y-125379172D01*
X52239772Y-125379185D01*
X52327373Y-125510288D01*
X52327376Y-125510292D01*
X52438870Y-125621786D01*
X52438874Y-125621789D01*
X52569977Y-125709390D01*
X52569990Y-125709397D01*
X52700577Y-125763487D01*
X52715666Y-125769737D01*
X52870316Y-125800499D01*
X52870319Y-125800500D01*
X52870321Y-125800500D01*
X53028007Y-125800500D01*
X53028008Y-125800499D01*
X53182660Y-125769737D01*
X53301713Y-125720423D01*
X53371180Y-125712955D01*
X53396613Y-125720422D01*
X53515669Y-125769737D01*
X53670319Y-125800499D01*
X53670322Y-125800500D01*
X53670324Y-125800500D01*
X53828010Y-125800500D01*
X53828011Y-125800499D01*
X53982663Y-125769737D01*
X54124951Y-125710800D01*
X54194420Y-125703331D01*
X54219855Y-125710800D01*
X54347054Y-125763487D01*
X54362143Y-125769737D01*
X54516793Y-125800499D01*
X54516796Y-125800500D01*
X54516798Y-125800500D01*
X54674484Y-125800500D01*
X54674485Y-125800499D01*
X54829137Y-125769737D01*
X54971425Y-125710800D01*
X55040894Y-125703331D01*
X55066329Y-125710800D01*
X55193528Y-125763487D01*
X55208617Y-125769737D01*
X55363267Y-125800499D01*
X55363270Y-125800500D01*
X55363272Y-125800500D01*
X55520958Y-125800500D01*
X55520959Y-125800499D01*
X55675611Y-125769737D01*
X55817899Y-125710799D01*
X55887367Y-125703331D01*
X55912802Y-125710800D01*
X56040001Y-125763487D01*
X56055090Y-125769737D01*
X56209740Y-125800499D01*
X56209743Y-125800500D01*
X56209745Y-125800500D01*
X56367431Y-125800500D01*
X56367432Y-125800499D01*
X56522084Y-125769737D01*
X56664372Y-125710800D01*
X56733841Y-125703331D01*
X56759276Y-125710800D01*
X56886475Y-125763487D01*
X56901564Y-125769737D01*
X57056214Y-125800499D01*
X57056217Y-125800500D01*
X57056219Y-125800500D01*
X57213905Y-125800500D01*
X57213906Y-125800499D01*
X57368558Y-125769737D01*
X57514240Y-125709394D01*
X57645350Y-125621789D01*
X57756850Y-125510289D01*
X57844455Y-125379179D01*
X57904798Y-125233497D01*
X57935561Y-125078842D01*
X57935561Y-124921158D01*
X57935561Y-124921155D01*
X57935560Y-124921153D01*
X67060330Y-124921153D01*
X67060330Y-125078846D01*
X67091091Y-125233489D01*
X67091094Y-125233501D01*
X67151432Y-125379172D01*
X67151439Y-125379185D01*
X67239040Y-125510288D01*
X67239043Y-125510292D01*
X67350537Y-125621786D01*
X67350541Y-125621789D01*
X67481644Y-125709390D01*
X67481657Y-125709397D01*
X67612244Y-125763487D01*
X67627333Y-125769737D01*
X67781983Y-125800499D01*
X67781986Y-125800500D01*
X67781988Y-125800500D01*
X67939674Y-125800500D01*
X67939675Y-125800499D01*
X68094327Y-125769737D01*
X68213380Y-125720423D01*
X68282847Y-125712955D01*
X68308280Y-125720422D01*
X68427336Y-125769737D01*
X68581986Y-125800499D01*
X68581989Y-125800500D01*
X68581991Y-125800500D01*
X68739677Y-125800500D01*
X68739678Y-125800499D01*
X68894330Y-125769737D01*
X69036618Y-125710800D01*
X69106087Y-125703331D01*
X69131522Y-125710800D01*
X69258721Y-125763487D01*
X69273810Y-125769737D01*
X69428460Y-125800499D01*
X69428463Y-125800500D01*
X69428465Y-125800500D01*
X69586151Y-125800500D01*
X69586152Y-125800499D01*
X69740804Y-125769737D01*
X69883092Y-125710800D01*
X69952561Y-125703331D01*
X69977996Y-125710800D01*
X70105195Y-125763487D01*
X70120284Y-125769737D01*
X70274934Y-125800499D01*
X70274937Y-125800500D01*
X70274939Y-125800500D01*
X70432625Y-125800500D01*
X70432626Y-125800499D01*
X70587278Y-125769737D01*
X70729566Y-125710799D01*
X70799034Y-125703331D01*
X70824469Y-125710800D01*
X70951668Y-125763487D01*
X70966757Y-125769737D01*
X71121407Y-125800499D01*
X71121410Y-125800500D01*
X71121412Y-125800500D01*
X71279098Y-125800500D01*
X71279099Y-125800499D01*
X71433751Y-125769737D01*
X71576039Y-125710800D01*
X71645508Y-125703331D01*
X71670943Y-125710800D01*
X71798142Y-125763487D01*
X71813231Y-125769737D01*
X71967881Y-125800499D01*
X71967884Y-125800500D01*
X71967886Y-125800500D01*
X72125572Y-125800500D01*
X72125573Y-125800499D01*
X72280225Y-125769737D01*
X72425907Y-125709394D01*
X72557017Y-125621789D01*
X72668517Y-125510289D01*
X72756122Y-125379179D01*
X72816465Y-125233497D01*
X72847228Y-125078842D01*
X72847228Y-124921158D01*
X72847228Y-124921154D01*
X72845985Y-124914903D01*
X81922830Y-124914903D01*
X81922830Y-125072596D01*
X81953591Y-125227239D01*
X81953594Y-125227251D01*
X82013932Y-125372922D01*
X82013939Y-125372935D01*
X82101540Y-125504038D01*
X82101543Y-125504042D01*
X82213037Y-125615536D01*
X82213041Y-125615539D01*
X82344144Y-125703140D01*
X82344157Y-125703147D01*
X82489828Y-125763485D01*
X82489833Y-125763487D01*
X82644483Y-125794249D01*
X82644486Y-125794250D01*
X82644488Y-125794250D01*
X82802174Y-125794250D01*
X82802175Y-125794249D01*
X82956827Y-125763487D01*
X83075880Y-125714173D01*
X83145347Y-125706705D01*
X83170780Y-125714172D01*
X83289836Y-125763487D01*
X83444486Y-125794249D01*
X83444489Y-125794250D01*
X83444491Y-125794250D01*
X83602177Y-125794250D01*
X83602178Y-125794249D01*
X83756830Y-125763487D01*
X83899118Y-125704550D01*
X83968587Y-125697081D01*
X83994023Y-125704550D01*
X84136310Y-125763487D01*
X84290960Y-125794249D01*
X84290963Y-125794250D01*
X84290965Y-125794250D01*
X84448651Y-125794250D01*
X84448652Y-125794249D01*
X84603304Y-125763487D01*
X84745592Y-125704550D01*
X84815061Y-125697081D01*
X84840497Y-125704550D01*
X84982784Y-125763487D01*
X85137434Y-125794249D01*
X85137437Y-125794250D01*
X85137439Y-125794250D01*
X85295125Y-125794250D01*
X85295126Y-125794249D01*
X85449778Y-125763487D01*
X85592066Y-125704549D01*
X85661534Y-125697081D01*
X85686970Y-125704550D01*
X85829257Y-125763487D01*
X85983907Y-125794249D01*
X85983910Y-125794250D01*
X85983912Y-125794250D01*
X86141598Y-125794250D01*
X86141599Y-125794249D01*
X86296251Y-125763487D01*
X86438539Y-125704550D01*
X86508008Y-125697081D01*
X86533444Y-125704550D01*
X86675731Y-125763487D01*
X86830381Y-125794249D01*
X86830384Y-125794250D01*
X86830386Y-125794250D01*
X86988072Y-125794250D01*
X86988073Y-125794249D01*
X87142725Y-125763487D01*
X87288407Y-125703144D01*
X87419517Y-125615539D01*
X87531017Y-125504039D01*
X87618622Y-125372929D01*
X87678965Y-125227247D01*
X87709728Y-125072592D01*
X87709728Y-124921153D01*
X96785330Y-124921153D01*
X96785330Y-125078846D01*
X96816091Y-125233489D01*
X96816094Y-125233501D01*
X96876432Y-125379172D01*
X96876439Y-125379185D01*
X96964040Y-125510288D01*
X96964043Y-125510292D01*
X97075537Y-125621786D01*
X97075541Y-125621789D01*
X97206644Y-125709390D01*
X97206657Y-125709397D01*
X97337244Y-125763487D01*
X97352333Y-125769737D01*
X97506983Y-125800499D01*
X97506986Y-125800500D01*
X97506988Y-125800500D01*
X97664674Y-125800500D01*
X97664675Y-125800499D01*
X97819327Y-125769737D01*
X97938380Y-125720423D01*
X98007847Y-125712955D01*
X98033280Y-125720422D01*
X98152336Y-125769737D01*
X98306986Y-125800499D01*
X98306989Y-125800500D01*
X98306991Y-125800500D01*
X98464677Y-125800500D01*
X98464678Y-125800499D01*
X98619330Y-125769737D01*
X98761618Y-125710800D01*
X98831087Y-125703331D01*
X98856522Y-125710800D01*
X98983721Y-125763487D01*
X98998810Y-125769737D01*
X99153460Y-125800499D01*
X99153463Y-125800500D01*
X99153465Y-125800500D01*
X99311151Y-125800500D01*
X99311152Y-125800499D01*
X99465804Y-125769737D01*
X99608092Y-125710800D01*
X99677561Y-125703331D01*
X99702996Y-125710800D01*
X99830195Y-125763487D01*
X99845284Y-125769737D01*
X99999934Y-125800499D01*
X99999937Y-125800500D01*
X99999939Y-125800500D01*
X100157625Y-125800500D01*
X100157626Y-125800499D01*
X100312278Y-125769737D01*
X100454566Y-125710799D01*
X100524034Y-125703331D01*
X100549469Y-125710800D01*
X100676668Y-125763487D01*
X100691757Y-125769737D01*
X100846407Y-125800499D01*
X100846410Y-125800500D01*
X100846412Y-125800500D01*
X101004098Y-125800500D01*
X101004099Y-125800499D01*
X101158751Y-125769737D01*
X101301039Y-125710800D01*
X101370508Y-125703331D01*
X101395943Y-125710800D01*
X101523142Y-125763487D01*
X101538231Y-125769737D01*
X101692881Y-125800499D01*
X101692884Y-125800500D01*
X101692886Y-125800500D01*
X101850572Y-125800500D01*
X101850573Y-125800499D01*
X102005225Y-125769737D01*
X102150907Y-125709394D01*
X102282017Y-125621789D01*
X102393517Y-125510289D01*
X102481122Y-125379179D01*
X102541465Y-125233497D01*
X102572228Y-125078842D01*
X102572228Y-124921158D01*
X102572228Y-124921155D01*
X102572227Y-124921153D01*
X111649497Y-124921153D01*
X111649497Y-125078846D01*
X111680258Y-125233489D01*
X111680261Y-125233501D01*
X111740599Y-125379172D01*
X111740606Y-125379185D01*
X111828207Y-125510288D01*
X111828210Y-125510292D01*
X111939704Y-125621786D01*
X111939708Y-125621789D01*
X112070811Y-125709390D01*
X112070824Y-125709397D01*
X112201411Y-125763487D01*
X112216500Y-125769737D01*
X112371150Y-125800499D01*
X112371153Y-125800500D01*
X112371155Y-125800500D01*
X112528841Y-125800500D01*
X112528842Y-125800499D01*
X112683494Y-125769737D01*
X112802547Y-125720423D01*
X112872014Y-125712955D01*
X112897447Y-125720422D01*
X113016503Y-125769737D01*
X113171153Y-125800499D01*
X113171156Y-125800500D01*
X113171158Y-125800500D01*
X113328844Y-125800500D01*
X113328845Y-125800499D01*
X113483497Y-125769737D01*
X113625785Y-125710800D01*
X113695254Y-125703331D01*
X113720689Y-125710800D01*
X113847888Y-125763487D01*
X113862977Y-125769737D01*
X114017627Y-125800499D01*
X114017630Y-125800500D01*
X114017632Y-125800500D01*
X114175318Y-125800500D01*
X114175319Y-125800499D01*
X114329971Y-125769737D01*
X114472259Y-125710800D01*
X114541728Y-125703331D01*
X114567163Y-125710800D01*
X114694362Y-125763487D01*
X114709451Y-125769737D01*
X114864101Y-125800499D01*
X114864104Y-125800500D01*
X114864106Y-125800500D01*
X115021792Y-125800500D01*
X115021793Y-125800499D01*
X115176445Y-125769737D01*
X115318733Y-125710799D01*
X115388201Y-125703331D01*
X115413636Y-125710800D01*
X115540835Y-125763487D01*
X115555924Y-125769737D01*
X115710574Y-125800499D01*
X115710577Y-125800500D01*
X115710579Y-125800500D01*
X115868265Y-125800500D01*
X115868266Y-125800499D01*
X116022918Y-125769737D01*
X116165206Y-125710800D01*
X116234675Y-125703331D01*
X116260110Y-125710800D01*
X116387309Y-125763487D01*
X116402398Y-125769737D01*
X116557048Y-125800499D01*
X116557051Y-125800500D01*
X116557053Y-125800500D01*
X116714739Y-125800500D01*
X116714740Y-125800499D01*
X116869392Y-125769737D01*
X117015074Y-125709394D01*
X117146184Y-125621789D01*
X117257684Y-125510289D01*
X117345289Y-125379179D01*
X117405632Y-125233497D01*
X117436395Y-125078842D01*
X117436395Y-124927403D01*
X126511163Y-124927403D01*
X126511163Y-125085096D01*
X126541924Y-125239739D01*
X126541927Y-125239751D01*
X126602265Y-125385422D01*
X126602272Y-125385435D01*
X126689873Y-125516538D01*
X126689876Y-125516542D01*
X126801370Y-125628036D01*
X126801374Y-125628039D01*
X126932477Y-125715640D01*
X126932490Y-125715647D01*
X127063077Y-125769737D01*
X127078166Y-125775987D01*
X127232816Y-125806749D01*
X127232819Y-125806750D01*
X127232821Y-125806750D01*
X127390507Y-125806750D01*
X127390508Y-125806749D01*
X127545160Y-125775987D01*
X127664213Y-125726673D01*
X127733680Y-125719205D01*
X127759113Y-125726672D01*
X127878169Y-125775987D01*
X128032819Y-125806749D01*
X128032822Y-125806750D01*
X128032824Y-125806750D01*
X128190510Y-125806750D01*
X128190511Y-125806749D01*
X128345163Y-125775987D01*
X128487451Y-125717050D01*
X128556920Y-125709581D01*
X128582355Y-125717050D01*
X128709554Y-125769737D01*
X128724643Y-125775987D01*
X128879293Y-125806749D01*
X128879296Y-125806750D01*
X128879298Y-125806750D01*
X129036984Y-125806750D01*
X129036985Y-125806749D01*
X129191637Y-125775987D01*
X129333925Y-125717050D01*
X129403394Y-125709581D01*
X129428829Y-125717050D01*
X129556028Y-125769737D01*
X129571117Y-125775987D01*
X129725767Y-125806749D01*
X129725770Y-125806750D01*
X129725772Y-125806750D01*
X129883458Y-125806750D01*
X129883459Y-125806749D01*
X130038111Y-125775987D01*
X130180399Y-125717049D01*
X130249867Y-125709581D01*
X130275302Y-125717050D01*
X130402501Y-125769737D01*
X130417590Y-125775987D01*
X130572240Y-125806749D01*
X130572243Y-125806750D01*
X130572245Y-125806750D01*
X130729931Y-125806750D01*
X130729932Y-125806749D01*
X130884584Y-125775987D01*
X131026872Y-125717050D01*
X131096341Y-125709581D01*
X131121776Y-125717050D01*
X131248975Y-125769737D01*
X131264064Y-125775987D01*
X131418714Y-125806749D01*
X131418717Y-125806750D01*
X131418719Y-125806750D01*
X131576405Y-125806750D01*
X131576406Y-125806749D01*
X131731058Y-125775987D01*
X131876740Y-125715644D01*
X132007850Y-125628039D01*
X132119350Y-125516539D01*
X132206955Y-125385429D01*
X132267298Y-125239747D01*
X132298061Y-125085092D01*
X132298061Y-124927408D01*
X132298061Y-124927404D01*
X132296818Y-124921153D01*
X141375747Y-124921153D01*
X141375747Y-125078846D01*
X141406508Y-125233489D01*
X141406511Y-125233501D01*
X141466849Y-125379172D01*
X141466856Y-125379185D01*
X141554457Y-125510288D01*
X141554460Y-125510292D01*
X141665954Y-125621786D01*
X141665958Y-125621789D01*
X141797061Y-125709390D01*
X141797074Y-125709397D01*
X141927661Y-125763487D01*
X141942750Y-125769737D01*
X142097400Y-125800499D01*
X142097403Y-125800500D01*
X142097405Y-125800500D01*
X142255091Y-125800500D01*
X142255092Y-125800499D01*
X142409744Y-125769737D01*
X142528797Y-125720423D01*
X142598264Y-125712955D01*
X142623697Y-125720422D01*
X142742753Y-125769737D01*
X142897403Y-125800499D01*
X142897406Y-125800500D01*
X142897408Y-125800500D01*
X143055094Y-125800500D01*
X143055095Y-125800499D01*
X143209747Y-125769737D01*
X143352035Y-125710800D01*
X143421504Y-125703331D01*
X143446939Y-125710800D01*
X143574138Y-125763487D01*
X143589227Y-125769737D01*
X143743877Y-125800499D01*
X143743880Y-125800500D01*
X143743882Y-125800500D01*
X143901568Y-125800500D01*
X143901569Y-125800499D01*
X144056221Y-125769737D01*
X144198509Y-125710800D01*
X144267978Y-125703331D01*
X144293413Y-125710800D01*
X144420612Y-125763487D01*
X144435701Y-125769737D01*
X144590351Y-125800499D01*
X144590354Y-125800500D01*
X144590356Y-125800500D01*
X144748042Y-125800500D01*
X144748043Y-125800499D01*
X144902695Y-125769737D01*
X145044983Y-125710799D01*
X145114451Y-125703331D01*
X145139886Y-125710800D01*
X145267085Y-125763487D01*
X145282174Y-125769737D01*
X145436824Y-125800499D01*
X145436827Y-125800500D01*
X145436829Y-125800500D01*
X145594515Y-125800500D01*
X145594516Y-125800499D01*
X145749168Y-125769737D01*
X145891456Y-125710800D01*
X145960925Y-125703331D01*
X145986360Y-125710800D01*
X146113559Y-125763487D01*
X146128648Y-125769737D01*
X146283298Y-125800499D01*
X146283301Y-125800500D01*
X146283303Y-125800500D01*
X146440989Y-125800500D01*
X146440990Y-125800499D01*
X146595642Y-125769737D01*
X146741324Y-125709394D01*
X146872434Y-125621789D01*
X146983934Y-125510289D01*
X147071539Y-125379179D01*
X147131882Y-125233497D01*
X147162645Y-125078842D01*
X147162645Y-124921158D01*
X147162645Y-124921155D01*
X147162644Y-124921153D01*
X147161401Y-124914903D01*
X147131882Y-124766503D01*
X147129291Y-124760248D01*
X147071542Y-124620827D01*
X147071535Y-124620814D01*
X146983934Y-124489711D01*
X146983931Y-124489707D01*
X146872437Y-124378213D01*
X146872433Y-124378210D01*
X146741330Y-124290609D01*
X146741317Y-124290602D01*
X146595646Y-124230264D01*
X146595634Y-124230261D01*
X146440990Y-124199500D01*
X146440987Y-124199500D01*
X146283303Y-124199500D01*
X146283300Y-124199500D01*
X146128655Y-124230261D01*
X146128643Y-124230264D01*
X145986360Y-124289199D01*
X145916890Y-124296668D01*
X145891456Y-124289199D01*
X145749172Y-124230264D01*
X145749160Y-124230261D01*
X145594516Y-124199500D01*
X145594513Y-124199500D01*
X145436829Y-124199500D01*
X145436826Y-124199500D01*
X145282181Y-124230261D01*
X145282169Y-124230264D01*
X145139886Y-124289199D01*
X145070416Y-124296668D01*
X145044982Y-124289199D01*
X144902699Y-124230264D01*
X144902687Y-124230261D01*
X144748043Y-124199500D01*
X144748040Y-124199500D01*
X144590356Y-124199500D01*
X144590353Y-124199500D01*
X144435708Y-124230261D01*
X144435696Y-124230264D01*
X144293413Y-124289199D01*
X144223943Y-124296668D01*
X144198509Y-124289199D01*
X144056225Y-124230264D01*
X144056213Y-124230261D01*
X143901569Y-124199500D01*
X143901566Y-124199500D01*
X143743882Y-124199500D01*
X143743879Y-124199500D01*
X143589234Y-124230261D01*
X143589222Y-124230264D01*
X143446939Y-124289199D01*
X143377469Y-124296668D01*
X143352035Y-124289199D01*
X143209751Y-124230264D01*
X143209739Y-124230261D01*
X143055095Y-124199500D01*
X143055092Y-124199500D01*
X142897408Y-124199500D01*
X142897405Y-124199500D01*
X142742760Y-124230261D01*
X142742748Y-124230264D01*
X142623700Y-124279575D01*
X142554230Y-124287044D01*
X142528796Y-124279575D01*
X142409748Y-124230264D01*
X142409736Y-124230261D01*
X142255092Y-124199500D01*
X142255089Y-124199500D01*
X142097405Y-124199500D01*
X142097402Y-124199500D01*
X141942757Y-124230261D01*
X141942745Y-124230264D01*
X141797074Y-124290602D01*
X141797061Y-124290609D01*
X141665958Y-124378210D01*
X141665954Y-124378213D01*
X141554460Y-124489707D01*
X141554457Y-124489711D01*
X141466856Y-124620814D01*
X141466849Y-124620827D01*
X141406511Y-124766498D01*
X141406508Y-124766510D01*
X141375747Y-124921153D01*
X132296818Y-124921153D01*
X132267299Y-124772760D01*
X132267298Y-124772753D01*
X132262118Y-124760248D01*
X132206958Y-124627077D01*
X132206951Y-124627064D01*
X132119350Y-124495961D01*
X132119347Y-124495957D01*
X132007853Y-124384463D01*
X132007849Y-124384460D01*
X131876746Y-124296859D01*
X131876733Y-124296852D01*
X131731062Y-124236514D01*
X131731050Y-124236511D01*
X131576406Y-124205750D01*
X131576403Y-124205750D01*
X131418719Y-124205750D01*
X131418716Y-124205750D01*
X131264071Y-124236511D01*
X131264059Y-124236514D01*
X131121776Y-124295449D01*
X131052306Y-124302918D01*
X131026872Y-124295449D01*
X130884588Y-124236514D01*
X130884576Y-124236511D01*
X130729932Y-124205750D01*
X130729929Y-124205750D01*
X130572245Y-124205750D01*
X130572242Y-124205750D01*
X130417597Y-124236511D01*
X130417585Y-124236514D01*
X130275302Y-124295449D01*
X130205832Y-124302918D01*
X130180398Y-124295449D01*
X130038115Y-124236514D01*
X130038103Y-124236511D01*
X129883459Y-124205750D01*
X129883456Y-124205750D01*
X129725772Y-124205750D01*
X129725769Y-124205750D01*
X129571124Y-124236511D01*
X129571112Y-124236514D01*
X129428829Y-124295449D01*
X129359359Y-124302918D01*
X129333925Y-124295449D01*
X129191641Y-124236514D01*
X129191629Y-124236511D01*
X129036985Y-124205750D01*
X129036982Y-124205750D01*
X128879298Y-124205750D01*
X128879295Y-124205750D01*
X128724650Y-124236511D01*
X128724638Y-124236514D01*
X128582355Y-124295449D01*
X128512885Y-124302918D01*
X128487451Y-124295449D01*
X128345167Y-124236514D01*
X128345155Y-124236511D01*
X128190511Y-124205750D01*
X128190508Y-124205750D01*
X128032824Y-124205750D01*
X128032821Y-124205750D01*
X127878176Y-124236511D01*
X127878164Y-124236514D01*
X127759116Y-124285825D01*
X127689646Y-124293294D01*
X127664212Y-124285825D01*
X127545164Y-124236514D01*
X127545152Y-124236511D01*
X127390508Y-124205750D01*
X127390505Y-124205750D01*
X127232821Y-124205750D01*
X127232818Y-124205750D01*
X127078173Y-124236511D01*
X127078161Y-124236514D01*
X126932490Y-124296852D01*
X126932477Y-124296859D01*
X126801374Y-124384460D01*
X126801370Y-124384463D01*
X126689876Y-124495957D01*
X126689873Y-124495961D01*
X126602272Y-124627064D01*
X126602265Y-124627077D01*
X126541927Y-124772748D01*
X126541924Y-124772760D01*
X126511163Y-124927403D01*
X117436395Y-124927403D01*
X117436395Y-124921158D01*
X117436395Y-124921155D01*
X117436394Y-124921153D01*
X117435151Y-124914903D01*
X117405632Y-124766503D01*
X117403041Y-124760248D01*
X117345292Y-124620827D01*
X117345285Y-124620814D01*
X117257684Y-124489711D01*
X117257681Y-124489707D01*
X117146187Y-124378213D01*
X117146183Y-124378210D01*
X117015080Y-124290609D01*
X117015067Y-124290602D01*
X116869396Y-124230264D01*
X116869384Y-124230261D01*
X116714740Y-124199500D01*
X116714737Y-124199500D01*
X116557053Y-124199500D01*
X116557050Y-124199500D01*
X116402405Y-124230261D01*
X116402393Y-124230264D01*
X116260110Y-124289199D01*
X116190640Y-124296668D01*
X116165206Y-124289199D01*
X116022922Y-124230264D01*
X116022910Y-124230261D01*
X115868266Y-124199500D01*
X115868263Y-124199500D01*
X115710579Y-124199500D01*
X115710576Y-124199500D01*
X115555931Y-124230261D01*
X115555919Y-124230264D01*
X115413636Y-124289199D01*
X115344166Y-124296668D01*
X115318732Y-124289199D01*
X115176449Y-124230264D01*
X115176437Y-124230261D01*
X115021793Y-124199500D01*
X115021790Y-124199500D01*
X114864106Y-124199500D01*
X114864103Y-124199500D01*
X114709458Y-124230261D01*
X114709446Y-124230264D01*
X114567163Y-124289199D01*
X114497693Y-124296668D01*
X114472259Y-124289199D01*
X114329975Y-124230264D01*
X114329963Y-124230261D01*
X114175319Y-124199500D01*
X114175316Y-124199500D01*
X114017632Y-124199500D01*
X114017629Y-124199500D01*
X113862984Y-124230261D01*
X113862972Y-124230264D01*
X113720689Y-124289199D01*
X113651219Y-124296668D01*
X113625785Y-124289199D01*
X113483501Y-124230264D01*
X113483489Y-124230261D01*
X113328845Y-124199500D01*
X113328842Y-124199500D01*
X113171158Y-124199500D01*
X113171155Y-124199500D01*
X113016510Y-124230261D01*
X113016498Y-124230264D01*
X112897450Y-124279575D01*
X112827980Y-124287044D01*
X112802546Y-124279575D01*
X112683498Y-124230264D01*
X112683486Y-124230261D01*
X112528842Y-124199500D01*
X112528839Y-124199500D01*
X112371155Y-124199500D01*
X112371152Y-124199500D01*
X112216507Y-124230261D01*
X112216495Y-124230264D01*
X112070824Y-124290602D01*
X112070811Y-124290609D01*
X111939708Y-124378210D01*
X111939704Y-124378213D01*
X111828210Y-124489707D01*
X111828207Y-124489711D01*
X111740606Y-124620814D01*
X111740599Y-124620827D01*
X111680261Y-124766498D01*
X111680258Y-124766510D01*
X111649497Y-124921153D01*
X102572227Y-124921153D01*
X102570984Y-124914903D01*
X102541465Y-124766503D01*
X102538874Y-124760248D01*
X102481125Y-124620827D01*
X102481118Y-124620814D01*
X102393517Y-124489711D01*
X102393514Y-124489707D01*
X102282020Y-124378213D01*
X102282016Y-124378210D01*
X102150913Y-124290609D01*
X102150900Y-124290602D01*
X102005229Y-124230264D01*
X102005217Y-124230261D01*
X101850573Y-124199500D01*
X101850570Y-124199500D01*
X101692886Y-124199500D01*
X101692883Y-124199500D01*
X101538238Y-124230261D01*
X101538226Y-124230264D01*
X101395943Y-124289199D01*
X101326473Y-124296668D01*
X101301039Y-124289199D01*
X101158755Y-124230264D01*
X101158743Y-124230261D01*
X101004099Y-124199500D01*
X101004096Y-124199500D01*
X100846412Y-124199500D01*
X100846409Y-124199500D01*
X100691764Y-124230261D01*
X100691752Y-124230264D01*
X100549469Y-124289199D01*
X100479999Y-124296668D01*
X100454565Y-124289199D01*
X100312282Y-124230264D01*
X100312270Y-124230261D01*
X100157626Y-124199500D01*
X100157623Y-124199500D01*
X99999939Y-124199500D01*
X99999936Y-124199500D01*
X99845291Y-124230261D01*
X99845279Y-124230264D01*
X99702996Y-124289199D01*
X99633526Y-124296668D01*
X99608092Y-124289199D01*
X99465808Y-124230264D01*
X99465796Y-124230261D01*
X99311152Y-124199500D01*
X99311149Y-124199500D01*
X99153465Y-124199500D01*
X99153462Y-124199500D01*
X98998817Y-124230261D01*
X98998805Y-124230264D01*
X98856522Y-124289199D01*
X98787052Y-124296668D01*
X98761618Y-124289199D01*
X98619334Y-124230264D01*
X98619322Y-124230261D01*
X98464678Y-124199500D01*
X98464675Y-124199500D01*
X98306991Y-124199500D01*
X98306988Y-124199500D01*
X98152343Y-124230261D01*
X98152331Y-124230264D01*
X98033283Y-124279575D01*
X97963813Y-124287044D01*
X97938379Y-124279575D01*
X97819331Y-124230264D01*
X97819319Y-124230261D01*
X97664675Y-124199500D01*
X97664672Y-124199500D01*
X97506988Y-124199500D01*
X97506985Y-124199500D01*
X97352340Y-124230261D01*
X97352328Y-124230264D01*
X97206657Y-124290602D01*
X97206644Y-124290609D01*
X97075541Y-124378210D01*
X97075537Y-124378213D01*
X96964043Y-124489707D01*
X96964040Y-124489711D01*
X96876439Y-124620814D01*
X96876432Y-124620827D01*
X96816094Y-124766498D01*
X96816091Y-124766510D01*
X96785330Y-124921153D01*
X87709728Y-124921153D01*
X87709728Y-124914908D01*
X87709728Y-124914905D01*
X87709727Y-124914903D01*
X87678965Y-124760253D01*
X87678963Y-124760248D01*
X87618625Y-124614577D01*
X87618618Y-124614564D01*
X87531017Y-124483461D01*
X87531014Y-124483457D01*
X87419520Y-124371963D01*
X87419516Y-124371960D01*
X87288413Y-124284359D01*
X87288400Y-124284352D01*
X87142729Y-124224014D01*
X87142717Y-124224011D01*
X86988073Y-124193250D01*
X86988070Y-124193250D01*
X86830386Y-124193250D01*
X86830383Y-124193250D01*
X86675738Y-124224011D01*
X86675726Y-124224014D01*
X86533443Y-124282949D01*
X86463973Y-124290418D01*
X86438539Y-124282949D01*
X86296255Y-124224014D01*
X86296243Y-124224011D01*
X86141599Y-124193250D01*
X86141596Y-124193250D01*
X85983912Y-124193250D01*
X85983909Y-124193250D01*
X85829264Y-124224011D01*
X85829252Y-124224014D01*
X85686969Y-124282949D01*
X85617499Y-124290418D01*
X85592065Y-124282949D01*
X85449782Y-124224014D01*
X85449770Y-124224011D01*
X85295126Y-124193250D01*
X85295123Y-124193250D01*
X85137439Y-124193250D01*
X85137436Y-124193250D01*
X84982791Y-124224011D01*
X84982779Y-124224014D01*
X84840496Y-124282949D01*
X84771026Y-124290418D01*
X84745592Y-124282949D01*
X84603308Y-124224014D01*
X84603296Y-124224011D01*
X84448652Y-124193250D01*
X84448649Y-124193250D01*
X84290965Y-124193250D01*
X84290962Y-124193250D01*
X84136317Y-124224011D01*
X84136305Y-124224014D01*
X83994022Y-124282949D01*
X83924552Y-124290418D01*
X83899118Y-124282949D01*
X83756834Y-124224014D01*
X83756822Y-124224011D01*
X83602178Y-124193250D01*
X83602175Y-124193250D01*
X83444491Y-124193250D01*
X83444488Y-124193250D01*
X83289843Y-124224011D01*
X83289831Y-124224014D01*
X83170783Y-124273325D01*
X83101313Y-124280794D01*
X83075879Y-124273325D01*
X82956831Y-124224014D01*
X82956819Y-124224011D01*
X82802175Y-124193250D01*
X82802172Y-124193250D01*
X82644488Y-124193250D01*
X82644485Y-124193250D01*
X82489840Y-124224011D01*
X82489828Y-124224014D01*
X82344157Y-124284352D01*
X82344144Y-124284359D01*
X82213041Y-124371960D01*
X82213037Y-124371963D01*
X82101543Y-124483457D01*
X82101540Y-124483461D01*
X82013939Y-124614564D01*
X82013932Y-124614577D01*
X81953594Y-124760248D01*
X81953591Y-124760260D01*
X81922830Y-124914903D01*
X72845985Y-124914903D01*
X72826626Y-124817586D01*
X72816465Y-124766503D01*
X72813874Y-124760248D01*
X72756125Y-124620827D01*
X72756118Y-124620814D01*
X72668517Y-124489711D01*
X72668514Y-124489707D01*
X72557020Y-124378213D01*
X72557016Y-124378210D01*
X72425913Y-124290609D01*
X72425900Y-124290602D01*
X72280229Y-124230264D01*
X72280217Y-124230261D01*
X72125573Y-124199500D01*
X72125570Y-124199500D01*
X71967886Y-124199500D01*
X71967883Y-124199500D01*
X71813238Y-124230261D01*
X71813226Y-124230264D01*
X71670943Y-124289199D01*
X71601473Y-124296668D01*
X71576039Y-124289199D01*
X71433755Y-124230264D01*
X71433743Y-124230261D01*
X71279099Y-124199500D01*
X71279096Y-124199500D01*
X71121412Y-124199500D01*
X71121409Y-124199500D01*
X70966764Y-124230261D01*
X70966752Y-124230264D01*
X70824469Y-124289199D01*
X70754999Y-124296668D01*
X70729565Y-124289199D01*
X70587282Y-124230264D01*
X70587270Y-124230261D01*
X70432626Y-124199500D01*
X70432623Y-124199500D01*
X70274939Y-124199500D01*
X70274936Y-124199500D01*
X70120291Y-124230261D01*
X70120279Y-124230264D01*
X69977996Y-124289199D01*
X69908526Y-124296668D01*
X69883092Y-124289199D01*
X69740808Y-124230264D01*
X69740796Y-124230261D01*
X69586152Y-124199500D01*
X69586149Y-124199500D01*
X69428465Y-124199500D01*
X69428462Y-124199500D01*
X69273817Y-124230261D01*
X69273805Y-124230264D01*
X69131522Y-124289199D01*
X69062052Y-124296668D01*
X69036618Y-124289199D01*
X68894334Y-124230264D01*
X68894322Y-124230261D01*
X68739678Y-124199500D01*
X68739675Y-124199500D01*
X68581991Y-124199500D01*
X68581988Y-124199500D01*
X68427343Y-124230261D01*
X68427331Y-124230264D01*
X68308283Y-124279575D01*
X68238813Y-124287044D01*
X68213379Y-124279575D01*
X68094331Y-124230264D01*
X68094319Y-124230261D01*
X67939675Y-124199500D01*
X67939672Y-124199500D01*
X67781988Y-124199500D01*
X67781985Y-124199500D01*
X67627340Y-124230261D01*
X67627328Y-124230264D01*
X67481657Y-124290602D01*
X67481644Y-124290609D01*
X67350541Y-124378210D01*
X67350537Y-124378213D01*
X67239043Y-124489707D01*
X67239040Y-124489711D01*
X67151439Y-124620814D01*
X67151432Y-124620827D01*
X67091094Y-124766498D01*
X67091091Y-124766510D01*
X67060330Y-124921153D01*
X57935560Y-124921153D01*
X57934317Y-124914903D01*
X57904798Y-124766503D01*
X57902207Y-124760248D01*
X57844458Y-124620827D01*
X57844451Y-124620814D01*
X57756850Y-124489711D01*
X57756847Y-124489707D01*
X57645353Y-124378213D01*
X57645349Y-124378210D01*
X57514246Y-124290609D01*
X57514233Y-124290602D01*
X57368562Y-124230264D01*
X57368550Y-124230261D01*
X57213906Y-124199500D01*
X57213903Y-124199500D01*
X57056219Y-124199500D01*
X57056216Y-124199500D01*
X56901571Y-124230261D01*
X56901559Y-124230264D01*
X56759276Y-124289199D01*
X56689806Y-124296668D01*
X56664372Y-124289199D01*
X56522088Y-124230264D01*
X56522076Y-124230261D01*
X56367432Y-124199500D01*
X56367429Y-124199500D01*
X56209745Y-124199500D01*
X56209742Y-124199500D01*
X56055097Y-124230261D01*
X56055085Y-124230264D01*
X55912802Y-124289199D01*
X55843332Y-124296668D01*
X55817898Y-124289199D01*
X55675615Y-124230264D01*
X55675603Y-124230261D01*
X55520959Y-124199500D01*
X55520956Y-124199500D01*
X55363272Y-124199500D01*
X55363269Y-124199500D01*
X55208624Y-124230261D01*
X55208612Y-124230264D01*
X55066329Y-124289199D01*
X54996859Y-124296668D01*
X54971425Y-124289199D01*
X54829141Y-124230264D01*
X54829129Y-124230261D01*
X54674485Y-124199500D01*
X54674482Y-124199500D01*
X54516798Y-124199500D01*
X54516795Y-124199500D01*
X54362150Y-124230261D01*
X54362138Y-124230264D01*
X54219855Y-124289199D01*
X54150385Y-124296668D01*
X54124951Y-124289199D01*
X53982667Y-124230264D01*
X53982655Y-124230261D01*
X53828011Y-124199500D01*
X53828008Y-124199500D01*
X53670324Y-124199500D01*
X53670321Y-124199500D01*
X53515676Y-124230261D01*
X53515664Y-124230264D01*
X53396616Y-124279575D01*
X53327146Y-124287044D01*
X53301712Y-124279575D01*
X53182664Y-124230264D01*
X53182652Y-124230261D01*
X53028008Y-124199500D01*
X53028005Y-124199500D01*
X52870321Y-124199500D01*
X52870318Y-124199500D01*
X52715673Y-124230261D01*
X52715661Y-124230264D01*
X52569990Y-124290602D01*
X52569977Y-124290609D01*
X52438874Y-124378210D01*
X52438870Y-124378213D01*
X52327376Y-124489707D01*
X52327373Y-124489711D01*
X52239772Y-124620814D01*
X52239765Y-124620827D01*
X52179427Y-124766498D01*
X52179424Y-124766510D01*
X52148663Y-124921153D01*
X38495500Y-124921153D01*
X38495500Y-119921153D01*
X49072416Y-119921153D01*
X49072416Y-120078846D01*
X49103177Y-120233489D01*
X49103180Y-120233501D01*
X49163518Y-120379172D01*
X49163525Y-120379185D01*
X49251126Y-120510288D01*
X49251129Y-120510292D01*
X49362623Y-120621786D01*
X49362627Y-120621789D01*
X49493730Y-120709390D01*
X49493743Y-120709397D01*
X49639414Y-120769735D01*
X49639419Y-120769737D01*
X49794069Y-120800499D01*
X49794072Y-120800500D01*
X49794074Y-120800500D01*
X49951760Y-120800500D01*
X49951761Y-120800499D01*
X50106413Y-120769737D01*
X50252095Y-120709394D01*
X50383205Y-120621789D01*
X50494705Y-120510289D01*
X50582310Y-120379179D01*
X50642653Y-120233497D01*
X50673416Y-120078842D01*
X50673416Y-119921158D01*
X50673416Y-119921155D01*
X50673415Y-119921153D01*
X64047667Y-119921153D01*
X64047667Y-120078846D01*
X64078428Y-120233489D01*
X64078431Y-120233501D01*
X64138769Y-120379172D01*
X64138776Y-120379185D01*
X64226377Y-120510288D01*
X64226380Y-120510292D01*
X64337874Y-120621786D01*
X64337878Y-120621789D01*
X64468981Y-120709390D01*
X64468994Y-120709397D01*
X64614665Y-120769735D01*
X64614670Y-120769737D01*
X64769320Y-120800499D01*
X64769323Y-120800500D01*
X64769325Y-120800500D01*
X64927011Y-120800500D01*
X64927012Y-120800499D01*
X65081664Y-120769737D01*
X65227346Y-120709394D01*
X65358456Y-120621789D01*
X65469956Y-120510289D01*
X65557561Y-120379179D01*
X65617904Y-120233497D01*
X65648667Y-120078842D01*
X65648667Y-119921158D01*
X65648667Y-119921155D01*
X65648666Y-119921153D01*
X78846583Y-119921153D01*
X78846583Y-120078846D01*
X78877344Y-120233489D01*
X78877347Y-120233501D01*
X78937685Y-120379172D01*
X78937692Y-120379185D01*
X79025293Y-120510288D01*
X79025296Y-120510292D01*
X79136790Y-120621786D01*
X79136794Y-120621789D01*
X79267897Y-120709390D01*
X79267910Y-120709397D01*
X79413581Y-120769735D01*
X79413586Y-120769737D01*
X79568236Y-120800499D01*
X79568239Y-120800500D01*
X79568241Y-120800500D01*
X79725927Y-120800500D01*
X79725928Y-120800499D01*
X79880580Y-120769737D01*
X80026262Y-120709394D01*
X80157372Y-120621789D01*
X80268872Y-120510289D01*
X80356477Y-120379179D01*
X80416820Y-120233497D01*
X80447583Y-120078842D01*
X80447583Y-120021153D01*
X93709083Y-120021153D01*
X93709083Y-120178846D01*
X93739844Y-120333489D01*
X93739847Y-120333501D01*
X93800185Y-120479172D01*
X93800192Y-120479185D01*
X93887793Y-120610288D01*
X93887796Y-120610292D01*
X93999290Y-120721786D01*
X93999294Y-120721789D01*
X94130397Y-120809390D01*
X94130410Y-120809397D01*
X94276081Y-120869735D01*
X94276086Y-120869737D01*
X94430736Y-120900499D01*
X94430739Y-120900500D01*
X94430741Y-120900500D01*
X94588427Y-120900500D01*
X94588428Y-120900499D01*
X94743080Y-120869737D01*
X94888762Y-120809394D01*
X95019872Y-120721789D01*
X95131372Y-120610289D01*
X95218977Y-120479179D01*
X95279320Y-120333497D01*
X95310083Y-120178842D01*
X95310083Y-120021158D01*
X95310083Y-120021155D01*
X95293792Y-119939258D01*
X95293792Y-119939257D01*
X95290191Y-119921153D01*
X108574250Y-119921153D01*
X108574250Y-120078846D01*
X108605011Y-120233489D01*
X108605014Y-120233501D01*
X108665352Y-120379172D01*
X108665359Y-120379185D01*
X108752960Y-120510288D01*
X108752963Y-120510292D01*
X108864457Y-120621786D01*
X108864461Y-120621789D01*
X108995564Y-120709390D01*
X108995577Y-120709397D01*
X109141248Y-120769735D01*
X109141253Y-120769737D01*
X109295903Y-120800499D01*
X109295906Y-120800500D01*
X109295908Y-120800500D01*
X109453594Y-120800500D01*
X109453595Y-120800499D01*
X109608247Y-120769737D01*
X109753929Y-120709394D01*
X109885039Y-120621789D01*
X109996539Y-120510289D01*
X110084144Y-120379179D01*
X110144487Y-120233497D01*
X110175250Y-120078842D01*
X110175250Y-119921158D01*
X110175250Y-119921155D01*
X110175249Y-119921153D01*
X123434916Y-119921153D01*
X123434916Y-120078846D01*
X123465677Y-120233489D01*
X123465680Y-120233501D01*
X123526018Y-120379172D01*
X123526025Y-120379185D01*
X123613626Y-120510288D01*
X123613629Y-120510292D01*
X123725123Y-120621786D01*
X123725127Y-120621789D01*
X123856230Y-120709390D01*
X123856243Y-120709397D01*
X124001914Y-120769735D01*
X124001919Y-120769737D01*
X124156569Y-120800499D01*
X124156572Y-120800500D01*
X124156574Y-120800500D01*
X124314260Y-120800500D01*
X124314261Y-120800499D01*
X124468913Y-120769737D01*
X124614595Y-120709394D01*
X124745705Y-120621789D01*
X124857205Y-120510289D01*
X124944810Y-120379179D01*
X125005153Y-120233497D01*
X125035916Y-120078842D01*
X125035916Y-119921158D01*
X125035916Y-119921155D01*
X125035915Y-119921153D01*
X138249500Y-119921153D01*
X138249500Y-120078846D01*
X138280261Y-120233489D01*
X138280264Y-120233501D01*
X138340602Y-120379172D01*
X138340609Y-120379185D01*
X138428210Y-120510288D01*
X138428213Y-120510292D01*
X138539707Y-120621786D01*
X138539711Y-120621789D01*
X138670814Y-120709390D01*
X138670827Y-120709397D01*
X138816498Y-120769735D01*
X138816503Y-120769737D01*
X138971153Y-120800499D01*
X138971156Y-120800500D01*
X138971158Y-120800500D01*
X139128844Y-120800500D01*
X139128845Y-120800499D01*
X139283497Y-120769737D01*
X139429179Y-120709394D01*
X139560289Y-120621789D01*
X139671789Y-120510289D01*
X139759394Y-120379179D01*
X139819737Y-120233497D01*
X139850500Y-120078842D01*
X139850500Y-119921158D01*
X139850500Y-119921155D01*
X139850499Y-119921153D01*
X139819738Y-119766510D01*
X139819737Y-119766503D01*
X139800812Y-119720814D01*
X139759397Y-119620827D01*
X139759390Y-119620814D01*
X139671789Y-119489711D01*
X139671786Y-119489707D01*
X139560292Y-119378213D01*
X139560288Y-119378210D01*
X139429185Y-119290609D01*
X139429172Y-119290602D01*
X139283501Y-119230264D01*
X139283489Y-119230261D01*
X139128845Y-119199500D01*
X139128842Y-119199500D01*
X138971158Y-119199500D01*
X138971155Y-119199500D01*
X138816510Y-119230261D01*
X138816498Y-119230264D01*
X138670827Y-119290602D01*
X138670814Y-119290609D01*
X138539711Y-119378210D01*
X138539707Y-119378213D01*
X138428213Y-119489707D01*
X138428210Y-119489711D01*
X138340609Y-119620814D01*
X138340602Y-119620827D01*
X138280264Y-119766498D01*
X138280261Y-119766510D01*
X138249500Y-119921153D01*
X125035915Y-119921153D01*
X125005154Y-119766510D01*
X125005153Y-119766503D01*
X124986228Y-119720814D01*
X124944813Y-119620827D01*
X124944806Y-119620814D01*
X124857205Y-119489711D01*
X124857202Y-119489707D01*
X124745708Y-119378213D01*
X124745704Y-119378210D01*
X124614601Y-119290609D01*
X124614588Y-119290602D01*
X124468917Y-119230264D01*
X124468905Y-119230261D01*
X124314261Y-119199500D01*
X124314258Y-119199500D01*
X124156574Y-119199500D01*
X124156571Y-119199500D01*
X124001926Y-119230261D01*
X124001914Y-119230264D01*
X123856243Y-119290602D01*
X123856230Y-119290609D01*
X123725127Y-119378210D01*
X123725123Y-119378213D01*
X123613629Y-119489707D01*
X123613626Y-119489711D01*
X123526025Y-119620814D01*
X123526018Y-119620827D01*
X123465680Y-119766498D01*
X123465677Y-119766510D01*
X123434916Y-119921153D01*
X110175249Y-119921153D01*
X110144488Y-119766510D01*
X110144487Y-119766503D01*
X110125562Y-119720814D01*
X110084147Y-119620827D01*
X110084140Y-119620814D01*
X109996539Y-119489711D01*
X109996536Y-119489707D01*
X109885042Y-119378213D01*
X109885038Y-119378210D01*
X109753935Y-119290609D01*
X109753922Y-119290602D01*
X109608251Y-119230264D01*
X109608239Y-119230261D01*
X109453595Y-119199500D01*
X109453592Y-119199500D01*
X109295908Y-119199500D01*
X109295905Y-119199500D01*
X109141260Y-119230261D01*
X109141248Y-119230264D01*
X108995577Y-119290602D01*
X108995564Y-119290609D01*
X108864461Y-119378210D01*
X108864457Y-119378213D01*
X108752963Y-119489707D01*
X108752960Y-119489711D01*
X108665359Y-119620814D01*
X108665352Y-119620827D01*
X108605014Y-119766498D01*
X108605011Y-119766510D01*
X108574250Y-119921153D01*
X95290191Y-119921153D01*
X95279321Y-119866510D01*
X95279320Y-119866503D01*
X95237897Y-119766498D01*
X95218980Y-119720827D01*
X95218973Y-119720814D01*
X95131372Y-119589711D01*
X95131369Y-119589707D01*
X95019875Y-119478213D01*
X95019871Y-119478210D01*
X94888768Y-119390609D01*
X94888755Y-119390602D01*
X94743084Y-119330264D01*
X94743072Y-119330261D01*
X94588428Y-119299500D01*
X94588425Y-119299500D01*
X94430741Y-119299500D01*
X94430738Y-119299500D01*
X94276093Y-119330261D01*
X94276081Y-119330264D01*
X94130410Y-119390602D01*
X94130397Y-119390609D01*
X93999294Y-119478210D01*
X93999290Y-119478213D01*
X93887796Y-119589707D01*
X93887793Y-119589711D01*
X93800192Y-119720814D01*
X93800185Y-119720827D01*
X93739847Y-119866498D01*
X93739844Y-119866510D01*
X93709083Y-120021153D01*
X80447583Y-120021153D01*
X80447583Y-119921158D01*
X80447583Y-119921155D01*
X80447582Y-119921153D01*
X80416821Y-119766510D01*
X80416820Y-119766503D01*
X80397895Y-119720814D01*
X80356480Y-119620827D01*
X80356473Y-119620814D01*
X80268872Y-119489711D01*
X80268869Y-119489707D01*
X80157375Y-119378213D01*
X80157371Y-119378210D01*
X80026268Y-119290609D01*
X80026255Y-119290602D01*
X79880584Y-119230264D01*
X79880572Y-119230261D01*
X79725928Y-119199500D01*
X79725925Y-119199500D01*
X79568241Y-119199500D01*
X79568238Y-119199500D01*
X79413593Y-119230261D01*
X79413581Y-119230264D01*
X79267910Y-119290602D01*
X79267897Y-119290609D01*
X79136794Y-119378210D01*
X79136790Y-119378213D01*
X79025296Y-119489707D01*
X79025293Y-119489711D01*
X78937692Y-119620814D01*
X78937685Y-119620827D01*
X78877347Y-119766498D01*
X78877344Y-119766510D01*
X78846583Y-119921153D01*
X65648666Y-119921153D01*
X65617905Y-119766510D01*
X65617904Y-119766503D01*
X65598979Y-119720814D01*
X65557564Y-119620827D01*
X65557557Y-119620814D01*
X65469956Y-119489711D01*
X65469953Y-119489707D01*
X65358459Y-119378213D01*
X65358455Y-119378210D01*
X65227352Y-119290609D01*
X65227339Y-119290602D01*
X65081668Y-119230264D01*
X65081656Y-119230261D01*
X64927012Y-119199500D01*
X64927009Y-119199500D01*
X64769325Y-119199500D01*
X64769322Y-119199500D01*
X64614677Y-119230261D01*
X64614665Y-119230264D01*
X64468994Y-119290602D01*
X64468981Y-119290609D01*
X64337878Y-119378210D01*
X64337874Y-119378213D01*
X64226380Y-119489707D01*
X64226377Y-119489711D01*
X64138776Y-119620814D01*
X64138769Y-119620827D01*
X64078431Y-119766498D01*
X64078428Y-119766510D01*
X64047667Y-119921153D01*
X50673415Y-119921153D01*
X50642654Y-119766510D01*
X50642653Y-119766503D01*
X50623728Y-119720814D01*
X50582313Y-119620827D01*
X50582306Y-119620814D01*
X50494705Y-119489711D01*
X50494702Y-119489707D01*
X50383208Y-119378213D01*
X50383204Y-119378210D01*
X50252101Y-119290609D01*
X50252088Y-119290602D01*
X50106417Y-119230264D01*
X50106405Y-119230261D01*
X49951761Y-119199500D01*
X49951758Y-119199500D01*
X49794074Y-119199500D01*
X49794071Y-119199500D01*
X49639426Y-119230261D01*
X49639414Y-119230264D01*
X49493743Y-119290602D01*
X49493730Y-119290609D01*
X49362627Y-119378210D01*
X49362623Y-119378213D01*
X49251129Y-119489707D01*
X49251126Y-119489711D01*
X49163525Y-119620814D01*
X49163518Y-119620827D01*
X49103180Y-119766498D01*
X49103177Y-119766510D01*
X49072416Y-119921153D01*
X38495500Y-119921153D01*
X38495500Y-116671153D01*
X49199500Y-116671153D01*
X49199500Y-116828846D01*
X49230261Y-116983489D01*
X49230264Y-116983501D01*
X49290602Y-117129172D01*
X49290609Y-117129185D01*
X49378210Y-117260288D01*
X49378213Y-117260292D01*
X49489707Y-117371786D01*
X49489711Y-117371789D01*
X49620814Y-117459390D01*
X49620827Y-117459397D01*
X49766498Y-117519735D01*
X49766503Y-117519737D01*
X49921153Y-117550499D01*
X49921156Y-117550500D01*
X49921158Y-117550500D01*
X50078844Y-117550500D01*
X50078845Y-117550499D01*
X50233497Y-117519737D01*
X50379179Y-117459394D01*
X50510289Y-117371789D01*
X50621789Y-117260289D01*
X50709394Y-117129179D01*
X50769737Y-116983497D01*
X50800500Y-116828842D01*
X50800500Y-116671158D01*
X50800500Y-116671155D01*
X50800499Y-116671153D01*
X64199500Y-116671153D01*
X64199500Y-116828846D01*
X64230261Y-116983489D01*
X64230264Y-116983501D01*
X64290602Y-117129172D01*
X64290609Y-117129185D01*
X64378210Y-117260288D01*
X64378213Y-117260292D01*
X64489707Y-117371786D01*
X64489711Y-117371789D01*
X64620814Y-117459390D01*
X64620827Y-117459397D01*
X64766498Y-117519735D01*
X64766503Y-117519737D01*
X64921153Y-117550499D01*
X64921156Y-117550500D01*
X64921158Y-117550500D01*
X65078844Y-117550500D01*
X65078845Y-117550499D01*
X65233497Y-117519737D01*
X65379179Y-117459394D01*
X65510289Y-117371789D01*
X65621789Y-117260289D01*
X65709394Y-117129179D01*
X65769737Y-116983497D01*
X65800500Y-116828842D01*
X65800500Y-116721153D01*
X79199500Y-116721153D01*
X79199500Y-116878846D01*
X79230261Y-117033489D01*
X79230264Y-117033501D01*
X79290602Y-117179172D01*
X79290609Y-117179185D01*
X79378210Y-117310288D01*
X79378213Y-117310292D01*
X79489707Y-117421786D01*
X79489711Y-117421789D01*
X79620814Y-117509390D01*
X79620827Y-117509397D01*
X79720060Y-117550500D01*
X79766503Y-117569737D01*
X79921153Y-117600499D01*
X79921156Y-117600500D01*
X79921158Y-117600500D01*
X80078844Y-117600500D01*
X80078845Y-117600499D01*
X80233497Y-117569737D01*
X80379179Y-117509394D01*
X80510289Y-117421789D01*
X80621789Y-117310289D01*
X80709394Y-117179179D01*
X80769737Y-117033497D01*
X80800500Y-116878842D01*
X80800500Y-116721158D01*
X80800500Y-116721155D01*
X80800499Y-116721153D01*
X93799500Y-116721153D01*
X93799500Y-116878846D01*
X93830261Y-117033489D01*
X93830264Y-117033501D01*
X93890602Y-117179172D01*
X93890609Y-117179185D01*
X93978210Y-117310288D01*
X93978213Y-117310292D01*
X94089707Y-117421786D01*
X94089711Y-117421789D01*
X94220814Y-117509390D01*
X94220827Y-117509397D01*
X94320060Y-117550500D01*
X94366503Y-117569737D01*
X94521153Y-117600499D01*
X94521156Y-117600500D01*
X94521158Y-117600500D01*
X94678844Y-117600500D01*
X94678845Y-117600499D01*
X94833497Y-117569737D01*
X94979179Y-117509394D01*
X95110289Y-117421789D01*
X95221789Y-117310289D01*
X95309394Y-117179179D01*
X95369737Y-117033497D01*
X95400500Y-116878842D01*
X95400500Y-116721158D01*
X95400500Y-116721155D01*
X95400499Y-116721153D01*
X108599500Y-116721153D01*
X108599500Y-116878846D01*
X108630261Y-117033489D01*
X108630264Y-117033501D01*
X108690602Y-117179172D01*
X108690609Y-117179185D01*
X108778210Y-117310288D01*
X108778213Y-117310292D01*
X108889707Y-117421786D01*
X108889711Y-117421789D01*
X109020814Y-117509390D01*
X109020827Y-117509397D01*
X109120060Y-117550500D01*
X109166503Y-117569737D01*
X109321153Y-117600499D01*
X109321156Y-117600500D01*
X109321158Y-117600500D01*
X109478844Y-117600500D01*
X109478845Y-117600499D01*
X109633497Y-117569737D01*
X109779179Y-117509394D01*
X109910289Y-117421789D01*
X110021789Y-117310289D01*
X110109394Y-117179179D01*
X110169737Y-117033497D01*
X110200500Y-116878842D01*
X110200500Y-116721158D01*
X110200500Y-116721155D01*
X110200499Y-116721153D01*
X123599500Y-116721153D01*
X123599500Y-116878846D01*
X123630261Y-117033489D01*
X123630264Y-117033501D01*
X123690602Y-117179172D01*
X123690609Y-117179185D01*
X123778210Y-117310288D01*
X123778213Y-117310292D01*
X123889707Y-117421786D01*
X123889711Y-117421789D01*
X124020814Y-117509390D01*
X124020827Y-117509397D01*
X124120060Y-117550500D01*
X124166503Y-117569737D01*
X124321153Y-117600499D01*
X124321156Y-117600500D01*
X124321158Y-117600500D01*
X124478844Y-117600500D01*
X124478845Y-117600499D01*
X124633497Y-117569737D01*
X124779179Y-117509394D01*
X124910289Y-117421789D01*
X125021789Y-117310289D01*
X125109394Y-117179179D01*
X125169737Y-117033497D01*
X125200500Y-116878842D01*
X125200500Y-116721158D01*
X125200500Y-116721155D01*
X125200499Y-116721153D01*
X138199500Y-116721153D01*
X138199500Y-116878846D01*
X138230261Y-117033489D01*
X138230264Y-117033501D01*
X138290602Y-117179172D01*
X138290609Y-117179185D01*
X138378210Y-117310288D01*
X138378213Y-117310292D01*
X138489707Y-117421786D01*
X138489711Y-117421789D01*
X138620814Y-117509390D01*
X138620827Y-117509397D01*
X138720060Y-117550500D01*
X138766503Y-117569737D01*
X138921153Y-117600499D01*
X138921156Y-117600500D01*
X138921158Y-117600500D01*
X139078844Y-117600500D01*
X139078845Y-117600499D01*
X139233497Y-117569737D01*
X139379179Y-117509394D01*
X139510289Y-117421789D01*
X139621789Y-117310289D01*
X139709394Y-117179179D01*
X139769737Y-117033497D01*
X139800500Y-116878842D01*
X139800500Y-116721158D01*
X139800500Y-116721155D01*
X139800499Y-116721153D01*
X139769738Y-116566510D01*
X139769737Y-116566503D01*
X139769735Y-116566498D01*
X139709397Y-116420827D01*
X139709390Y-116420814D01*
X139621789Y-116289711D01*
X139621786Y-116289707D01*
X139510292Y-116178213D01*
X139510288Y-116178210D01*
X139379185Y-116090609D01*
X139379172Y-116090602D01*
X139233501Y-116030264D01*
X139233489Y-116030261D01*
X139078845Y-115999500D01*
X139078842Y-115999500D01*
X138921158Y-115999500D01*
X138921155Y-115999500D01*
X138766510Y-116030261D01*
X138766498Y-116030264D01*
X138620827Y-116090602D01*
X138620814Y-116090609D01*
X138489711Y-116178210D01*
X138489707Y-116178213D01*
X138378213Y-116289707D01*
X138378210Y-116289711D01*
X138290609Y-116420814D01*
X138290602Y-116420827D01*
X138230264Y-116566498D01*
X138230261Y-116566510D01*
X138199500Y-116721153D01*
X125200499Y-116721153D01*
X125169738Y-116566510D01*
X125169737Y-116566503D01*
X125169735Y-116566498D01*
X125109397Y-116420827D01*
X125109390Y-116420814D01*
X125021789Y-116289711D01*
X125021786Y-116289707D01*
X124910292Y-116178213D01*
X124910288Y-116178210D01*
X124779185Y-116090609D01*
X124779172Y-116090602D01*
X124633501Y-116030264D01*
X124633489Y-116030261D01*
X124478845Y-115999500D01*
X124478842Y-115999500D01*
X124321158Y-115999500D01*
X124321155Y-115999500D01*
X124166510Y-116030261D01*
X124166498Y-116030264D01*
X124020827Y-116090602D01*
X124020814Y-116090609D01*
X123889711Y-116178210D01*
X123889707Y-116178213D01*
X123778213Y-116289707D01*
X123778210Y-116289711D01*
X123690609Y-116420814D01*
X123690602Y-116420827D01*
X123630264Y-116566498D01*
X123630261Y-116566510D01*
X123599500Y-116721153D01*
X110200499Y-116721153D01*
X110169738Y-116566510D01*
X110169737Y-116566503D01*
X110169735Y-116566498D01*
X110109397Y-116420827D01*
X110109390Y-116420814D01*
X110021789Y-116289711D01*
X110021786Y-116289707D01*
X109910292Y-116178213D01*
X109910288Y-116178210D01*
X109779185Y-116090609D01*
X109779172Y-116090602D01*
X109633501Y-116030264D01*
X109633489Y-116030261D01*
X109478845Y-115999500D01*
X109478842Y-115999500D01*
X109321158Y-115999500D01*
X109321155Y-115999500D01*
X109166510Y-116030261D01*
X109166498Y-116030264D01*
X109020827Y-116090602D01*
X109020814Y-116090609D01*
X108889711Y-116178210D01*
X108889707Y-116178213D01*
X108778213Y-116289707D01*
X108778210Y-116289711D01*
X108690609Y-116420814D01*
X108690602Y-116420827D01*
X108630264Y-116566498D01*
X108630261Y-116566510D01*
X108599500Y-116721153D01*
X95400499Y-116721153D01*
X95369738Y-116566510D01*
X95369737Y-116566503D01*
X95369735Y-116566498D01*
X95309397Y-116420827D01*
X95309390Y-116420814D01*
X95221789Y-116289711D01*
X95221786Y-116289707D01*
X95110292Y-116178213D01*
X95110288Y-116178210D01*
X94979185Y-116090609D01*
X94979172Y-116090602D01*
X94833501Y-116030264D01*
X94833489Y-116030261D01*
X94678845Y-115999500D01*
X94678842Y-115999500D01*
X94521158Y-115999500D01*
X94521155Y-115999500D01*
X94366510Y-116030261D01*
X94366498Y-116030264D01*
X94220827Y-116090602D01*
X94220814Y-116090609D01*
X94089711Y-116178210D01*
X94089707Y-116178213D01*
X93978213Y-116289707D01*
X93978210Y-116289711D01*
X93890609Y-116420814D01*
X93890602Y-116420827D01*
X93830264Y-116566498D01*
X93830261Y-116566510D01*
X93799500Y-116721153D01*
X80800499Y-116721153D01*
X80769738Y-116566510D01*
X80769737Y-116566503D01*
X80769735Y-116566498D01*
X80709397Y-116420827D01*
X80709390Y-116420814D01*
X80621789Y-116289711D01*
X80621786Y-116289707D01*
X80510292Y-116178213D01*
X80510288Y-116178210D01*
X80379185Y-116090609D01*
X80379172Y-116090602D01*
X80233501Y-116030264D01*
X80233489Y-116030261D01*
X80078845Y-115999500D01*
X80078842Y-115999500D01*
X79921158Y-115999500D01*
X79921155Y-115999500D01*
X79766510Y-116030261D01*
X79766498Y-116030264D01*
X79620827Y-116090602D01*
X79620814Y-116090609D01*
X79489711Y-116178210D01*
X79489707Y-116178213D01*
X79378213Y-116289707D01*
X79378210Y-116289711D01*
X79290609Y-116420814D01*
X79290602Y-116420827D01*
X79230264Y-116566498D01*
X79230261Y-116566510D01*
X79199500Y-116721153D01*
X65800500Y-116721153D01*
X65800500Y-116671158D01*
X65800500Y-116671155D01*
X65800499Y-116671153D01*
X65779684Y-116566510D01*
X65769737Y-116516503D01*
X65730102Y-116420814D01*
X65709397Y-116370827D01*
X65709390Y-116370814D01*
X65621789Y-116239711D01*
X65621786Y-116239707D01*
X65510292Y-116128213D01*
X65510288Y-116128210D01*
X65379185Y-116040609D01*
X65379172Y-116040602D01*
X65233501Y-115980264D01*
X65233489Y-115980261D01*
X65078845Y-115949500D01*
X65078842Y-115949500D01*
X64921158Y-115949500D01*
X64921155Y-115949500D01*
X64766510Y-115980261D01*
X64766498Y-115980264D01*
X64620827Y-116040602D01*
X64620814Y-116040609D01*
X64489711Y-116128210D01*
X64489707Y-116128213D01*
X64378213Y-116239707D01*
X64378210Y-116239711D01*
X64290609Y-116370814D01*
X64290602Y-116370827D01*
X64230264Y-116516498D01*
X64230261Y-116516510D01*
X64199500Y-116671153D01*
X50800499Y-116671153D01*
X50779684Y-116566510D01*
X50769737Y-116516503D01*
X50730102Y-116420814D01*
X50709397Y-116370827D01*
X50709390Y-116370814D01*
X50621789Y-116239711D01*
X50621786Y-116239707D01*
X50510292Y-116128213D01*
X50510288Y-116128210D01*
X50379185Y-116040609D01*
X50379172Y-116040602D01*
X50233501Y-115980264D01*
X50233489Y-115980261D01*
X50078845Y-115949500D01*
X50078842Y-115949500D01*
X49921158Y-115949500D01*
X49921155Y-115949500D01*
X49766510Y-115980261D01*
X49766498Y-115980264D01*
X49620827Y-116040602D01*
X49620814Y-116040609D01*
X49489711Y-116128210D01*
X49489707Y-116128213D01*
X49378213Y-116239707D01*
X49378210Y-116239711D01*
X49290609Y-116370814D01*
X49290602Y-116370827D01*
X49230264Y-116516498D01*
X49230261Y-116516510D01*
X49199500Y-116671153D01*
X38495500Y-116671153D01*
X38495500Y-111421153D01*
X48699500Y-111421153D01*
X48699500Y-111578846D01*
X48730261Y-111733489D01*
X48730264Y-111733501D01*
X48790602Y-111879172D01*
X48790609Y-111879185D01*
X48878210Y-112010288D01*
X48878213Y-112010292D01*
X48989707Y-112121786D01*
X48989711Y-112121789D01*
X49120814Y-112209390D01*
X49120827Y-112209397D01*
X49266498Y-112269735D01*
X49266503Y-112269737D01*
X49421153Y-112300499D01*
X49421156Y-112300500D01*
X49421158Y-112300500D01*
X49578844Y-112300500D01*
X49578845Y-112300499D01*
X49733497Y-112269737D01*
X49879179Y-112209394D01*
X50010289Y-112121789D01*
X50121789Y-112010289D01*
X50209394Y-111879179D01*
X50269737Y-111733497D01*
X50300500Y-111578842D01*
X50300500Y-111421158D01*
X50300500Y-111421155D01*
X50300499Y-111421153D01*
X63449500Y-111421153D01*
X63449500Y-111578846D01*
X63480261Y-111733489D01*
X63480264Y-111733501D01*
X63540602Y-111879172D01*
X63540609Y-111879185D01*
X63628210Y-112010288D01*
X63628213Y-112010292D01*
X63739707Y-112121786D01*
X63739711Y-112121789D01*
X63870814Y-112209390D01*
X63870827Y-112209397D01*
X64016498Y-112269735D01*
X64016503Y-112269737D01*
X64171153Y-112300499D01*
X64171156Y-112300500D01*
X64171158Y-112300500D01*
X64328844Y-112300500D01*
X64328845Y-112300499D01*
X64483497Y-112269737D01*
X64629179Y-112209394D01*
X64760289Y-112121789D01*
X64871789Y-112010289D01*
X64959394Y-111879179D01*
X65019737Y-111733497D01*
X65050500Y-111578842D01*
X65050500Y-111521153D01*
X78399500Y-111521153D01*
X78399500Y-111678846D01*
X78430261Y-111833489D01*
X78430264Y-111833501D01*
X78490602Y-111979172D01*
X78490609Y-111979185D01*
X78578210Y-112110288D01*
X78578213Y-112110292D01*
X78689707Y-112221786D01*
X78689711Y-112221789D01*
X78820814Y-112309390D01*
X78820827Y-112309397D01*
X78966498Y-112369735D01*
X78966503Y-112369737D01*
X79121153Y-112400499D01*
X79121156Y-112400500D01*
X79121158Y-112400500D01*
X79278844Y-112400500D01*
X79278845Y-112400499D01*
X79433497Y-112369737D01*
X79579179Y-112309394D01*
X79710289Y-112221789D01*
X79821789Y-112110289D01*
X79909394Y-111979179D01*
X79969737Y-111833497D01*
X80000500Y-111678842D01*
X80000500Y-111521158D01*
X80000500Y-111521155D01*
X80000499Y-111521153D01*
X79994476Y-111490874D01*
X79969737Y-111366503D01*
X79950955Y-111321158D01*
X79950953Y-111321153D01*
X92399500Y-111321153D01*
X92399500Y-111478846D01*
X92430261Y-111633489D01*
X92430264Y-111633501D01*
X92490602Y-111779172D01*
X92490609Y-111779185D01*
X92578210Y-111910288D01*
X92578213Y-111910292D01*
X92689707Y-112021786D01*
X92689711Y-112021789D01*
X92820814Y-112109390D01*
X92820827Y-112109397D01*
X92966498Y-112169735D01*
X92966503Y-112169737D01*
X93121153Y-112200499D01*
X93121156Y-112200500D01*
X93121158Y-112200500D01*
X93278844Y-112200500D01*
X93278845Y-112200499D01*
X93433497Y-112169737D01*
X93579179Y-112109394D01*
X93710289Y-112021789D01*
X93821789Y-111910289D01*
X93909394Y-111779179D01*
X93969737Y-111633497D01*
X94000500Y-111478842D01*
X94000500Y-111321158D01*
X94000500Y-111321155D01*
X94000499Y-111321153D01*
X107399500Y-111321153D01*
X107399500Y-111478846D01*
X107430261Y-111633489D01*
X107430264Y-111633501D01*
X107490602Y-111779172D01*
X107490609Y-111779185D01*
X107578210Y-111910288D01*
X107578213Y-111910292D01*
X107689707Y-112021786D01*
X107689711Y-112021789D01*
X107820814Y-112109390D01*
X107820827Y-112109397D01*
X107966498Y-112169735D01*
X107966503Y-112169737D01*
X108121153Y-112200499D01*
X108121156Y-112200500D01*
X108121158Y-112200500D01*
X108278844Y-112200500D01*
X108278845Y-112200499D01*
X108433497Y-112169737D01*
X108579179Y-112109394D01*
X108710289Y-112021789D01*
X108821789Y-111910289D01*
X108909394Y-111779179D01*
X108969737Y-111633497D01*
X108992083Y-111521158D01*
X108992084Y-111521153D01*
X122199500Y-111521153D01*
X122199500Y-111678846D01*
X122230261Y-111833489D01*
X122230264Y-111833501D01*
X122290602Y-111979172D01*
X122290609Y-111979185D01*
X122378210Y-112110288D01*
X122378213Y-112110292D01*
X122489707Y-112221786D01*
X122489711Y-112221789D01*
X122620814Y-112309390D01*
X122620827Y-112309397D01*
X122766498Y-112369735D01*
X122766503Y-112369737D01*
X122921153Y-112400499D01*
X122921156Y-112400500D01*
X122921158Y-112400500D01*
X123078844Y-112400500D01*
X123078845Y-112400499D01*
X123233497Y-112369737D01*
X123379179Y-112309394D01*
X123510289Y-112221789D01*
X123621789Y-112110289D01*
X123709394Y-111979179D01*
X123769737Y-111833497D01*
X123800500Y-111678842D01*
X123800500Y-111521158D01*
X123800500Y-111521155D01*
X123800499Y-111521153D01*
X136999500Y-111521153D01*
X136999500Y-111678846D01*
X137030261Y-111833489D01*
X137030264Y-111833501D01*
X137090602Y-111979172D01*
X137090609Y-111979185D01*
X137178210Y-112110288D01*
X137178213Y-112110292D01*
X137289707Y-112221786D01*
X137289711Y-112221789D01*
X137420814Y-112309390D01*
X137420827Y-112309397D01*
X137566498Y-112369735D01*
X137566503Y-112369737D01*
X137721153Y-112400499D01*
X137721156Y-112400500D01*
X137721158Y-112400500D01*
X137878844Y-112400500D01*
X137878845Y-112400499D01*
X138033497Y-112369737D01*
X138179179Y-112309394D01*
X138310289Y-112221789D01*
X138421789Y-112110289D01*
X138509394Y-111979179D01*
X138569737Y-111833497D01*
X138600500Y-111678842D01*
X138600500Y-111521158D01*
X138600500Y-111521155D01*
X138600499Y-111521153D01*
X138594476Y-111490874D01*
X138569737Y-111366503D01*
X138550955Y-111321158D01*
X138509397Y-111220827D01*
X138509390Y-111220814D01*
X138421789Y-111089711D01*
X138421786Y-111089707D01*
X138310292Y-110978213D01*
X138310288Y-110978210D01*
X138179185Y-110890609D01*
X138179172Y-110890602D01*
X138033501Y-110830264D01*
X138033489Y-110830261D01*
X137878845Y-110799500D01*
X137878842Y-110799500D01*
X137721158Y-110799500D01*
X137721155Y-110799500D01*
X137566510Y-110830261D01*
X137566498Y-110830264D01*
X137420827Y-110890602D01*
X137420814Y-110890609D01*
X137289711Y-110978210D01*
X137289707Y-110978213D01*
X137178213Y-111089707D01*
X137178210Y-111089711D01*
X137090609Y-111220814D01*
X137090602Y-111220827D01*
X137030264Y-111366498D01*
X137030261Y-111366510D01*
X136999500Y-111521153D01*
X123800499Y-111521153D01*
X123794476Y-111490874D01*
X123769737Y-111366503D01*
X123750955Y-111321158D01*
X123709397Y-111220827D01*
X123709390Y-111220814D01*
X123621789Y-111089711D01*
X123621786Y-111089707D01*
X123510292Y-110978213D01*
X123510288Y-110978210D01*
X123379185Y-110890609D01*
X123379172Y-110890602D01*
X123233501Y-110830264D01*
X123233489Y-110830261D01*
X123078845Y-110799500D01*
X123078842Y-110799500D01*
X122921158Y-110799500D01*
X122921155Y-110799500D01*
X122766510Y-110830261D01*
X122766498Y-110830264D01*
X122620827Y-110890602D01*
X122620814Y-110890609D01*
X122489711Y-110978210D01*
X122489707Y-110978213D01*
X122378213Y-111089707D01*
X122378210Y-111089711D01*
X122290609Y-111220814D01*
X122290602Y-111220827D01*
X122230264Y-111366498D01*
X122230261Y-111366510D01*
X122199500Y-111521153D01*
X108992084Y-111521153D01*
X108998107Y-111490875D01*
X108998107Y-111490874D01*
X109000500Y-111478844D01*
X109000500Y-111321155D01*
X109000499Y-111321153D01*
X108980734Y-111221789D01*
X108969737Y-111166503D01*
X108937929Y-111089711D01*
X108909397Y-111020827D01*
X108909390Y-111020814D01*
X108821789Y-110889711D01*
X108821786Y-110889707D01*
X108710292Y-110778213D01*
X108710288Y-110778210D01*
X108579185Y-110690609D01*
X108579172Y-110690602D01*
X108433501Y-110630264D01*
X108433489Y-110630261D01*
X108278845Y-110599500D01*
X108278842Y-110599500D01*
X108121158Y-110599500D01*
X108121155Y-110599500D01*
X107966510Y-110630261D01*
X107966498Y-110630264D01*
X107820827Y-110690602D01*
X107820814Y-110690609D01*
X107689711Y-110778210D01*
X107689707Y-110778213D01*
X107578213Y-110889707D01*
X107578210Y-110889711D01*
X107490609Y-111020814D01*
X107490602Y-111020827D01*
X107430264Y-111166498D01*
X107430261Y-111166510D01*
X107399500Y-111321153D01*
X94000499Y-111321153D01*
X93980734Y-111221789D01*
X93969737Y-111166503D01*
X93937929Y-111089711D01*
X93909397Y-111020827D01*
X93909390Y-111020814D01*
X93821789Y-110889711D01*
X93821786Y-110889707D01*
X93710292Y-110778213D01*
X93710288Y-110778210D01*
X93579185Y-110690609D01*
X93579172Y-110690602D01*
X93433501Y-110630264D01*
X93433489Y-110630261D01*
X93278845Y-110599500D01*
X93278842Y-110599500D01*
X93121158Y-110599500D01*
X93121155Y-110599500D01*
X92966510Y-110630261D01*
X92966498Y-110630264D01*
X92820827Y-110690602D01*
X92820814Y-110690609D01*
X92689711Y-110778210D01*
X92689707Y-110778213D01*
X92578213Y-110889707D01*
X92578210Y-110889711D01*
X92490609Y-111020814D01*
X92490602Y-111020827D01*
X92430264Y-111166498D01*
X92430261Y-111166510D01*
X92399500Y-111321153D01*
X79950953Y-111321153D01*
X79909397Y-111220827D01*
X79909390Y-111220814D01*
X79821789Y-111089711D01*
X79821786Y-111089707D01*
X79710292Y-110978213D01*
X79710288Y-110978210D01*
X79579185Y-110890609D01*
X79579172Y-110890602D01*
X79433501Y-110830264D01*
X79433489Y-110830261D01*
X79278845Y-110799500D01*
X79278842Y-110799500D01*
X79121158Y-110799500D01*
X79121155Y-110799500D01*
X78966510Y-110830261D01*
X78966498Y-110830264D01*
X78820827Y-110890602D01*
X78820814Y-110890609D01*
X78689711Y-110978210D01*
X78689707Y-110978213D01*
X78578213Y-111089707D01*
X78578210Y-111089711D01*
X78490609Y-111220814D01*
X78490602Y-111220827D01*
X78430264Y-111366498D01*
X78430261Y-111366510D01*
X78399500Y-111521153D01*
X65050500Y-111521153D01*
X65050500Y-111421158D01*
X65050500Y-111421155D01*
X65050499Y-111421153D01*
X65039627Y-111366498D01*
X65019737Y-111266503D01*
X64959794Y-111121786D01*
X64959397Y-111120827D01*
X64959390Y-111120814D01*
X64871789Y-110989711D01*
X64871786Y-110989707D01*
X64760292Y-110878213D01*
X64760288Y-110878210D01*
X64629185Y-110790609D01*
X64629172Y-110790602D01*
X64483501Y-110730264D01*
X64483489Y-110730261D01*
X64328845Y-110699500D01*
X64328842Y-110699500D01*
X64171158Y-110699500D01*
X64171155Y-110699500D01*
X64016510Y-110730261D01*
X64016498Y-110730264D01*
X63870827Y-110790602D01*
X63870814Y-110790609D01*
X63739711Y-110878210D01*
X63739707Y-110878213D01*
X63628213Y-110989707D01*
X63628210Y-110989711D01*
X63540609Y-111120814D01*
X63540602Y-111120827D01*
X63480264Y-111266498D01*
X63480261Y-111266510D01*
X63449500Y-111421153D01*
X50300499Y-111421153D01*
X50289627Y-111366498D01*
X50269737Y-111266503D01*
X50209794Y-111121786D01*
X50209397Y-111120827D01*
X50209390Y-111120814D01*
X50121789Y-110989711D01*
X50121786Y-110989707D01*
X50010292Y-110878213D01*
X50010288Y-110878210D01*
X49879185Y-110790609D01*
X49879172Y-110790602D01*
X49733501Y-110730264D01*
X49733489Y-110730261D01*
X49578845Y-110699500D01*
X49578842Y-110699500D01*
X49421158Y-110699500D01*
X49421155Y-110699500D01*
X49266510Y-110730261D01*
X49266498Y-110730264D01*
X49120827Y-110790602D01*
X49120814Y-110790609D01*
X48989711Y-110878210D01*
X48989707Y-110878213D01*
X48878213Y-110989707D01*
X48878210Y-110989711D01*
X48790609Y-111120814D01*
X48790602Y-111120827D01*
X48730264Y-111266498D01*
X48730261Y-111266510D01*
X48699500Y-111421153D01*
X38495500Y-111421153D01*
X38495500Y-110421153D01*
X52949500Y-110421153D01*
X52949500Y-110578846D01*
X52980261Y-110733489D01*
X52980264Y-110733501D01*
X53040602Y-110879172D01*
X53040609Y-110879185D01*
X53128210Y-111010288D01*
X53128213Y-111010292D01*
X53239707Y-111121786D01*
X53239711Y-111121789D01*
X53370814Y-111209390D01*
X53370827Y-111209397D01*
X53508683Y-111266498D01*
X53516503Y-111269737D01*
X53671153Y-111300499D01*
X53671156Y-111300500D01*
X53671158Y-111300500D01*
X53828844Y-111300500D01*
X53828845Y-111300499D01*
X53839179Y-111298443D01*
X53864287Y-111293450D01*
X53864292Y-111293449D01*
X53949800Y-111276439D01*
X53983497Y-111269737D01*
X54101592Y-111220821D01*
X54129172Y-111209397D01*
X54129172Y-111209396D01*
X54129179Y-111209394D01*
X54260289Y-111121789D01*
X54371789Y-111010289D01*
X54459394Y-110879179D01*
X54519737Y-110733497D01*
X54550500Y-110578842D01*
X54550500Y-110421158D01*
X54550500Y-110421155D01*
X54550499Y-110421153D01*
X67599500Y-110421153D01*
X67599500Y-110578846D01*
X67630261Y-110733489D01*
X67630264Y-110733501D01*
X67690602Y-110879172D01*
X67690609Y-110879185D01*
X67778210Y-111010288D01*
X67778213Y-111010292D01*
X67889707Y-111121786D01*
X67889711Y-111121789D01*
X68020814Y-111209390D01*
X68020827Y-111209397D01*
X68158683Y-111266498D01*
X68166503Y-111269737D01*
X68321153Y-111300499D01*
X68321156Y-111300500D01*
X68321158Y-111300500D01*
X68478844Y-111300500D01*
X68478845Y-111300499D01*
X68633497Y-111269737D01*
X68751592Y-111220821D01*
X68779172Y-111209397D01*
X68779172Y-111209396D01*
X68779179Y-111209394D01*
X68910289Y-111121789D01*
X69021789Y-111010289D01*
X69109394Y-110879179D01*
X69169737Y-110733497D01*
X69200500Y-110578842D01*
X69200500Y-110421158D01*
X69200500Y-110421155D01*
X69200499Y-110421153D01*
X82799500Y-110421153D01*
X82799500Y-110578846D01*
X82830261Y-110733489D01*
X82830264Y-110733501D01*
X82890602Y-110879172D01*
X82890609Y-110879185D01*
X82978210Y-111010288D01*
X82978213Y-111010292D01*
X83089707Y-111121786D01*
X83089711Y-111121789D01*
X83220814Y-111209390D01*
X83220827Y-111209397D01*
X83358683Y-111266498D01*
X83366503Y-111269737D01*
X83521153Y-111300499D01*
X83521156Y-111300500D01*
X83521158Y-111300500D01*
X83678844Y-111300500D01*
X83678845Y-111300499D01*
X83833497Y-111269737D01*
X83951592Y-111220821D01*
X83979172Y-111209397D01*
X83979172Y-111209396D01*
X83979179Y-111209394D01*
X84110289Y-111121789D01*
X84221789Y-111010289D01*
X84309394Y-110879179D01*
X84369737Y-110733497D01*
X84400500Y-110578842D01*
X84400500Y-110421158D01*
X84400500Y-110421155D01*
X84400499Y-110421153D01*
X87449500Y-110421153D01*
X87449500Y-110578846D01*
X87480261Y-110733489D01*
X87480264Y-110733501D01*
X87540602Y-110879172D01*
X87540609Y-110879185D01*
X87628210Y-111010288D01*
X87628213Y-111010292D01*
X87739707Y-111121786D01*
X87739711Y-111121789D01*
X87870814Y-111209390D01*
X87870827Y-111209397D01*
X88008683Y-111266498D01*
X88016503Y-111269737D01*
X88171153Y-111300499D01*
X88171156Y-111300500D01*
X88171158Y-111300500D01*
X88328844Y-111300500D01*
X88328845Y-111300499D01*
X88483497Y-111269737D01*
X88601592Y-111220821D01*
X88629172Y-111209397D01*
X88629172Y-111209396D01*
X88629179Y-111209394D01*
X88760289Y-111121789D01*
X88871789Y-111010289D01*
X88959394Y-110879179D01*
X89019737Y-110733497D01*
X89050500Y-110578842D01*
X89050500Y-110421158D01*
X89050500Y-110421155D01*
X89050499Y-110421153D01*
X97599500Y-110421153D01*
X97599500Y-110578846D01*
X97630261Y-110733489D01*
X97630264Y-110733501D01*
X97690602Y-110879172D01*
X97690609Y-110879185D01*
X97778210Y-111010288D01*
X97778213Y-111010292D01*
X97889707Y-111121786D01*
X97889711Y-111121789D01*
X98020814Y-111209390D01*
X98020827Y-111209397D01*
X98158683Y-111266498D01*
X98166503Y-111269737D01*
X98321153Y-111300499D01*
X98321156Y-111300500D01*
X98321158Y-111300500D01*
X98478844Y-111300500D01*
X98478845Y-111300499D01*
X98633497Y-111269737D01*
X98751592Y-111220821D01*
X98779172Y-111209397D01*
X98779172Y-111209396D01*
X98779179Y-111209394D01*
X98910289Y-111121789D01*
X99021789Y-111010289D01*
X99109394Y-110879179D01*
X99169737Y-110733497D01*
X99200500Y-110578842D01*
X99200500Y-110421158D01*
X99200500Y-110421155D01*
X99200499Y-110421153D01*
X112399500Y-110421153D01*
X112399500Y-110578846D01*
X112430261Y-110733489D01*
X112430264Y-110733501D01*
X112490602Y-110879172D01*
X112490609Y-110879185D01*
X112578210Y-111010288D01*
X112578213Y-111010292D01*
X112689707Y-111121786D01*
X112689711Y-111121789D01*
X112820814Y-111209390D01*
X112820827Y-111209397D01*
X112958683Y-111266498D01*
X112966503Y-111269737D01*
X113121153Y-111300499D01*
X113121156Y-111300500D01*
X113121158Y-111300500D01*
X113278844Y-111300500D01*
X113278845Y-111300499D01*
X113433497Y-111269737D01*
X113551592Y-111220821D01*
X113579172Y-111209397D01*
X113579172Y-111209396D01*
X113579179Y-111209394D01*
X113710289Y-111121789D01*
X113821789Y-111010289D01*
X113909394Y-110879179D01*
X113969737Y-110733497D01*
X114000500Y-110578842D01*
X114000500Y-110421158D01*
X114000500Y-110421155D01*
X114000499Y-110421153D01*
X127199500Y-110421153D01*
X127199500Y-110578846D01*
X127230261Y-110733489D01*
X127230264Y-110733501D01*
X127290602Y-110879172D01*
X127290609Y-110879185D01*
X127378210Y-111010288D01*
X127378213Y-111010292D01*
X127489707Y-111121786D01*
X127489711Y-111121789D01*
X127620814Y-111209390D01*
X127620827Y-111209397D01*
X127758683Y-111266498D01*
X127766503Y-111269737D01*
X127921153Y-111300499D01*
X127921156Y-111300500D01*
X127921158Y-111300500D01*
X128078844Y-111300500D01*
X128078845Y-111300499D01*
X128233497Y-111269737D01*
X128351592Y-111220821D01*
X128379172Y-111209397D01*
X128379172Y-111209396D01*
X128379179Y-111209394D01*
X128510289Y-111121789D01*
X128621789Y-111010289D01*
X128709394Y-110879179D01*
X128769737Y-110733497D01*
X128800500Y-110578842D01*
X128800500Y-110521153D01*
X141999500Y-110521153D01*
X141999500Y-110678846D01*
X142030261Y-110833489D01*
X142030264Y-110833501D01*
X142090602Y-110979172D01*
X142090609Y-110979185D01*
X142178210Y-111110288D01*
X142178213Y-111110292D01*
X142289707Y-111221786D01*
X142289711Y-111221789D01*
X142420814Y-111309390D01*
X142420827Y-111309397D01*
X142558683Y-111366498D01*
X142566503Y-111369737D01*
X142721153Y-111400499D01*
X142721156Y-111400500D01*
X142721158Y-111400500D01*
X142878844Y-111400500D01*
X142878845Y-111400499D01*
X143033497Y-111369737D01*
X143179179Y-111309394D01*
X143310289Y-111221789D01*
X143421789Y-111110289D01*
X143509394Y-110979179D01*
X143569737Y-110833497D01*
X143600500Y-110678842D01*
X143600500Y-110521158D01*
X143600500Y-110521155D01*
X143600499Y-110521153D01*
X143569737Y-110366503D01*
X143528314Y-110266498D01*
X143509397Y-110220827D01*
X143509390Y-110220814D01*
X143421789Y-110089711D01*
X143421786Y-110089707D01*
X143310292Y-109978213D01*
X143310288Y-109978210D01*
X143179185Y-109890609D01*
X143179172Y-109890602D01*
X143033501Y-109830264D01*
X143033489Y-109830261D01*
X142878845Y-109799500D01*
X142878842Y-109799500D01*
X142721158Y-109799500D01*
X142721155Y-109799500D01*
X142566510Y-109830261D01*
X142566498Y-109830264D01*
X142420827Y-109890602D01*
X142420814Y-109890609D01*
X142289711Y-109978210D01*
X142289707Y-109978213D01*
X142178213Y-110089707D01*
X142178210Y-110089711D01*
X142090609Y-110220814D01*
X142090602Y-110220827D01*
X142030264Y-110366498D01*
X142030261Y-110366510D01*
X141999500Y-110521153D01*
X128800500Y-110521153D01*
X128800500Y-110421158D01*
X128800500Y-110421155D01*
X128800499Y-110421153D01*
X128769738Y-110266510D01*
X128769737Y-110266503D01*
X128750812Y-110220814D01*
X128709397Y-110120827D01*
X128709390Y-110120814D01*
X128621789Y-109989711D01*
X128621786Y-109989707D01*
X128510292Y-109878213D01*
X128510288Y-109878210D01*
X128379185Y-109790609D01*
X128379172Y-109790602D01*
X128233501Y-109730264D01*
X128233489Y-109730261D01*
X128078845Y-109699500D01*
X128078842Y-109699500D01*
X127921158Y-109699500D01*
X127921155Y-109699500D01*
X127766510Y-109730261D01*
X127766498Y-109730264D01*
X127620827Y-109790602D01*
X127620814Y-109790609D01*
X127489711Y-109878210D01*
X127489707Y-109878213D01*
X127378213Y-109989707D01*
X127378210Y-109989711D01*
X127290609Y-110120814D01*
X127290602Y-110120827D01*
X127230264Y-110266498D01*
X127230261Y-110266510D01*
X127199500Y-110421153D01*
X114000499Y-110421153D01*
X113969738Y-110266510D01*
X113969737Y-110266503D01*
X113950812Y-110220814D01*
X113909397Y-110120827D01*
X113909390Y-110120814D01*
X113821789Y-109989711D01*
X113821786Y-109989707D01*
X113710292Y-109878213D01*
X113710288Y-109878210D01*
X113579185Y-109790609D01*
X113579172Y-109790602D01*
X113433501Y-109730264D01*
X113433489Y-109730261D01*
X113278845Y-109699500D01*
X113278842Y-109699500D01*
X113121158Y-109699500D01*
X113121155Y-109699500D01*
X112966510Y-109730261D01*
X112966498Y-109730264D01*
X112820827Y-109790602D01*
X112820814Y-109790609D01*
X112689711Y-109878210D01*
X112689707Y-109878213D01*
X112578213Y-109989707D01*
X112578210Y-109989711D01*
X112490609Y-110120814D01*
X112490602Y-110120827D01*
X112430264Y-110266498D01*
X112430261Y-110266510D01*
X112399500Y-110421153D01*
X99200499Y-110421153D01*
X99169738Y-110266510D01*
X99169737Y-110266503D01*
X99150812Y-110220814D01*
X99109397Y-110120827D01*
X99109390Y-110120814D01*
X99021789Y-109989711D01*
X99021786Y-109989707D01*
X98910292Y-109878213D01*
X98910288Y-109878210D01*
X98779185Y-109790609D01*
X98779172Y-109790602D01*
X98633501Y-109730264D01*
X98633489Y-109730261D01*
X98478845Y-109699500D01*
X98478842Y-109699500D01*
X98321158Y-109699500D01*
X98321155Y-109699500D01*
X98166510Y-109730261D01*
X98166498Y-109730264D01*
X98020827Y-109790602D01*
X98020814Y-109790609D01*
X97889711Y-109878210D01*
X97889707Y-109878213D01*
X97778213Y-109989707D01*
X97778210Y-109989711D01*
X97690609Y-110120814D01*
X97690602Y-110120827D01*
X97630264Y-110266498D01*
X97630261Y-110266510D01*
X97599500Y-110421153D01*
X89050499Y-110421153D01*
X89019738Y-110266510D01*
X89019737Y-110266503D01*
X89000812Y-110220814D01*
X88959397Y-110120827D01*
X88959390Y-110120814D01*
X88871789Y-109989711D01*
X88871786Y-109989707D01*
X88760292Y-109878213D01*
X88760288Y-109878210D01*
X88629185Y-109790609D01*
X88629172Y-109790602D01*
X88483501Y-109730264D01*
X88483489Y-109730261D01*
X88328845Y-109699500D01*
X88328842Y-109699500D01*
X88171158Y-109699500D01*
X88171155Y-109699500D01*
X88016510Y-109730261D01*
X88016498Y-109730264D01*
X87870827Y-109790602D01*
X87870814Y-109790609D01*
X87739711Y-109878210D01*
X87739707Y-109878213D01*
X87628213Y-109989707D01*
X87628210Y-109989711D01*
X87540609Y-110120814D01*
X87540602Y-110120827D01*
X87480264Y-110266498D01*
X87480261Y-110266510D01*
X87449500Y-110421153D01*
X84400499Y-110421153D01*
X84369738Y-110266510D01*
X84369737Y-110266503D01*
X84350812Y-110220814D01*
X84309397Y-110120827D01*
X84309390Y-110120814D01*
X84221789Y-109989711D01*
X84221786Y-109989707D01*
X84110292Y-109878213D01*
X84110288Y-109878210D01*
X83979185Y-109790609D01*
X83979172Y-109790602D01*
X83833501Y-109730264D01*
X83833489Y-109730261D01*
X83678845Y-109699500D01*
X83678842Y-109699500D01*
X83521158Y-109699500D01*
X83521155Y-109699500D01*
X83366510Y-109730261D01*
X83366498Y-109730264D01*
X83220827Y-109790602D01*
X83220814Y-109790609D01*
X83089711Y-109878210D01*
X83089707Y-109878213D01*
X82978213Y-109989707D01*
X82978210Y-109989711D01*
X82890609Y-110120814D01*
X82890602Y-110120827D01*
X82830264Y-110266498D01*
X82830261Y-110266510D01*
X82799500Y-110421153D01*
X69200499Y-110421153D01*
X69169738Y-110266510D01*
X69169737Y-110266503D01*
X69150812Y-110220814D01*
X69109397Y-110120827D01*
X69109390Y-110120814D01*
X69021789Y-109989711D01*
X69021786Y-109989707D01*
X68910292Y-109878213D01*
X68910288Y-109878210D01*
X68779185Y-109790609D01*
X68779172Y-109790602D01*
X68633501Y-109730264D01*
X68633489Y-109730261D01*
X68478845Y-109699500D01*
X68478842Y-109699500D01*
X68321158Y-109699500D01*
X68321155Y-109699500D01*
X68166510Y-109730261D01*
X68166498Y-109730264D01*
X68020827Y-109790602D01*
X68020814Y-109790609D01*
X67889711Y-109878210D01*
X67889707Y-109878213D01*
X67778213Y-109989707D01*
X67778210Y-109989711D01*
X67690609Y-110120814D01*
X67690602Y-110120827D01*
X67630264Y-110266498D01*
X67630261Y-110266510D01*
X67599500Y-110421153D01*
X54550499Y-110421153D01*
X54519738Y-110266510D01*
X54519737Y-110266503D01*
X54500812Y-110220814D01*
X54459397Y-110120827D01*
X54459390Y-110120814D01*
X54371789Y-109989711D01*
X54371786Y-109989707D01*
X54260292Y-109878213D01*
X54260288Y-109878210D01*
X54129185Y-109790609D01*
X54129172Y-109790602D01*
X53983501Y-109730264D01*
X53983489Y-109730261D01*
X53828845Y-109699500D01*
X53828842Y-109699500D01*
X53671158Y-109699500D01*
X53671155Y-109699500D01*
X53516510Y-109730261D01*
X53516498Y-109730264D01*
X53370827Y-109790602D01*
X53370814Y-109790609D01*
X53239711Y-109878210D01*
X53239707Y-109878213D01*
X53128213Y-109989707D01*
X53128210Y-109989711D01*
X53040609Y-110120814D01*
X53040602Y-110120827D01*
X52980264Y-110266498D01*
X52980261Y-110266510D01*
X52949500Y-110421153D01*
X38495500Y-110421153D01*
X38495500Y-108671153D01*
X89199500Y-108671153D01*
X89199500Y-108828846D01*
X89230261Y-108983489D01*
X89230264Y-108983501D01*
X89290602Y-109129172D01*
X89290609Y-109129185D01*
X89378210Y-109260288D01*
X89378213Y-109260292D01*
X89489707Y-109371786D01*
X89489711Y-109371789D01*
X89620814Y-109459390D01*
X89620827Y-109459397D01*
X89766498Y-109519735D01*
X89766503Y-109519737D01*
X89921153Y-109550499D01*
X89921156Y-109550500D01*
X89921158Y-109550500D01*
X90078844Y-109550500D01*
X90078845Y-109550499D01*
X90233497Y-109519737D01*
X90379179Y-109459394D01*
X90510289Y-109371789D01*
X90621789Y-109260289D01*
X90709394Y-109129179D01*
X90769737Y-108983497D01*
X90800500Y-108828842D01*
X90800500Y-108671158D01*
X90800500Y-108671155D01*
X90800499Y-108671153D01*
X95949500Y-108671153D01*
X95949500Y-108828846D01*
X95980261Y-108983489D01*
X95980264Y-108983501D01*
X96040602Y-109129172D01*
X96040609Y-109129185D01*
X96128210Y-109260288D01*
X96128213Y-109260292D01*
X96239707Y-109371786D01*
X96239711Y-109371789D01*
X96370814Y-109459390D01*
X96370827Y-109459397D01*
X96516498Y-109519735D01*
X96516503Y-109519737D01*
X96671153Y-109550499D01*
X96671156Y-109550500D01*
X96671158Y-109550500D01*
X96828844Y-109550500D01*
X96828845Y-109550499D01*
X96983497Y-109519737D01*
X97129179Y-109459394D01*
X97260289Y-109371789D01*
X97371789Y-109260289D01*
X97459394Y-109129179D01*
X97519737Y-108983497D01*
X97550500Y-108828842D01*
X97550500Y-108671158D01*
X97550500Y-108671155D01*
X97550499Y-108671153D01*
X97536549Y-108601021D01*
X97519737Y-108516503D01*
X97519735Y-108516498D01*
X97459397Y-108370827D01*
X97459390Y-108370814D01*
X97371789Y-108239711D01*
X97371786Y-108239707D01*
X97260292Y-108128213D01*
X97260288Y-108128210D01*
X97129185Y-108040609D01*
X97129172Y-108040602D01*
X96983501Y-107980264D01*
X96983489Y-107980261D01*
X96828845Y-107949500D01*
X96828842Y-107949500D01*
X96671158Y-107949500D01*
X96671155Y-107949500D01*
X96516510Y-107980261D01*
X96516498Y-107980264D01*
X96370827Y-108040602D01*
X96370814Y-108040609D01*
X96239711Y-108128210D01*
X96239707Y-108128213D01*
X96128213Y-108239707D01*
X96128210Y-108239711D01*
X96040609Y-108370814D01*
X96040602Y-108370827D01*
X95980264Y-108516498D01*
X95980261Y-108516510D01*
X95949500Y-108671153D01*
X90800499Y-108671153D01*
X90786549Y-108601021D01*
X90769737Y-108516503D01*
X90769735Y-108516498D01*
X90709397Y-108370827D01*
X90709390Y-108370814D01*
X90621789Y-108239711D01*
X90621786Y-108239707D01*
X90510292Y-108128213D01*
X90510288Y-108128210D01*
X90379185Y-108040609D01*
X90379172Y-108040602D01*
X90233501Y-107980264D01*
X90233489Y-107980261D01*
X90078845Y-107949500D01*
X90078842Y-107949500D01*
X89921158Y-107949500D01*
X89921155Y-107949500D01*
X89766510Y-107980261D01*
X89766498Y-107980264D01*
X89620827Y-108040602D01*
X89620814Y-108040609D01*
X89489711Y-108128210D01*
X89489707Y-108128213D01*
X89378213Y-108239707D01*
X89378210Y-108239711D01*
X89290609Y-108370814D01*
X89290602Y-108370827D01*
X89230264Y-108516498D01*
X89230261Y-108516510D01*
X89199500Y-108671153D01*
X38495500Y-108671153D01*
X38495500Y-107721674D01*
X92398979Y-107721674D01*
X92398979Y-107879367D01*
X92429740Y-108034010D01*
X92429743Y-108034022D01*
X92490081Y-108179693D01*
X92490088Y-108179706D01*
X92577689Y-108310809D01*
X92577692Y-108310813D01*
X92689186Y-108422307D01*
X92689190Y-108422310D01*
X92820293Y-108509911D01*
X92820306Y-108509918D01*
X92965977Y-108570256D01*
X92965982Y-108570258D01*
X93120632Y-108601020D01*
X93120635Y-108601021D01*
X93120637Y-108601021D01*
X93278323Y-108601021D01*
X93278324Y-108601020D01*
X93432976Y-108570258D01*
X93459241Y-108559378D01*
X93480665Y-108550505D01*
X93578651Y-108509918D01*
X93578651Y-108509917D01*
X93578658Y-108509915D01*
X93709768Y-108422310D01*
X93821268Y-108310810D01*
X93908873Y-108179700D01*
X93908874Y-108179697D01*
X93908876Y-108179694D01*
X93966487Y-108040606D01*
X93968540Y-108035647D01*
X94012380Y-107981245D01*
X94035645Y-107968541D01*
X94100611Y-107941632D01*
X94179694Y-107908876D01*
X94179697Y-107908874D01*
X94179700Y-107908873D01*
X94310810Y-107821268D01*
X94422310Y-107709768D01*
X94460640Y-107652403D01*
X103930750Y-107652403D01*
X103930750Y-107810096D01*
X103961511Y-107964739D01*
X103961514Y-107964751D01*
X104021852Y-108110422D01*
X104021859Y-108110435D01*
X104109460Y-108241538D01*
X104109463Y-108241542D01*
X104220957Y-108353036D01*
X104220961Y-108353039D01*
X104352064Y-108440640D01*
X104352077Y-108440647D01*
X104497748Y-108500985D01*
X104497753Y-108500987D01*
X104652403Y-108531749D01*
X104652406Y-108531750D01*
X104652408Y-108531750D01*
X104810094Y-108531750D01*
X104810095Y-108531749D01*
X104964747Y-108500987D01*
X105110429Y-108440644D01*
X105241539Y-108353039D01*
X105353039Y-108241539D01*
X105440644Y-108110429D01*
X105500987Y-107964747D01*
X105531750Y-107810092D01*
X105531750Y-107652408D01*
X105531750Y-107652405D01*
X105531749Y-107652403D01*
X105500988Y-107497760D01*
X105500987Y-107497753D01*
X105500985Y-107497748D01*
X105440647Y-107352077D01*
X105440640Y-107352064D01*
X105353039Y-107220961D01*
X105353036Y-107220957D01*
X105241542Y-107109463D01*
X105241538Y-107109460D01*
X105110435Y-107021859D01*
X105110422Y-107021852D01*
X104964751Y-106961514D01*
X104964739Y-106961511D01*
X104810095Y-106930750D01*
X104810092Y-106930750D01*
X104652408Y-106930750D01*
X104652405Y-106930750D01*
X104497760Y-106961511D01*
X104497748Y-106961514D01*
X104352077Y-107021852D01*
X104352064Y-107021859D01*
X104220961Y-107109460D01*
X104220957Y-107109463D01*
X104109463Y-107220957D01*
X104109460Y-107220961D01*
X104021859Y-107352064D01*
X104021852Y-107352077D01*
X103961514Y-107497748D01*
X103961511Y-107497760D01*
X103930750Y-107652403D01*
X94460640Y-107652403D01*
X94509915Y-107578658D01*
X94570258Y-107432976D01*
X94601021Y-107278321D01*
X94601021Y-107120637D01*
X94601021Y-107120634D01*
X94601020Y-107120632D01*
X94583148Y-107030784D01*
X94570258Y-106965982D01*
X94555665Y-106930750D01*
X94509918Y-106820306D01*
X94509911Y-106820293D01*
X94422310Y-106689190D01*
X94422307Y-106689186D01*
X94310813Y-106577692D01*
X94310809Y-106577689D01*
X94179706Y-106490088D01*
X94179693Y-106490081D01*
X94034022Y-106429743D01*
X94034010Y-106429740D01*
X93879366Y-106398979D01*
X93879363Y-106398979D01*
X93721679Y-106398979D01*
X93721676Y-106398979D01*
X93567031Y-106429740D01*
X93567019Y-106429743D01*
X93421348Y-106490081D01*
X93421335Y-106490088D01*
X93290232Y-106577689D01*
X93290228Y-106577692D01*
X93178734Y-106689186D01*
X93178731Y-106689190D01*
X93091130Y-106820293D01*
X93091125Y-106820302D01*
X93031459Y-106964351D01*
X92987618Y-107018754D01*
X92964351Y-107031459D01*
X92820302Y-107091125D01*
X92820293Y-107091130D01*
X92689190Y-107178731D01*
X92689186Y-107178734D01*
X92577692Y-107290228D01*
X92577689Y-107290232D01*
X92490088Y-107421335D01*
X92490081Y-107421348D01*
X92429743Y-107567019D01*
X92429740Y-107567031D01*
X92398979Y-107721674D01*
X38495500Y-107721674D01*
X38495500Y-105671153D01*
X82449500Y-105671153D01*
X82449500Y-105828846D01*
X82480261Y-105983489D01*
X82480264Y-105983501D01*
X82540602Y-106129172D01*
X82540609Y-106129185D01*
X82628210Y-106260288D01*
X82628213Y-106260292D01*
X82739707Y-106371786D01*
X82739711Y-106371789D01*
X82870814Y-106459390D01*
X82870827Y-106459397D01*
X82944923Y-106490088D01*
X83016503Y-106519737D01*
X83171153Y-106550499D01*
X83171156Y-106550500D01*
X83171158Y-106550500D01*
X83328844Y-106550500D01*
X83328845Y-106550499D01*
X83483497Y-106519737D01*
X83629179Y-106459394D01*
X83760289Y-106371789D01*
X83871789Y-106260289D01*
X83959394Y-106129179D01*
X84019737Y-105983497D01*
X84050500Y-105828842D01*
X84050500Y-105671158D01*
X84050500Y-105671155D01*
X84050499Y-105671153D01*
X84019738Y-105516510D01*
X84019737Y-105516503D01*
X84019735Y-105516498D01*
X83995770Y-105458640D01*
X83959397Y-105370827D01*
X83959390Y-105370814D01*
X83871789Y-105239711D01*
X83871786Y-105239707D01*
X83760292Y-105128213D01*
X83760288Y-105128210D01*
X83629185Y-105040609D01*
X83629172Y-105040602D01*
X83483501Y-104980264D01*
X83483489Y-104980261D01*
X83328845Y-104949500D01*
X83328842Y-104949500D01*
X83171158Y-104949500D01*
X83171155Y-104949500D01*
X83016510Y-104980261D01*
X83016498Y-104980264D01*
X82870827Y-105040602D01*
X82870814Y-105040609D01*
X82739711Y-105128210D01*
X82739707Y-105128213D01*
X82628213Y-105239707D01*
X82628210Y-105239711D01*
X82540609Y-105370814D01*
X82540602Y-105370827D01*
X82480264Y-105516498D01*
X82480261Y-105516510D01*
X82449500Y-105671153D01*
X38495500Y-105671153D01*
X38495500Y-104564054D01*
X88004998Y-104564054D01*
X88004998Y-104962550D01*
X88704998Y-104962550D01*
X88704998Y-105462550D01*
X88004998Y-105462550D01*
X88004998Y-105861045D01*
X88043425Y-106054231D01*
X88043428Y-106054243D01*
X88118805Y-106236221D01*
X88118812Y-106236234D01*
X88228246Y-106400012D01*
X88228249Y-106400016D01*
X88367531Y-106539298D01*
X88367535Y-106539301D01*
X88531313Y-106648735D01*
X88531326Y-106648742D01*
X88713306Y-106724119D01*
X88754998Y-106732412D01*
X88754998Y-105929538D01*
X88764938Y-105946755D01*
X88820793Y-106002610D01*
X88889202Y-106042106D01*
X88965502Y-106062550D01*
X89044494Y-106062550D01*
X89120794Y-106042106D01*
X89189203Y-106002610D01*
X89245058Y-105946755D01*
X89254998Y-105929538D01*
X89254998Y-106732412D01*
X89296688Y-106724119D01*
X89296690Y-106724119D01*
X89478669Y-106648742D01*
X89478682Y-106648735D01*
X89642460Y-106539301D01*
X89642464Y-106539298D01*
X89781746Y-106400016D01*
X89781749Y-106400012D01*
X89891183Y-106236234D01*
X89891190Y-106236221D01*
X89966567Y-106054243D01*
X89966570Y-106054231D01*
X90004997Y-105861045D01*
X90004998Y-105861042D01*
X90004998Y-105462550D01*
X89304998Y-105462550D01*
X89304998Y-104962550D01*
X89917345Y-104962550D01*
X89984384Y-104982235D01*
X90015721Y-105011064D01*
X90020500Y-105017292D01*
X90020501Y-105017294D01*
X90112756Y-105109549D01*
X90225744Y-105174783D01*
X90351766Y-105208550D01*
X90351768Y-105208550D01*
X90482232Y-105208550D01*
X90482234Y-105208550D01*
X90608256Y-105174783D01*
X90721244Y-105109549D01*
X90813499Y-105017294D01*
X90878733Y-104904306D01*
X90912500Y-104778284D01*
X90912500Y-104647816D01*
X95737500Y-104647816D01*
X95737500Y-104778283D01*
X95771267Y-104904307D01*
X95797360Y-104949500D01*
X95836501Y-105017294D01*
X95928756Y-105109549D01*
X96041744Y-105174783D01*
X96167766Y-105208550D01*
X96167768Y-105208550D01*
X96298232Y-105208550D01*
X96298234Y-105208550D01*
X96424256Y-105174783D01*
X96537244Y-105109549D01*
X96629499Y-105017294D01*
X96629502Y-105017287D01*
X96634279Y-105011064D01*
X96690706Y-104969861D01*
X96732655Y-104962550D01*
X97345002Y-104962550D01*
X97345002Y-105462550D01*
X96645002Y-105462550D01*
X96645002Y-105861045D01*
X96683429Y-106054231D01*
X96683432Y-106054243D01*
X96758809Y-106236221D01*
X96758816Y-106236234D01*
X96868250Y-106400012D01*
X96868253Y-106400016D01*
X97007535Y-106539298D01*
X97007539Y-106539301D01*
X97171317Y-106648735D01*
X97171330Y-106648742D01*
X97353310Y-106724119D01*
X97395002Y-106732412D01*
X97395002Y-105929538D01*
X97404942Y-105946755D01*
X97460797Y-106002610D01*
X97529206Y-106042106D01*
X97605506Y-106062550D01*
X97684498Y-106062550D01*
X97760798Y-106042106D01*
X97829207Y-106002610D01*
X97885062Y-105946755D01*
X97895002Y-105929538D01*
X97895002Y-106732412D01*
X97936692Y-106724119D01*
X97936694Y-106724119D01*
X98118673Y-106648742D01*
X98118686Y-106648735D01*
X98282464Y-106539301D01*
X98282468Y-106539298D01*
X98421750Y-106400016D01*
X98421753Y-106400012D01*
X98531187Y-106236234D01*
X98531194Y-106236221D01*
X98606571Y-106054243D01*
X98606574Y-106054231D01*
X98645001Y-105861045D01*
X98645002Y-105861042D01*
X98645002Y-105462550D01*
X97945002Y-105462550D01*
X97945002Y-104962550D01*
X98645002Y-104962550D01*
X98645002Y-104564058D01*
X98645001Y-104564054D01*
X98606574Y-104370868D01*
X98606571Y-104370856D01*
X98531194Y-104188878D01*
X98531187Y-104188865D01*
X98421753Y-104025087D01*
X98421750Y-104025083D01*
X98282468Y-103885801D01*
X98282464Y-103885798D01*
X98118686Y-103776364D01*
X98118673Y-103776357D01*
X97936693Y-103700979D01*
X97936685Y-103700977D01*
X97895002Y-103692685D01*
X97895002Y-104495561D01*
X97885062Y-104478345D01*
X97829207Y-104422490D01*
X97760798Y-104382994D01*
X97684498Y-104362550D01*
X97605506Y-104362550D01*
X97529206Y-104382994D01*
X97460797Y-104422490D01*
X97404942Y-104478345D01*
X97395002Y-104495561D01*
X97395002Y-103692686D01*
X97395001Y-103692685D01*
X97353318Y-103700977D01*
X97353310Y-103700979D01*
X97171330Y-103776357D01*
X97171317Y-103776364D01*
X97007539Y-103885798D01*
X97007535Y-103885801D01*
X96868253Y-104025083D01*
X96868250Y-104025087D01*
X96758816Y-104188865D01*
X96758811Y-104188874D01*
X96727085Y-104265470D01*
X96683244Y-104319873D01*
X96616950Y-104341938D01*
X96549251Y-104324659D01*
X96537432Y-104316660D01*
X96537245Y-104316552D01*
X96537244Y-104316551D01*
X96450559Y-104266503D01*
X96424257Y-104251317D01*
X96361245Y-104234433D01*
X96298234Y-104217550D01*
X96167766Y-104217550D01*
X96041742Y-104251317D01*
X95928756Y-104316551D01*
X95928753Y-104316553D01*
X95836503Y-104408803D01*
X95836501Y-104408806D01*
X95771267Y-104521792D01*
X95737500Y-104647816D01*
X90912500Y-104647816D01*
X90878733Y-104521794D01*
X90877545Y-104519737D01*
X90869992Y-104506654D01*
X90813499Y-104408806D01*
X90721244Y-104316551D01*
X90634559Y-104266503D01*
X90608257Y-104251317D01*
X90545245Y-104234433D01*
X90482234Y-104217550D01*
X90351766Y-104217550D01*
X90225742Y-104251317D01*
X90146175Y-104297256D01*
X90112756Y-104316551D01*
X90112754Y-104316552D01*
X90105718Y-104320615D01*
X90105047Y-104319454D01*
X90047784Y-104341588D01*
X89979340Y-104327545D01*
X89929354Y-104278728D01*
X89922913Y-104265468D01*
X89891187Y-104188872D01*
X89891183Y-104188865D01*
X89781749Y-104025087D01*
X89781746Y-104025083D01*
X89642464Y-103885801D01*
X89642460Y-103885798D01*
X89478682Y-103776364D01*
X89478669Y-103776357D01*
X89296689Y-103700979D01*
X89296681Y-103700977D01*
X89254998Y-103692685D01*
X89254998Y-104495561D01*
X89245058Y-104478345D01*
X89189203Y-104422490D01*
X89120794Y-104382994D01*
X89044494Y-104362550D01*
X88965502Y-104362550D01*
X88889202Y-104382994D01*
X88820793Y-104422490D01*
X88764938Y-104478345D01*
X88754998Y-104495561D01*
X88754998Y-103692686D01*
X88754997Y-103692685D01*
X88713314Y-103700977D01*
X88713306Y-103700979D01*
X88531326Y-103776357D01*
X88531313Y-103776364D01*
X88367535Y-103885798D01*
X88367531Y-103885801D01*
X88228249Y-104025083D01*
X88228246Y-104025087D01*
X88118812Y-104188865D01*
X88118805Y-104188878D01*
X88043428Y-104370856D01*
X88043425Y-104370868D01*
X88004998Y-104564054D01*
X38495500Y-104564054D01*
X38495500Y-103671153D01*
X92199500Y-103671153D01*
X92199500Y-103828846D01*
X92230261Y-103983489D01*
X92230264Y-103983501D01*
X92290602Y-104129172D01*
X92290609Y-104129185D01*
X92378210Y-104260288D01*
X92378213Y-104260292D01*
X92489707Y-104371786D01*
X92489711Y-104371789D01*
X92620814Y-104459390D01*
X92620827Y-104459397D01*
X92766498Y-104519735D01*
X92766503Y-104519737D01*
X92902326Y-104546754D01*
X92921153Y-104550499D01*
X92921156Y-104550500D01*
X92921158Y-104550500D01*
X93078844Y-104550500D01*
X93078845Y-104550499D01*
X93233497Y-104519737D01*
X93379179Y-104459394D01*
X93510289Y-104371789D01*
X93621789Y-104260289D01*
X93709394Y-104129179D01*
X93712854Y-104120827D01*
X93752510Y-104025087D01*
X93769737Y-103983497D01*
X93800500Y-103828842D01*
X93800500Y-103671158D01*
X93800500Y-103671155D01*
X93800499Y-103671153D01*
X93769738Y-103516510D01*
X93769737Y-103516503D01*
X93756062Y-103483489D01*
X93709397Y-103370827D01*
X93709390Y-103370814D01*
X93621789Y-103239711D01*
X93621786Y-103239707D01*
X93510292Y-103128213D01*
X93510288Y-103128210D01*
X93379185Y-103040609D01*
X93379172Y-103040602D01*
X93233501Y-102980264D01*
X93233489Y-102980261D01*
X93078845Y-102949500D01*
X93078842Y-102949500D01*
X92921158Y-102949500D01*
X92921155Y-102949500D01*
X92766510Y-102980261D01*
X92766498Y-102980264D01*
X92620827Y-103040602D01*
X92620814Y-103040609D01*
X92489711Y-103128210D01*
X92489707Y-103128213D01*
X92378213Y-103239707D01*
X92378210Y-103239711D01*
X92290609Y-103370814D01*
X92290602Y-103370827D01*
X92230264Y-103516498D01*
X92230261Y-103516510D01*
X92199500Y-103671153D01*
X38495500Y-103671153D01*
X38495500Y-103127706D01*
X38495618Y-103122297D01*
X38496981Y-103091085D01*
X38513642Y-102709464D01*
X38514582Y-102698732D01*
X38568166Y-102291716D01*
X38570037Y-102281105D01*
X38658894Y-101880294D01*
X38661681Y-101869894D01*
X38785133Y-101478352D01*
X38788817Y-101468231D01*
X38945921Y-101088948D01*
X38950479Y-101079174D01*
X39140044Y-100715024D01*
X39145426Y-100705703D01*
X39254779Y-100534054D01*
X88004998Y-100534054D01*
X88004998Y-100782550D01*
X88704998Y-100782550D01*
X88704998Y-101282550D01*
X88004998Y-101282550D01*
X88004998Y-101531045D01*
X88043425Y-101724231D01*
X88043428Y-101724243D01*
X88118805Y-101906221D01*
X88118812Y-101906234D01*
X88228246Y-102070012D01*
X88228249Y-102070016D01*
X88367531Y-102209298D01*
X88367535Y-102209301D01*
X88531313Y-102318735D01*
X88531326Y-102318742D01*
X88713306Y-102394119D01*
X88754998Y-102402412D01*
X88754998Y-101599538D01*
X88764938Y-101616755D01*
X88820793Y-101672610D01*
X88889202Y-101712106D01*
X88965502Y-101732550D01*
X89044494Y-101732550D01*
X89120794Y-101712106D01*
X89189203Y-101672610D01*
X89245058Y-101616755D01*
X89254998Y-101599538D01*
X89254998Y-102402412D01*
X89296688Y-102394119D01*
X89296690Y-102394119D01*
X89478669Y-102318742D01*
X89478682Y-102318735D01*
X89642460Y-102209301D01*
X89642464Y-102209298D01*
X89781746Y-102070016D01*
X89781749Y-102070012D01*
X89891183Y-101906234D01*
X89891190Y-101906221D01*
X89966567Y-101724243D01*
X89966570Y-101724231D01*
X90004997Y-101531045D01*
X90004998Y-101531042D01*
X90004998Y-101282550D01*
X89304998Y-101282550D01*
X89304998Y-100782550D01*
X90004998Y-100782550D01*
X90004998Y-100534058D01*
X90004997Y-100534054D01*
X96645002Y-100534054D01*
X96645002Y-100782550D01*
X97345002Y-100782550D01*
X97345002Y-101282550D01*
X96645002Y-101282550D01*
X96645002Y-101531045D01*
X96683429Y-101724231D01*
X96683432Y-101724243D01*
X96758809Y-101906221D01*
X96758816Y-101906234D01*
X96868250Y-102070012D01*
X96868253Y-102070016D01*
X97007535Y-102209298D01*
X97007539Y-102209301D01*
X97171317Y-102318735D01*
X97171330Y-102318742D01*
X97353310Y-102394119D01*
X97395002Y-102402412D01*
X97395002Y-101599538D01*
X97404942Y-101616755D01*
X97460797Y-101672610D01*
X97529206Y-101712106D01*
X97605506Y-101732550D01*
X97684498Y-101732550D01*
X97760798Y-101712106D01*
X97829207Y-101672610D01*
X97885062Y-101616755D01*
X97895002Y-101599538D01*
X97895002Y-102402412D01*
X97936692Y-102394119D01*
X97936694Y-102394119D01*
X98118673Y-102318742D01*
X98118686Y-102318735D01*
X98282464Y-102209301D01*
X98282468Y-102209298D01*
X98421750Y-102070016D01*
X98421753Y-102070012D01*
X98521218Y-101921153D01*
X104449500Y-101921153D01*
X104449500Y-102078846D01*
X104480261Y-102233489D01*
X104480264Y-102233501D01*
X104540602Y-102379172D01*
X104540609Y-102379185D01*
X104628210Y-102510288D01*
X104628213Y-102510292D01*
X104655240Y-102537319D01*
X104688725Y-102598642D01*
X104683741Y-102668334D01*
X104655240Y-102712681D01*
X104628213Y-102739707D01*
X104628210Y-102739711D01*
X104540609Y-102870814D01*
X104540602Y-102870827D01*
X104480264Y-103016498D01*
X104480261Y-103016510D01*
X104449500Y-103171153D01*
X104449500Y-103328846D01*
X104480261Y-103483489D01*
X104480264Y-103483501D01*
X104540602Y-103629172D01*
X104540609Y-103629185D01*
X104628210Y-103760288D01*
X104628213Y-103760292D01*
X104655240Y-103787319D01*
X104688725Y-103848642D01*
X104683741Y-103918334D01*
X104655240Y-103962681D01*
X104628213Y-103989707D01*
X104628210Y-103989711D01*
X104540609Y-104120814D01*
X104540602Y-104120827D01*
X104480264Y-104266498D01*
X104480261Y-104266510D01*
X104449500Y-104421153D01*
X104449500Y-104578846D01*
X104480261Y-104733489D01*
X104480264Y-104733501D01*
X104540602Y-104879172D01*
X104540609Y-104879185D01*
X104628210Y-105010288D01*
X104628213Y-105010292D01*
X104739707Y-105121786D01*
X104739711Y-105121789D01*
X104870814Y-105209390D01*
X104870827Y-105209397D01*
X104944013Y-105239711D01*
X105016503Y-105269737D01*
X105171153Y-105300499D01*
X105171156Y-105300500D01*
X105171158Y-105300500D01*
X105328844Y-105300500D01*
X105328845Y-105300499D01*
X105483497Y-105269737D01*
X105629179Y-105209394D01*
X105760289Y-105121789D01*
X105871789Y-105010289D01*
X105959394Y-104879179D01*
X106019737Y-104733497D01*
X106050500Y-104578842D01*
X106050500Y-104421158D01*
X106050500Y-104421155D01*
X106050499Y-104421153D01*
X106040679Y-104371786D01*
X106019737Y-104266503D01*
X105987584Y-104188878D01*
X105959397Y-104120827D01*
X105959390Y-104120814D01*
X105871789Y-103989711D01*
X105871786Y-103989707D01*
X105844760Y-103962681D01*
X105811275Y-103901358D01*
X105816259Y-103831666D01*
X105844760Y-103787319D01*
X105871786Y-103760292D01*
X105871789Y-103760289D01*
X105959394Y-103629179D01*
X106019737Y-103483497D01*
X106050500Y-103328842D01*
X106050500Y-103171158D01*
X106050500Y-103171155D01*
X106050499Y-103171153D01*
X106041857Y-103127706D01*
X106019737Y-103016503D01*
X106019735Y-103016498D01*
X105959397Y-102870827D01*
X105959390Y-102870814D01*
X105871789Y-102739711D01*
X105871786Y-102739707D01*
X105844760Y-102712681D01*
X105811275Y-102651358D01*
X105816259Y-102581666D01*
X105844760Y-102537319D01*
X105871786Y-102510292D01*
X105871789Y-102510289D01*
X105959394Y-102379179D01*
X106019737Y-102233497D01*
X106050500Y-102078842D01*
X106050500Y-101921158D01*
X106050500Y-101921155D01*
X106050499Y-101921153D01*
X106047529Y-101906221D01*
X106019737Y-101766503D01*
X106005673Y-101732550D01*
X105959397Y-101620827D01*
X105959390Y-101620814D01*
X105871789Y-101489711D01*
X105871786Y-101489707D01*
X105760292Y-101378213D01*
X105760288Y-101378210D01*
X105629185Y-101290609D01*
X105629172Y-101290602D01*
X105483501Y-101230264D01*
X105483489Y-101230261D01*
X105328845Y-101199500D01*
X105328842Y-101199500D01*
X105171158Y-101199500D01*
X105171155Y-101199500D01*
X105016510Y-101230261D01*
X105016498Y-101230264D01*
X104870827Y-101290602D01*
X104870814Y-101290609D01*
X104739711Y-101378210D01*
X104739707Y-101378213D01*
X104628213Y-101489707D01*
X104628210Y-101489711D01*
X104540609Y-101620814D01*
X104540602Y-101620827D01*
X104480264Y-101766498D01*
X104480261Y-101766510D01*
X104449500Y-101921153D01*
X98521218Y-101921153D01*
X98531187Y-101906234D01*
X98531192Y-101906225D01*
X98547186Y-101867613D01*
X98547186Y-101867611D01*
X98606571Y-101724243D01*
X98606574Y-101724231D01*
X98645001Y-101531045D01*
X98645002Y-101531042D01*
X98645002Y-101282550D01*
X97945002Y-101282550D01*
X97945002Y-100782550D01*
X98645002Y-100782550D01*
X98645002Y-100534058D01*
X98645001Y-100534054D01*
X98606574Y-100340868D01*
X98606571Y-100340856D01*
X98531194Y-100158878D01*
X98531187Y-100158865D01*
X98421753Y-99995087D01*
X98421750Y-99995083D01*
X98282468Y-99855801D01*
X98282464Y-99855798D01*
X98118686Y-99746364D01*
X98118673Y-99746357D01*
X97936693Y-99670979D01*
X97936685Y-99670977D01*
X97895002Y-99662685D01*
X97895002Y-100465561D01*
X97885062Y-100448345D01*
X97829207Y-100392490D01*
X97760798Y-100352994D01*
X97684498Y-100332550D01*
X97605506Y-100332550D01*
X97529206Y-100352994D01*
X97460797Y-100392490D01*
X97404942Y-100448345D01*
X97395002Y-100465561D01*
X97395002Y-99662686D01*
X97395001Y-99662685D01*
X97353318Y-99670977D01*
X97353310Y-99670979D01*
X97171330Y-99746357D01*
X97171317Y-99746364D01*
X97007539Y-99855798D01*
X97007535Y-99855801D01*
X96868253Y-99995083D01*
X96868250Y-99995087D01*
X96758816Y-100158865D01*
X96758809Y-100158878D01*
X96683432Y-100340856D01*
X96683429Y-100340868D01*
X96645002Y-100534054D01*
X90004997Y-100534054D01*
X89966570Y-100340868D01*
X89966567Y-100340856D01*
X89891190Y-100158878D01*
X89891183Y-100158865D01*
X89781749Y-99995087D01*
X89781746Y-99995083D01*
X89642464Y-99855801D01*
X89642460Y-99855798D01*
X89478682Y-99746364D01*
X89478669Y-99746357D01*
X89296689Y-99670979D01*
X89296681Y-99670977D01*
X89254998Y-99662685D01*
X89254998Y-100465561D01*
X89245058Y-100448345D01*
X89189203Y-100392490D01*
X89120794Y-100352994D01*
X89044494Y-100332550D01*
X88965502Y-100332550D01*
X88889202Y-100352994D01*
X88820793Y-100392490D01*
X88764938Y-100448345D01*
X88754998Y-100465561D01*
X88754998Y-99662686D01*
X88754997Y-99662685D01*
X88713314Y-99670977D01*
X88713306Y-99670979D01*
X88531326Y-99746357D01*
X88531313Y-99746364D01*
X88367535Y-99855798D01*
X88367531Y-99855801D01*
X88228249Y-99995083D01*
X88228246Y-99995087D01*
X88118812Y-100158865D01*
X88118805Y-100158878D01*
X88043428Y-100340856D01*
X88043425Y-100340868D01*
X88004998Y-100534054D01*
X39254779Y-100534054D01*
X39366006Y-100359462D01*
X39372190Y-100350630D01*
X39622101Y-100024940D01*
X39629039Y-100016671D01*
X39906380Y-99714008D01*
X39914008Y-99706380D01*
X40216671Y-99429039D01*
X40224940Y-99422101D01*
X40550630Y-99172190D01*
X40559473Y-99165999D01*
X40905703Y-98945426D01*
X40915024Y-98940044D01*
X41279174Y-98750479D01*
X41288948Y-98745921D01*
X41668231Y-98588817D01*
X41678352Y-98585133D01*
X42069894Y-98461681D01*
X42080294Y-98458894D01*
X42481105Y-98370037D01*
X42491716Y-98368166D01*
X42898732Y-98314582D01*
X42909464Y-98313642D01*
X43322297Y-98295617D01*
X43327706Y-98295500D01*
X43363916Y-98295500D01*
X143286084Y-98295500D01*
X143322294Y-98295500D01*
X143327702Y-98295617D01*
G37*
%TD.AperFunction*%
%TD*%
D13*
X38325000Y-103125000D02*
X38325000Y-173125000D01*
X38325000Y-103125000D02*
G75*
G02*
X43325000Y-98125000I5000000J0D01*
G01*
X43325000Y-98125000D02*
X143325000Y-98125000D01*
X43325000Y-178125000D02*
G75*
G02*
X38325000Y-173125000I0J5000000D01*
G01*
X43325000Y-178125000D02*
X143325000Y-178125000D01*
X143325000Y-98125000D02*
G75*
G02*
X148325000Y-103125000I0J-5000000D01*
G01*
X148325000Y-103125000D02*
X148325000Y-173125000D01*
X148325000Y-173125000D02*
G75*
G02*
X143325000Y-178125000I-5000000J0D01*
G01*
%TO.C,J101*%
X90742000Y-104713050D02*
G75*
G02*
X90092000Y-104713050I-325000J0D01*
G01*
X90092000Y-104713050D02*
G75*
G02*
X90742000Y-104713050I325000J0D01*
G01*
X96558000Y-104713050D02*
G75*
G02*
X95908000Y-104713050I-325000J0D01*
G01*
X95908000Y-104713050D02*
G75*
G02*
X96558000Y-104713050I325000J0D01*
G01*
%TD*%
M02*
