%TF.GenerationSoftware,KiCad,Pcbnew,10.0.0-rc1-bcf5a15dc2~186~ubuntu25.10.1*%
%TF.CreationDate,2026-02-25T20:50:31+13:00*%
%TF.ProjectId,connect_4,636f6e6e-6563-4745-9f34-2e6b69636164,rev?*%
%TF.SameCoordinates,Original*%
%TF.FileFunction,Drillmap*%
%TF.FilePolarity,Positive*%
%FSLAX45Y45*%
G04 Gerber Fmt 4.5, Leading zero omitted, Abs format (unit mm)*
G04 Created by KiCad (PCBNEW 10.0.0-rc1-bcf5a15dc2~186~ubuntu25.10.1) date 2026-02-25 20:50:31*
%MOMM*%
%LPD*%
G01*
G04 APERTURE LIST*
%ADD10C,0.050000*%
%ADD11C,0.200000*%
G04 APERTURE END LIST*
D10*
X3832500Y-10312500D02*
X3832500Y-17312500D01*
X3832500Y-10312500D02*
G75*
G02*
X4332500Y-9812500I500000J0D01*
G01*
X4332500Y-9812500D02*
X14332500Y-9812500D01*
X4332500Y-17812500D02*
G75*
G02*
X3832500Y-17312500I0J500000D01*
G01*
X4332500Y-17812500D02*
X14332500Y-17812500D01*
X14332500Y-9812500D02*
G75*
G02*
X14832500Y-10312500I0J-500000D01*
G01*
X14832500Y-10312500D02*
X14832500Y-17312500D01*
X14832500Y-17312500D02*
G75*
G02*
X14332500Y-17812500I-500000J0D01*
G01*
X9074200Y-10471305D02*
G75*
G02*
X9009200Y-10471305I-32500J0D01*
G01*
X9009200Y-10471305D02*
G75*
G02*
X9074200Y-10471305I32500J0D01*
G01*
X9655800Y-10471305D02*
G75*
G02*
X9590800Y-10471305I-32500J0D01*
G01*
X9590800Y-10471305D02*
G75*
G02*
X9655800Y-10471305I32500J0D01*
G01*
D11*
X4090777Y-18126484D02*
X4090777Y-17926484D01*
X4090777Y-17926484D02*
X4138396Y-17926484D01*
X4138396Y-17926484D02*
X4166967Y-17936008D01*
X4166967Y-17936008D02*
X4186015Y-17955055D01*
X4186015Y-17955055D02*
X4195539Y-17974103D01*
X4195539Y-17974103D02*
X4205063Y-18012198D01*
X4205063Y-18012198D02*
X4205063Y-18040770D01*
X4205063Y-18040770D02*
X4195539Y-18078865D01*
X4195539Y-18078865D02*
X4186015Y-18097912D01*
X4186015Y-18097912D02*
X4166967Y-18116960D01*
X4166967Y-18116960D02*
X4138396Y-18126484D01*
X4138396Y-18126484D02*
X4090777Y-18126484D01*
X4290777Y-18126484D02*
X4290777Y-17993150D01*
X4290777Y-18031246D02*
X4300301Y-18012198D01*
X4300301Y-18012198D02*
X4309824Y-18002674D01*
X4309824Y-18002674D02*
X4328872Y-17993150D01*
X4328872Y-17993150D02*
X4347920Y-17993150D01*
X4414586Y-18126484D02*
X4414586Y-17993150D01*
X4414586Y-17926484D02*
X4405063Y-17936008D01*
X4405063Y-17936008D02*
X4414586Y-17945531D01*
X4414586Y-17945531D02*
X4424110Y-17936008D01*
X4424110Y-17936008D02*
X4414586Y-17926484D01*
X4414586Y-17926484D02*
X4414586Y-17945531D01*
X4538396Y-18126484D02*
X4519348Y-18116960D01*
X4519348Y-18116960D02*
X4509824Y-18097912D01*
X4509824Y-18097912D02*
X4509824Y-17926484D01*
X4643158Y-18126484D02*
X4624110Y-18116960D01*
X4624110Y-18116960D02*
X4614586Y-18097912D01*
X4614586Y-18097912D02*
X4614586Y-17926484D01*
X4871729Y-18126484D02*
X4871729Y-17926484D01*
X4871729Y-17926484D02*
X4938396Y-18069341D01*
X4938396Y-18069341D02*
X5005063Y-17926484D01*
X5005063Y-17926484D02*
X5005063Y-18126484D01*
X5186015Y-18126484D02*
X5186015Y-18021722D01*
X5186015Y-18021722D02*
X5176491Y-18002674D01*
X5176491Y-18002674D02*
X5157444Y-17993150D01*
X5157444Y-17993150D02*
X5119348Y-17993150D01*
X5119348Y-17993150D02*
X5100301Y-18002674D01*
X5186015Y-18116960D02*
X5166967Y-18126484D01*
X5166967Y-18126484D02*
X5119348Y-18126484D01*
X5119348Y-18126484D02*
X5100301Y-18116960D01*
X5100301Y-18116960D02*
X5090777Y-18097912D01*
X5090777Y-18097912D02*
X5090777Y-18078865D01*
X5090777Y-18078865D02*
X5100301Y-18059817D01*
X5100301Y-18059817D02*
X5119348Y-18050293D01*
X5119348Y-18050293D02*
X5166967Y-18050293D01*
X5166967Y-18050293D02*
X5186015Y-18040770D01*
X5281253Y-17993150D02*
X5281253Y-18193150D01*
X5281253Y-18002674D02*
X5300301Y-17993150D01*
X5300301Y-17993150D02*
X5338396Y-17993150D01*
X5338396Y-17993150D02*
X5357444Y-18002674D01*
X5357444Y-18002674D02*
X5366967Y-18012198D01*
X5366967Y-18012198D02*
X5376491Y-18031246D01*
X5376491Y-18031246D02*
X5376491Y-18088389D01*
X5376491Y-18088389D02*
X5366967Y-18107436D01*
X5366967Y-18107436D02*
X5357444Y-18116960D01*
X5357444Y-18116960D02*
X5338396Y-18126484D01*
X5338396Y-18126484D02*
X5300301Y-18126484D01*
X5300301Y-18126484D02*
X5281253Y-18116960D01*
X5462205Y-18107436D02*
X5471729Y-18116960D01*
X5471729Y-18116960D02*
X5462205Y-18126484D01*
X5462205Y-18126484D02*
X5452682Y-18116960D01*
X5452682Y-18116960D02*
X5462205Y-18107436D01*
X5462205Y-18107436D02*
X5462205Y-18126484D01*
X5462205Y-18002674D02*
X5471729Y-18012198D01*
X5471729Y-18012198D02*
X5462205Y-18021722D01*
X5462205Y-18021722D02*
X5452682Y-18012198D01*
X5452682Y-18012198D02*
X5462205Y-18002674D01*
X5462205Y-18002674D02*
X5462205Y-18021722D01*
M02*
