%TF.GenerationSoftware,KiCad,Pcbnew,10.0.0-rc1-bcf5a15dc2~186~ubuntu25.10.1*%
%TF.CreationDate,2026-02-25T20:50:38+13:00*%
%TF.ProjectId,connect_4,636f6e6e-6563-4745-9f34-2e6b69636164,rev?*%
%TF.SameCoordinates,Original*%
%TF.FileFunction,Legend,Top*%
%TF.FilePolarity,Positive*%
%FSLAX46Y46*%
G04 Gerber Fmt 4.6, Leading zero omitted, Abs format (unit mm)*
G04 Created by KiCad (PCBNEW 10.0.0-rc1-bcf5a15dc2~186~ubuntu25.10.1) date 2026-02-25 20:50:38*
%MOMM*%
%LPD*%
G01*
G04 APERTURE LIST*
%ADD10C,0.100000*%
%ADD11C,0.120000*%
%ADD12C,0.152400*%
%TA.AperFunction,Profile*%
%ADD13C,0.050000*%
%TD*%
G04 APERTURE END LIST*
D10*
G36*
X54469757Y-104794975D02*
G01*
X54830992Y-104794975D01*
X54830992Y-105614105D01*
X54469757Y-105614105D01*
X54469757Y-106650000D01*
X53852433Y-106650000D01*
X53852433Y-105614105D01*
X52571441Y-105614105D01*
X52571441Y-104878934D01*
X52605641Y-104794975D01*
X53129963Y-104794975D01*
X53852433Y-104794975D01*
X53852433Y-103948063D01*
X53856646Y-103556053D01*
X53867088Y-103125575D01*
X53877529Y-102863014D01*
X53860860Y-102863014D01*
X53780992Y-103136261D01*
X53680242Y-103408897D01*
X53129963Y-104794975D01*
X52605641Y-104794975D01*
X53885956Y-101651875D01*
X54469757Y-101651875D01*
X54469757Y-104794975D01*
G37*
G36*
X57490064Y-106650000D02*
G01*
X56125174Y-106650000D01*
X56125174Y-106047941D01*
X56490439Y-105767978D01*
X56490439Y-102533897D01*
X56125174Y-102253934D01*
X56125174Y-101651875D01*
X57490064Y-101651875D01*
X57490064Y-102253934D01*
X57124799Y-102533897D01*
X57124799Y-105767978D01*
X57490064Y-106047941D01*
X57490064Y-106650000D01*
G37*
G36*
X59252826Y-102757990D02*
G01*
X59436678Y-102780877D01*
X59593825Y-102845741D01*
X59728778Y-102949078D01*
X59845054Y-103090465D01*
X59936857Y-103267688D01*
X60006019Y-103496030D01*
X60051116Y-103787586D01*
X60067620Y-104158112D01*
X60067620Y-106650000D01*
X59441870Y-106650000D01*
X59441870Y-104417009D01*
X59430210Y-104144084D01*
X59399324Y-103943119D01*
X59353576Y-103797548D01*
X59285944Y-103685885D01*
X59194791Y-103616262D01*
X59072208Y-103590858D01*
X58932176Y-103614231D01*
X58824955Y-103678140D01*
X58742981Y-103778132D01*
X58681664Y-103916617D01*
X58627447Y-104141266D01*
X58590580Y-104445693D01*
X58576700Y-104851151D01*
X58576700Y-106650000D01*
X57950767Y-106650000D01*
X57950767Y-102827904D01*
X58429605Y-102827904D01*
X58513686Y-103317916D01*
X58547208Y-103317916D01*
X58629443Y-103139202D01*
X58728824Y-102997944D01*
X58847444Y-102891102D01*
X59043606Y-102791532D01*
X59252826Y-102757990D01*
G37*
G36*
X64369469Y-106650000D02*
G01*
X63684918Y-106650000D01*
X63466564Y-105459926D01*
X62374616Y-105459926D01*
X62156079Y-106650000D01*
X61471528Y-106650000D01*
X61909990Y-104570882D01*
X62534167Y-104570882D01*
X63315256Y-104570882D01*
X63096903Y-103408897D01*
X63042315Y-103108173D01*
X62975087Y-102736924D01*
X62920498Y-102408112D01*
X62863895Y-102754631D01*
X62796667Y-103146641D01*
X62748307Y-103408897D01*
X62534167Y-104570882D01*
X61909990Y-104570882D01*
X62529954Y-101631114D01*
X63307013Y-101631114D01*
X64369469Y-106650000D01*
G37*
G36*
X67024584Y-101680423D02*
G01*
X67272614Y-101757819D01*
X67465660Y-101874119D01*
X67614174Y-102023124D01*
X67738798Y-102226046D01*
X67828974Y-102474430D01*
X67885825Y-102777774D01*
X67906167Y-103150000D01*
X67885864Y-103477759D01*
X67828497Y-103748394D01*
X67737837Y-103985440D01*
X67622601Y-104182536D01*
X67489288Y-104345005D01*
X67347644Y-104472880D01*
X68229483Y-106650000D01*
X67524049Y-106650000D01*
X66810005Y-104732083D01*
X66469836Y-104732083D01*
X66469836Y-106650000D01*
X65835659Y-106650000D01*
X65835659Y-103871127D01*
X66469836Y-103871127D01*
X66675549Y-103871127D01*
X66884612Y-103847084D01*
X67029591Y-103785113D01*
X67127093Y-103696188D01*
X67201480Y-103564336D01*
X67247180Y-103395557D01*
X67263564Y-103178087D01*
X67245767Y-102953101D01*
X67197132Y-102789117D01*
X67118667Y-102670368D01*
X67017239Y-102593848D01*
X66870172Y-102540446D01*
X66662909Y-102519853D01*
X66469836Y-102519853D01*
X66469836Y-103871127D01*
X65835659Y-103871127D01*
X65835659Y-101651875D01*
X66709255Y-101651875D01*
X67024584Y-101680423D01*
G37*
G36*
X69745456Y-102784910D02*
G01*
X69934572Y-102862677D01*
X70104719Y-102989105D01*
X70257478Y-103164835D01*
X70387106Y-103385937D01*
X70495263Y-103657414D01*
X70572115Y-103958061D01*
X70620835Y-104312721D01*
X70638145Y-104732083D01*
X70616891Y-105207789D01*
X70557456Y-105602253D01*
X70464069Y-105929951D01*
X70337726Y-106202119D01*
X70178414Y-106423884D01*
X69992901Y-106584357D01*
X69776057Y-106684575D01*
X69520917Y-106719914D01*
X69311688Y-106693195D01*
X69123144Y-106615682D01*
X68951770Y-106489105D01*
X68798009Y-106312621D01*
X68667651Y-106089195D01*
X68559028Y-105813468D01*
X68482134Y-105508345D01*
X68433540Y-105151238D01*
X68416329Y-104732083D01*
X69054719Y-104732083D01*
X69069430Y-105107975D01*
X69108414Y-105386617D01*
X69165910Y-105589680D01*
X69228660Y-105714118D01*
X69307566Y-105803458D01*
X69406006Y-105859768D01*
X69529344Y-105880024D01*
X69650284Y-105859906D01*
X69747334Y-105803819D01*
X69825634Y-105714509D01*
X69888381Y-105589680D01*
X69945977Y-105386593D01*
X69985021Y-105107950D01*
X69999755Y-104732083D01*
X69984932Y-104356118D01*
X69945818Y-104080206D01*
X69888381Y-103881507D01*
X69801577Y-103727633D01*
X69683991Y-103632506D01*
X69525130Y-103597880D01*
X69368988Y-103632311D01*
X69252596Y-103727258D01*
X69165910Y-103881507D01*
X69108572Y-104080182D01*
X69069520Y-104356092D01*
X69054719Y-104732083D01*
X68416329Y-104732083D01*
X68437517Y-104255931D01*
X68496653Y-103862747D01*
X68589365Y-103537648D01*
X68714549Y-103269068D01*
X68872612Y-103050879D01*
X69057920Y-102892414D01*
X69275830Y-102793105D01*
X69533557Y-102757990D01*
X69745456Y-102784910D01*
G37*
G36*
X72778995Y-105313075D02*
G01*
X72730635Y-104959534D01*
X72661392Y-104455478D01*
X72589951Y-103958443D01*
X72543789Y-103625968D01*
X72526936Y-103625968D01*
X72482972Y-103958443D01*
X72413546Y-104455478D01*
X72342105Y-104963197D01*
X72291730Y-105327119D01*
X72107083Y-106650000D01*
X71434987Y-106650000D01*
X70783958Y-102827904D01*
X71405678Y-102827904D01*
X71670193Y-104522034D01*
X71722766Y-104942131D01*
X71766730Y-105414436D01*
X71796222Y-105775000D01*
X71813075Y-105775000D01*
X71829745Y-105512438D01*
X71861252Y-105172941D01*
X71894774Y-104854509D01*
X71918039Y-104661863D01*
X72199406Y-102827904D01*
X72888171Y-102827904D01*
X73157083Y-104661863D01*
X73196833Y-104976936D01*
X73238965Y-105418100D01*
X73257833Y-105775000D01*
X73274685Y-105775000D01*
X73303995Y-105428480D01*
X73352355Y-104949153D01*
X73408958Y-104522034D01*
X73682083Y-102827904D01*
X74295193Y-102827904D01*
X73635737Y-106650000D01*
X72955399Y-106650000D01*
X72778995Y-105313075D01*
G37*
G36*
X58573499Y-164650000D02*
G01*
X58573499Y-159651875D01*
X59207676Y-159651875D01*
X59207676Y-163775000D01*
X60425654Y-163775000D01*
X60425654Y-164650000D01*
X58573499Y-164650000D01*
G37*
G36*
X62670734Y-164650000D02*
G01*
X60944609Y-164650000D01*
X60944609Y-159651875D01*
X62670734Y-159651875D01*
X62670734Y-160519853D01*
X61578786Y-160519853D01*
X61578786Y-161618946D01*
X62595080Y-161618946D01*
X62595080Y-162486924D01*
X61578786Y-162486924D01*
X61578786Y-163775000D01*
X62670734Y-163775000D01*
X62670734Y-164650000D01*
G37*
G36*
X63920952Y-164650000D02*
G01*
X63295202Y-164650000D01*
X63295202Y-159651875D01*
X65012901Y-159651875D01*
X65012901Y-160519853D01*
X63920952Y-160519853D01*
X63920952Y-161807929D01*
X64937247Y-161807929D01*
X64937247Y-162675907D01*
X63920952Y-162675907D01*
X63920952Y-164650000D01*
G37*
G36*
X66753864Y-164650000D02*
G01*
X66119687Y-164650000D01*
X66119687Y-160533897D01*
X65304893Y-160533897D01*
X65304893Y-159651875D01*
X67568658Y-159651875D01*
X67568658Y-160533897D01*
X66753864Y-160533897D01*
X66753864Y-164650000D01*
G37*
G36*
X86928000Y-163263921D02*
G01*
X86909084Y-163587185D01*
X86854776Y-163866244D01*
X86766038Y-164110065D01*
X86640221Y-164324546D01*
X86491825Y-164488431D01*
X86310851Y-164611784D01*
X86090718Y-164691288D01*
X85823412Y-164719914D01*
X85511154Y-164684840D01*
X85229937Y-164583397D01*
X84975096Y-164418885D01*
X84975096Y-163432144D01*
X85418030Y-163715465D01*
X85648230Y-163813053D01*
X85873787Y-163844914D01*
X86028714Y-163824442D01*
X86135786Y-163771477D01*
X86207728Y-163694399D01*
X86262604Y-163585074D01*
X86295219Y-163459713D01*
X86306463Y-163313075D01*
X86286958Y-163137694D01*
X86228794Y-162990980D01*
X86141777Y-162866859D01*
X86020882Y-162742463D01*
X85722662Y-162493946D01*
X85495882Y-162294583D01*
X85377784Y-162166342D01*
X85262692Y-162007597D01*
X85162275Y-161819604D01*
X85080059Y-161591163D01*
X85027535Y-161330131D01*
X85008618Y-161003148D01*
X85027013Y-160674174D01*
X85079259Y-160396244D01*
X85163535Y-160159311D01*
X85281559Y-159956568D01*
X85422813Y-159799410D01*
X85590309Y-159682676D01*
X85789025Y-159608412D01*
X86025096Y-159581960D01*
X86256443Y-159605106D01*
X86472243Y-159672941D01*
X86685050Y-159780877D01*
X86915361Y-159932144D01*
X86709647Y-160757990D01*
X86507881Y-160629907D01*
X86339986Y-160540919D01*
X86174355Y-160483272D01*
X86004030Y-160463982D01*
X85886377Y-160481639D01*
X85795956Y-160529732D01*
X85726692Y-160604117D01*
X85673138Y-160706496D01*
X85641218Y-160825970D01*
X85630155Y-160968039D01*
X85645965Y-161132588D01*
X85692317Y-161270220D01*
X85773037Y-161388136D01*
X85934908Y-161545563D01*
X86197287Y-161766102D01*
X86417286Y-161957722D01*
X86589846Y-162144068D01*
X86734607Y-162360186D01*
X86839707Y-162605992D01*
X86887141Y-162788925D01*
X86917272Y-163005944D01*
X86928000Y-163263921D01*
G37*
G36*
X89198543Y-164650000D02*
G01*
X87472418Y-164650000D01*
X87472418Y-159651875D01*
X89198543Y-159651875D01*
X89198543Y-160519853D01*
X88106594Y-160519853D01*
X88106594Y-161618946D01*
X89122889Y-161618946D01*
X89122889Y-162486924D01*
X88106594Y-162486924D01*
X88106594Y-163775000D01*
X89198543Y-163775000D01*
X89198543Y-164650000D01*
G37*
G36*
X89823011Y-164650000D02*
G01*
X89823011Y-159651875D01*
X90457187Y-159651875D01*
X90457187Y-163775000D01*
X91675165Y-163775000D01*
X91675165Y-164650000D01*
X89823011Y-164650000D01*
G37*
G36*
X93920246Y-164650000D02*
G01*
X92194120Y-164650000D01*
X92194120Y-159651875D01*
X93920246Y-159651875D01*
X93920246Y-160519853D01*
X92828297Y-160519853D01*
X92828297Y-161618946D01*
X93844591Y-161618946D01*
X93844591Y-162486924D01*
X92828297Y-162486924D01*
X92828297Y-163775000D01*
X93920246Y-163775000D01*
X93920246Y-164650000D01*
G37*
G36*
X95817280Y-160463982D02*
G01*
X95640120Y-160494301D01*
X95491573Y-160580499D01*
X95365624Y-160720530D01*
X95258574Y-160919190D01*
X95178639Y-161151028D01*
X95118283Y-161429823D01*
X95079433Y-161764394D01*
X95065500Y-162165134D01*
X95078669Y-162572011D01*
X95115058Y-162905954D01*
X95170924Y-163178715D01*
X95243920Y-163400392D01*
X95343353Y-163587092D01*
X95468009Y-163721929D01*
X95623251Y-163807197D01*
X95817280Y-163837892D01*
X96001259Y-163820471D01*
X96184743Y-163767978D01*
X96370246Y-163686507D01*
X96581699Y-163571973D01*
X96581699Y-164461017D01*
X96383394Y-164577520D01*
X96190971Y-164657021D01*
X95991870Y-164703371D01*
X95758478Y-164719914D01*
X95526006Y-164697760D01*
X95324208Y-164634904D01*
X95148790Y-164535422D01*
X94996074Y-164401482D01*
X94856295Y-164226824D01*
X94736607Y-164021211D01*
X94635638Y-163782149D01*
X94552957Y-163505722D01*
X94475842Y-163113703D01*
X94427301Y-162667333D01*
X94410258Y-162158112D01*
X94429527Y-161659919D01*
X94484906Y-161216847D01*
X94574023Y-160820882D01*
X94701137Y-160458391D01*
X94859304Y-160157276D01*
X95050663Y-159911078D01*
X95210067Y-159771259D01*
X95388869Y-159668549D01*
X95590089Y-159604366D01*
X95817280Y-159581960D01*
X96039275Y-159605394D01*
X96264427Y-159676605D01*
X96484956Y-159787944D01*
X96695089Y-159932144D01*
X96489192Y-160793100D01*
X96151038Y-160561985D01*
X95980687Y-160487924D01*
X95817280Y-160463982D01*
G37*
G36*
X98372671Y-164650000D02*
G01*
X97738494Y-164650000D01*
X97738494Y-160533897D01*
X96923700Y-160533897D01*
X96923700Y-159651875D01*
X99187465Y-159651875D01*
X99187465Y-160533897D01*
X98372671Y-160533897D01*
X98372671Y-164650000D01*
G37*
G36*
X122556371Y-159680423D02*
G01*
X122804401Y-159757819D01*
X122997446Y-159874119D01*
X123145961Y-160023124D01*
X123270584Y-160226046D01*
X123360760Y-160474430D01*
X123417611Y-160777774D01*
X123437953Y-161150000D01*
X123417651Y-161477759D01*
X123360284Y-161748394D01*
X123269624Y-161985440D01*
X123154387Y-162182536D01*
X123021074Y-162345005D01*
X122879431Y-162472880D01*
X123761270Y-164650000D01*
X123055835Y-164650000D01*
X122341791Y-162732083D01*
X122001622Y-162732083D01*
X122001622Y-164650000D01*
X121367445Y-164650000D01*
X121367445Y-161871127D01*
X122001622Y-161871127D01*
X122207336Y-161871127D01*
X122416398Y-161847084D01*
X122561378Y-161785113D01*
X122658879Y-161696188D01*
X122733266Y-161564336D01*
X122778966Y-161395557D01*
X122795350Y-161178087D01*
X122777554Y-160953101D01*
X122728918Y-160789117D01*
X122650453Y-160670368D01*
X122549026Y-160593848D01*
X122401959Y-160540446D01*
X122194696Y-160519853D01*
X122001622Y-160519853D01*
X122001622Y-161871127D01*
X121367445Y-161871127D01*
X121367445Y-159651875D01*
X122241041Y-159651875D01*
X122556371Y-159680423D01*
G37*
G36*
X125258417Y-164650000D02*
G01*
X123893527Y-164650000D01*
X123893527Y-164047941D01*
X124258792Y-163767978D01*
X124258792Y-160533897D01*
X123893527Y-160253934D01*
X123893527Y-159651875D01*
X125258417Y-159651875D01*
X125258417Y-160253934D01*
X124893152Y-160533897D01*
X124893152Y-163767978D01*
X125258417Y-164047941D01*
X125258417Y-164650000D01*
G37*
G36*
X126907789Y-161843039D02*
G01*
X128096458Y-161843039D01*
X128096458Y-164432929D01*
X127857657Y-164551496D01*
X127606995Y-164642978D01*
X127344173Y-164699520D01*
X127029605Y-164719914D01*
X126758207Y-164690252D01*
X126524415Y-164606154D01*
X126322451Y-164472704D01*
X126147567Y-164291786D01*
X125996275Y-164061985D01*
X125873361Y-163793538D01*
X125774318Y-163476238D01*
X125699822Y-163102271D01*
X125652183Y-162661954D01*
X125635223Y-162144068D01*
X125656907Y-161628706D01*
X125718783Y-161179535D01*
X125817855Y-160786078D01*
X125919861Y-160514738D01*
X126041557Y-160277767D01*
X126184042Y-160072346D01*
X126349267Y-159897034D01*
X126525229Y-159764140D01*
X126723731Y-159665607D01*
X126948021Y-159603656D01*
X127201796Y-159581960D01*
X127439463Y-159603013D01*
X127672208Y-159665919D01*
X127896266Y-159765822D01*
X128092245Y-159890012D01*
X127882135Y-160736924D01*
X127737330Y-160630362D01*
X127567245Y-160540919D01*
X127387926Y-160483488D01*
X127197583Y-160463982D01*
X127016404Y-160488607D01*
X126857426Y-160559354D01*
X126716730Y-160674031D01*
X126592021Y-160831845D01*
X126487398Y-161027548D01*
X126401657Y-161265710D01*
X126341464Y-161526112D01*
X126303716Y-161823731D01*
X126290465Y-162165134D01*
X126311419Y-162638222D01*
X126370150Y-163033112D01*
X126435295Y-163271578D01*
X126519158Y-163466739D01*
X126622208Y-163624485D01*
X126743173Y-163739223D01*
X126890772Y-163811864D01*
X127071554Y-163837892D01*
X127300532Y-163817131D01*
X127474738Y-163767978D01*
X127474738Y-162725061D01*
X126907789Y-162725061D01*
X126907789Y-161843039D01*
G37*
G36*
X131265875Y-164650000D02*
G01*
X130631699Y-164650000D01*
X130631699Y-162493946D01*
X129443213Y-162493946D01*
X129443213Y-164650000D01*
X128809036Y-164650000D01*
X128809036Y-159651875D01*
X129443213Y-159651875D01*
X129443213Y-161611924D01*
X130631699Y-161611924D01*
X130631699Y-159651875D01*
X131265875Y-159651875D01*
X131265875Y-164650000D01*
G37*
G36*
X133176282Y-164650000D02*
G01*
X132542105Y-164650000D01*
X132542105Y-160533897D01*
X131727311Y-160533897D01*
X131727311Y-159651875D01*
X133991076Y-159651875D01*
X133991076Y-160533897D01*
X133176282Y-160533897D01*
X133176282Y-164650000D01*
G37*
%TO.C,R612*%
D11*
X109913925Y-131315000D02*
X109439409Y-131315000D01*
X109913925Y-132360000D02*
X109439409Y-132360000D01*
%TO.C,D209*%
X48690833Y-146675000D02*
X48690833Y-148960000D01*
X48690833Y-148960000D02*
X50160833Y-148960000D01*
X50160833Y-148960000D02*
X50160833Y-146675000D01*
%TO.C,R302*%
X61875242Y-149177500D02*
X62349758Y-149177500D01*
X61875242Y-150222500D02*
X62349758Y-150222500D01*
%TO.C,C601*%
X108047337Y-112077500D02*
X108328497Y-112077500D01*
X108047337Y-113097500D02*
X108328497Y-113097500D01*
%TO.C,R702*%
X121326075Y-149183750D02*
X121800591Y-149183750D01*
X121326075Y-150228750D02*
X121800591Y-150228750D01*
%TO.C,D512*%
X93327500Y-133250000D02*
X93327500Y-135535000D01*
X93327500Y-135535000D02*
X94797500Y-135535000D01*
X94797500Y-135535000D02*
X94797500Y-133250000D01*
%TO.C,D202*%
X47215833Y-151112500D02*
X47215833Y-153397500D01*
X47215833Y-153397500D02*
X48685833Y-153397500D01*
X48685833Y-153397500D02*
X48685833Y-151112500D01*
%TO.C,D707*%
X123053333Y-155556250D02*
X123053333Y-157841250D01*
X123053333Y-157841250D02*
X124523333Y-157841250D01*
X124523333Y-157841250D02*
X124523333Y-155556250D01*
%TO.C,R310*%
X65324758Y-140290000D02*
X64850242Y-140290000D01*
X65324758Y-141335000D02*
X64850242Y-141335000D01*
%TO.C,R704*%
X121326075Y-140296250D02*
X121800591Y-140296250D01*
X121326075Y-141341250D02*
X121800591Y-141341250D01*
%TO.C,SW102*%
X60925000Y-166550000D02*
X60925000Y-166650000D01*
X60925000Y-166550000D02*
X67125000Y-166550000D01*
X60925000Y-168150000D02*
X60925000Y-171150000D01*
X60925000Y-172750000D02*
X60925000Y-172650000D01*
X60925000Y-172750000D02*
X67125000Y-172750000D01*
X67125000Y-166650000D02*
X67125000Y-166550000D01*
X67125000Y-168150000D02*
X67125000Y-171150000D01*
X67125000Y-172750000D02*
X67125000Y-172650000D01*
%TO.C,D412*%
X78465000Y-133256250D02*
X78465000Y-135541250D01*
X78465000Y-135541250D02*
X79935000Y-135541250D01*
X79935000Y-135541250D02*
X79935000Y-133256250D01*
%TO.C,R507*%
X95049758Y-153602500D02*
X94575242Y-153602500D01*
X95049758Y-154647500D02*
X94575242Y-154647500D01*
%TO.C,R309*%
X65324758Y-144727500D02*
X64850242Y-144727500D01*
X65324758Y-145772500D02*
X64850242Y-145772500D01*
%TO.C,D510*%
X93327500Y-142225000D02*
X93327500Y-144510000D01*
X93327500Y-144510000D02*
X94797500Y-144510000D01*
X94797500Y-144510000D02*
X94797500Y-142225000D01*
%TO.C,D311*%
X63602500Y-137700000D02*
X63602500Y-139985000D01*
X63602500Y-139985000D02*
X65072500Y-139985000D01*
X65072500Y-139985000D02*
X65072500Y-137700000D01*
%TO.C,R509*%
X95049758Y-144727500D02*
X94575242Y-144727500D01*
X95049758Y-145772500D02*
X94575242Y-145772500D01*
%TO.C,D407*%
X78465000Y-155556250D02*
X78465000Y-157841250D01*
X78465000Y-157841250D02*
X79935000Y-157841250D01*
X79935000Y-157841250D02*
X79935000Y-155556250D01*
%TO.C,D211*%
X48690833Y-137700000D02*
X48690833Y-139985000D01*
X48690833Y-139985000D02*
X50160833Y-139985000D01*
X50160833Y-139985000D02*
X50160833Y-137700000D01*
%TO.C,C201*%
X48595670Y-112077500D02*
X48876830Y-112077500D01*
X48595670Y-113097500D02*
X48876830Y-113097500D01*
%TO.C,D102*%
X102590000Y-101028050D02*
X102590000Y-103313050D01*
X104060000Y-101028050D02*
X102590000Y-101028050D01*
X104060000Y-103313050D02*
X104060000Y-101028050D01*
%TO.C,R806*%
X136190659Y-131315000D02*
X136665175Y-131315000D01*
X136190659Y-132360000D02*
X136665175Y-132360000D01*
%TO.C,R712*%
X124775591Y-131321250D02*
X124301075Y-131321250D01*
X124775591Y-132366250D02*
X124301075Y-132366250D01*
%TO.C,D212*%
X48690833Y-133250000D02*
X48690833Y-135535000D01*
X48690833Y-135535000D02*
X50160833Y-135535000D01*
X50160833Y-135535000D02*
X50160833Y-133250000D01*
%TO.C,R409*%
X80187258Y-144733750D02*
X79712742Y-144733750D01*
X80187258Y-145778750D02*
X79712742Y-145778750D01*
%TO.C,D603*%
X106716667Y-146675000D02*
X106716667Y-148960000D01*
X106716667Y-148960000D02*
X108186667Y-148960000D01*
X108186667Y-148960000D02*
X108186667Y-146675000D01*
%TO.C,R511*%
X95049758Y-135752500D02*
X94575242Y-135752500D01*
X95049758Y-136797500D02*
X94575242Y-136797500D01*
%TO.C,D612*%
X108191667Y-133250000D02*
X108191667Y-135535000D01*
X108191667Y-135535000D02*
X109661667Y-135535000D01*
X109661667Y-135535000D02*
X109661667Y-133250000D01*
%TO.C,J101*%
D12*
X88410100Y-98313950D02*
X88410100Y-100050176D01*
X88410100Y-102014924D02*
X88410100Y-104077776D01*
X98239900Y-98313950D02*
X88410100Y-98313950D01*
X98239900Y-100050176D02*
X98239900Y-98313950D01*
X98239900Y-104077776D02*
X98239900Y-102014924D01*
%TO.C,R502*%
D11*
X91600242Y-149177500D02*
X92074758Y-149177500D01*
X91600242Y-150222500D02*
X92074758Y-150222500D01*
%TO.C,R212*%
X50413091Y-131315000D02*
X49938575Y-131315000D01*
X50413091Y-132360000D02*
X49938575Y-132360000D01*
%TO.C,R809*%
X139590175Y-144727500D02*
X139115659Y-144727500D01*
X139590175Y-145772500D02*
X139115659Y-145772500D01*
%TO.C,R503*%
X91600242Y-144727500D02*
X92074758Y-144727500D01*
X91600242Y-145772500D02*
X92074758Y-145772500D01*
%TO.C,D703*%
X121578333Y-146681250D02*
X121578333Y-148966250D01*
X121578333Y-148966250D02*
X123048333Y-148966250D01*
X123048333Y-148966250D02*
X123048333Y-146681250D01*
%TO.C,D708*%
X123053333Y-151118750D02*
X123053333Y-153403750D01*
X123053333Y-153403750D02*
X124523333Y-153403750D01*
X124523333Y-153403750D02*
X124523333Y-151118750D01*
%TO.C,D411*%
X78465000Y-137706250D02*
X78465000Y-139991250D01*
X78465000Y-139991250D02*
X79935000Y-139991250D01*
X79935000Y-139991250D02*
X79935000Y-137706250D01*
%TO.C,R308*%
X65324758Y-149177500D02*
X64850242Y-149177500D01*
X65324758Y-150222500D02*
X64850242Y-150222500D01*
%TO.C,R810*%
X139590175Y-140290000D02*
X139115659Y-140290000D01*
X139590175Y-141335000D02*
X139115659Y-141335000D01*
%TO.C,R606*%
X106464409Y-131315000D02*
X106938925Y-131315000D01*
X106464409Y-132360000D02*
X106938925Y-132360000D01*
%TO.C,D302*%
X62127500Y-151112500D02*
X62127500Y-153397500D01*
X62127500Y-153397500D02*
X63597500Y-153397500D01*
X63597500Y-153397500D02*
X63597500Y-151112500D01*
%TO.C,R705*%
X121326075Y-135758750D02*
X121800591Y-135758750D01*
X121326075Y-136803750D02*
X121800591Y-136803750D01*
%TO.C,R603*%
X106464409Y-144727500D02*
X106938925Y-144727500D01*
X106464409Y-145772500D02*
X106938925Y-145772500D01*
%TO.C,D204*%
X47215833Y-142225000D02*
X47215833Y-144510000D01*
X47215833Y-144510000D02*
X48685833Y-144510000D01*
X48685833Y-144510000D02*
X48685833Y-142225000D01*
%TO.C,D507*%
X93327500Y-155550000D02*
X93327500Y-157835000D01*
X93327500Y-157835000D02*
X94797500Y-157835000D01*
X94797500Y-157835000D02*
X94797500Y-155550000D01*
%TO.C,D704*%
X121578333Y-142231250D02*
X121578333Y-144516250D01*
X121578333Y-144516250D02*
X123048333Y-144516250D01*
X123048333Y-144516250D02*
X123048333Y-142231250D01*
%TO.C,C801*%
X137773170Y-112077500D02*
X138054330Y-112077500D01*
X137773170Y-113097500D02*
X138054330Y-113097500D01*
%TO.C,D509*%
X93327500Y-146675000D02*
X93327500Y-148960000D01*
X93327500Y-148960000D02*
X94797500Y-148960000D01*
X94797500Y-148960000D02*
X94797500Y-146675000D01*
%TO.C,C501*%
X93184420Y-112077500D02*
X93465580Y-112077500D01*
X93184420Y-113097500D02*
X93465580Y-113097500D01*
%TO.C,R412*%
X80187258Y-131308750D02*
X79712742Y-131308750D01*
X80187258Y-132353750D02*
X79712742Y-132353750D01*
%TO.C,D402*%
X76990000Y-151118750D02*
X76990000Y-153403750D01*
X76990000Y-153403750D02*
X78460000Y-153403750D01*
X78460000Y-153403750D02*
X78460000Y-151118750D01*
%TO.C,R408*%
X80187258Y-149183750D02*
X79712742Y-149183750D01*
X80187258Y-150228750D02*
X79712742Y-150228750D01*
%TO.C,D706*%
X121578333Y-133256250D02*
X121578333Y-135541250D01*
X121578333Y-135541250D02*
X123048333Y-135541250D01*
X123048333Y-135541250D02*
X123048333Y-133256250D01*
%TO.C,D608*%
X108191667Y-151112500D02*
X108191667Y-153397500D01*
X108191667Y-153397500D02*
X109661667Y-153397500D01*
X109661667Y-153397500D02*
X109661667Y-151112500D01*
%TO.C,D810*%
X137867917Y-142225000D02*
X137867917Y-144510000D01*
X137867917Y-144510000D02*
X139337917Y-144510000D01*
X139337917Y-144510000D02*
X139337917Y-142225000D01*
%TO.C,R608*%
X109913925Y-149177500D02*
X109439409Y-149177500D01*
X109913925Y-150222500D02*
X109439409Y-150222500D01*
%TO.C,D408*%
X78465000Y-151118750D02*
X78465000Y-153403750D01*
X78465000Y-153403750D02*
X79935000Y-153403750D01*
X79935000Y-153403750D02*
X79935000Y-151118750D01*
%TO.C,R202*%
X46963575Y-149177500D02*
X47438091Y-149177500D01*
X46963575Y-150222500D02*
X47438091Y-150222500D01*
%TO.C,SW101*%
X90775000Y-166550000D02*
X90775000Y-166650000D01*
X90775000Y-166550000D02*
X96975000Y-166550000D01*
X90775000Y-168150000D02*
X90775000Y-171150000D01*
X90775000Y-172750000D02*
X90775000Y-172650000D01*
X90775000Y-172750000D02*
X96975000Y-172750000D01*
X96975000Y-166650000D02*
X96975000Y-166550000D01*
X96975000Y-168150000D02*
X96975000Y-171150000D01*
X96975000Y-172750000D02*
X96975000Y-172650000D01*
%TO.C,U501*%
X90565000Y-113502500D02*
X96085000Y-113502500D01*
X90565000Y-113707500D02*
X90565000Y-113502500D01*
X90565000Y-123922500D02*
X90565000Y-123717500D01*
X96085000Y-113502500D02*
X96085000Y-113707500D01*
X96085000Y-123717500D02*
X96085000Y-123922500D01*
X96085000Y-123922500D02*
X90565000Y-123922500D01*
X89925000Y-113702500D02*
X89585000Y-113232500D01*
X90265000Y-113232500D01*
X89925000Y-113702500D01*
G36*
X89925000Y-113702500D02*
G01*
X89585000Y-113232500D01*
X90265000Y-113232500D01*
X89925000Y-113702500D01*
G37*
%TO.C,D503*%
X91852500Y-146675000D02*
X91852500Y-148960000D01*
X91852500Y-148960000D02*
X93322500Y-148960000D01*
X93322500Y-148960000D02*
X93322500Y-146675000D01*
%TO.C,D609*%
X108191667Y-146675000D02*
X108191667Y-148960000D01*
X108191667Y-148960000D02*
X109661667Y-148960000D01*
X109661667Y-148960000D02*
X109661667Y-146675000D01*
%TO.C,D511*%
X93327500Y-137700000D02*
X93327500Y-139985000D01*
X93327500Y-139985000D02*
X94797500Y-139985000D01*
X94797500Y-139985000D02*
X94797500Y-137700000D01*
%TO.C,D607*%
X108191667Y-155550000D02*
X108191667Y-157835000D01*
X108191667Y-157835000D02*
X109661667Y-157835000D01*
X109661667Y-157835000D02*
X109661667Y-155550000D01*
%TO.C,R306*%
X61875242Y-131315000D02*
X62349758Y-131315000D01*
X61875242Y-132360000D02*
X62349758Y-132360000D01*
%TO.C,R103*%
X83012742Y-104227500D02*
X83487258Y-104227500D01*
X83012742Y-105272500D02*
X83487258Y-105272500D01*
%TO.C,D811*%
X137867917Y-137700000D02*
X137867917Y-139985000D01*
X137867917Y-139985000D02*
X139337917Y-139985000D01*
X139337917Y-139985000D02*
X139337917Y-137700000D01*
%TO.C,D403*%
X76990000Y-146681250D02*
X76990000Y-148966250D01*
X76990000Y-148966250D02*
X78460000Y-148966250D01*
X78460000Y-148966250D02*
X78460000Y-146681250D01*
%TO.C,C402*%
X78321503Y-112071250D02*
X78602663Y-112071250D01*
X78321503Y-113091250D02*
X78602663Y-113091250D01*
%TO.C,R401*%
X76737742Y-153608750D02*
X77212258Y-153608750D01*
X76737742Y-154653750D02*
X77212258Y-154653750D01*
%TO.C,R206*%
X46963575Y-131315000D02*
X47438091Y-131315000D01*
X46963575Y-132360000D02*
X47438091Y-132360000D01*
%TO.C,D711*%
X123053333Y-137706250D02*
X123053333Y-139991250D01*
X123053333Y-139991250D02*
X124523333Y-139991250D01*
X124523333Y-139991250D02*
X124523333Y-137706250D01*
%TO.C,R501*%
X91600242Y-153602500D02*
X92074758Y-153602500D01*
X91600242Y-154647500D02*
X92074758Y-154647500D01*
%TO.C,R811*%
X139590175Y-135752500D02*
X139115659Y-135752500D01*
X139590175Y-136797500D02*
X139115659Y-136797500D01*
%TO.C,R102*%
X91052501Y-108487258D02*
X91052501Y-108012742D01*
X92097501Y-108487258D02*
X92097501Y-108012742D01*
%TO.C,R710*%
X124775591Y-140296250D02*
X124301075Y-140296250D01*
X124775591Y-141341250D02*
X124301075Y-141341250D01*
%TO.C,D807*%
X137867917Y-155550000D02*
X137867917Y-157835000D01*
X137867917Y-157835000D02*
X139337917Y-157835000D01*
X139337917Y-157835000D02*
X139337917Y-155550000D01*
%TO.C,D305*%
X62127500Y-137700000D02*
X62127500Y-139985000D01*
X62127500Y-139985000D02*
X63597500Y-139985000D01*
X63597500Y-139985000D02*
X63597500Y-137700000D01*
%TO.C,D604*%
X106716667Y-142225000D02*
X106716667Y-144510000D01*
X106716667Y-144510000D02*
X108186667Y-144510000D01*
X108186667Y-144510000D02*
X108186667Y-142225000D01*
%TO.C,R205*%
X46963575Y-135752500D02*
X47438091Y-135752500D01*
X46963575Y-136797500D02*
X47438091Y-136797500D01*
%TO.C,D502*%
X91852500Y-151112500D02*
X91852500Y-153397500D01*
X91852500Y-153397500D02*
X93322500Y-153397500D01*
X93322500Y-153397500D02*
X93322500Y-151112500D01*
%TO.C,R807*%
X139590175Y-153602500D02*
X139115659Y-153602500D01*
X139590175Y-154647500D02*
X139115659Y-154647500D01*
%TO.C,D207*%
X48690833Y-155550000D02*
X48690833Y-157835000D01*
X48690833Y-157835000D02*
X50160833Y-157835000D01*
X50160833Y-157835000D02*
X50160833Y-155550000D01*
%TO.C,D602*%
X106716667Y-151112500D02*
X106716667Y-153397500D01*
X106716667Y-153397500D02*
X108186667Y-153397500D01*
X108186667Y-153397500D02*
X108186667Y-151112500D01*
%TO.C,D606*%
X106716667Y-133250000D02*
X106716667Y-135535000D01*
X106716667Y-135535000D02*
X108186667Y-135535000D01*
X108186667Y-135535000D02*
X108186667Y-133250000D01*
%TO.C,R703*%
X121326075Y-144733750D02*
X121800591Y-144733750D01*
X121326075Y-145778750D02*
X121800591Y-145778750D01*
%TO.C,R802*%
X136140659Y-149177500D02*
X136615175Y-149177500D01*
X136140659Y-150222500D02*
X136615175Y-150222500D01*
%TO.C,R311*%
X65324758Y-135752500D02*
X64850242Y-135752500D01*
X65324758Y-136797500D02*
X64850242Y-136797500D01*
%TO.C,R201*%
X46963575Y-153602500D02*
X47438091Y-153602500D01*
X46963575Y-154647500D02*
X47438091Y-154647500D01*
%TO.C,R607*%
X109913925Y-153602500D02*
X109439409Y-153602500D01*
X109913925Y-154647500D02*
X109439409Y-154647500D01*
%TO.C,R203*%
X46963575Y-144727500D02*
X47438091Y-144727500D01*
X46963575Y-145772500D02*
X47438091Y-145772500D01*
%TO.C,R403*%
X76737742Y-144733750D02*
X77212258Y-144733750D01*
X76737742Y-145778750D02*
X77212258Y-145778750D01*
%TO.C,R504*%
X91600242Y-140290000D02*
X92074758Y-140290000D01*
X91600242Y-141335000D02*
X92074758Y-141335000D01*
%TO.C,D804*%
X136392917Y-142225000D02*
X136392917Y-144510000D01*
X136392917Y-144510000D02*
X137862917Y-144510000D01*
X137862917Y-144510000D02*
X137862917Y-142225000D01*
%TO.C,D506*%
X91852500Y-133250000D02*
X91852500Y-135535000D01*
X91852500Y-135535000D02*
X93322500Y-135535000D01*
X93322500Y-135535000D02*
X93322500Y-133250000D01*
%TO.C,D308*%
X63602500Y-151112500D02*
X63602500Y-153397500D01*
X63602500Y-153397500D02*
X65072500Y-153397500D01*
X65072500Y-153397500D02*
X65072500Y-151112500D01*
%TO.C,R706*%
X121326075Y-131321250D02*
X121800591Y-131321250D01*
X121326075Y-132366250D02*
X121800591Y-132366250D01*
%TO.C,U301*%
X60839167Y-113502500D02*
X66359167Y-113502500D01*
X60839167Y-113707500D02*
X60839167Y-113502500D01*
X60839167Y-123922500D02*
X60839167Y-123717500D01*
X66359167Y-113502500D02*
X66359167Y-113707500D01*
X66359167Y-123717500D02*
X66359167Y-123922500D01*
X66359167Y-123922500D02*
X60839167Y-123922500D01*
X60199167Y-113702500D02*
X59859167Y-113232500D01*
X60539167Y-113232500D01*
X60199167Y-113702500D01*
G36*
X60199167Y-113702500D02*
G01*
X59859167Y-113232500D01*
X60539167Y-113232500D01*
X60199167Y-113702500D01*
G37*
%TO.C,SW103*%
X125350000Y-166550000D02*
X125350000Y-166650000D01*
X125350000Y-166550000D02*
X131550000Y-166550000D01*
X125350000Y-168150000D02*
X125350000Y-171150000D01*
X125350000Y-172750000D02*
X125350000Y-172650000D01*
X125350000Y-172750000D02*
X131550000Y-172750000D01*
X131550000Y-166650000D02*
X131550000Y-166550000D01*
X131550000Y-168150000D02*
X131550000Y-171150000D01*
X131550000Y-172750000D02*
X131550000Y-172650000D01*
%TO.C,D303*%
X62127500Y-146675000D02*
X62127500Y-148960000D01*
X62127500Y-148960000D02*
X63597500Y-148960000D01*
X63597500Y-148960000D02*
X63597500Y-146675000D01*
%TO.C,R508*%
X95049758Y-149177500D02*
X94575242Y-149177500D01*
X95049758Y-150222500D02*
X94575242Y-150222500D01*
%TO.C,R301*%
X61875242Y-153602500D02*
X62349758Y-153602500D01*
X61875242Y-154647500D02*
X62349758Y-154647500D01*
%TO.C,D611*%
X108191667Y-137700000D02*
X108191667Y-139985000D01*
X108191667Y-139985000D02*
X109661667Y-139985000D01*
X109661667Y-139985000D02*
X109661667Y-137700000D01*
%TO.C,R505*%
X91600242Y-135752500D02*
X92074758Y-135752500D01*
X91600242Y-136797500D02*
X92074758Y-136797500D01*
%TO.C,R209*%
X50413091Y-144727500D02*
X49938575Y-144727500D01*
X50413091Y-145772500D02*
X49938575Y-145772500D01*
%TO.C,R512*%
X95049758Y-131315000D02*
X94575242Y-131315000D01*
X95049758Y-132360000D02*
X94575242Y-132360000D01*
%TO.C,R604*%
X106464409Y-140290000D02*
X106938925Y-140290000D01*
X106464409Y-141335000D02*
X106938925Y-141335000D01*
%TO.C,D610*%
X108191667Y-142225000D02*
X108191667Y-144510000D01*
X108191667Y-144510000D02*
X109661667Y-144510000D01*
X109661667Y-144510000D02*
X109661667Y-142225000D01*
%TO.C,R405*%
X76737742Y-135758750D02*
X77212258Y-135758750D01*
X76737742Y-136803750D02*
X77212258Y-136803750D01*
%TO.C,R406*%
X76737742Y-131321250D02*
X77212258Y-131321250D01*
X76737742Y-132366250D02*
X77212258Y-132366250D01*
%TO.C,D309*%
X63602500Y-146675000D02*
X63602500Y-148960000D01*
X63602500Y-148960000D02*
X65072500Y-148960000D01*
X65072500Y-148960000D02*
X65072500Y-146675000D01*
%TO.C,C101*%
X89390580Y-106990000D02*
X89109420Y-106990000D01*
X89390580Y-108010000D02*
X89109420Y-108010000D01*
%TO.C,R407*%
X80187258Y-153608750D02*
X79712742Y-153608750D01*
X80187258Y-154653750D02*
X79712742Y-154653750D01*
%TO.C,R312*%
X65324758Y-131315000D02*
X64850242Y-131315000D01*
X65324758Y-132360000D02*
X64850242Y-132360000D01*
%TO.C,R204*%
X46963575Y-140290000D02*
X47438091Y-140290000D01*
X46963575Y-141335000D02*
X47438091Y-141335000D01*
%TO.C,R611*%
X109913925Y-135752500D02*
X109439409Y-135752500D01*
X109913925Y-136797500D02*
X109439409Y-136797500D01*
%TO.C,D802*%
X136392917Y-151112500D02*
X136392917Y-153397500D01*
X136392917Y-153397500D02*
X137862917Y-153397500D01*
X137862917Y-153397500D02*
X137862917Y-151112500D01*
%TO.C,R605*%
X106464409Y-135752500D02*
X106938925Y-135752500D01*
X106464409Y-136797500D02*
X106938925Y-136797500D01*
%TO.C,R711*%
X124775591Y-135758750D02*
X124301075Y-135758750D01*
X124775591Y-136803750D02*
X124301075Y-136803750D01*
%TO.C,R601*%
X106464409Y-153602500D02*
X106938925Y-153602500D01*
X106464409Y-154647500D02*
X106938925Y-154647500D01*
%TO.C,D803*%
X136392917Y-146675000D02*
X136392917Y-148960000D01*
X136392917Y-148960000D02*
X137862917Y-148960000D01*
X137862917Y-148960000D02*
X137862917Y-146675000D01*
%TO.C,U201*%
X45976250Y-113502500D02*
X51496250Y-113502500D01*
X45976250Y-113707500D02*
X45976250Y-113502500D01*
X45976250Y-123922500D02*
X45976250Y-123717500D01*
X51496250Y-113502500D02*
X51496250Y-113707500D01*
X51496250Y-123717500D02*
X51496250Y-123922500D01*
X51496250Y-123922500D02*
X45976250Y-123922500D01*
X45336250Y-113702500D02*
X44996250Y-113232500D01*
X45676250Y-113232500D01*
X45336250Y-113702500D01*
G36*
X45336250Y-113702500D02*
G01*
X44996250Y-113232500D01*
X45676250Y-113232500D01*
X45336250Y-113702500D01*
G37*
%TO.C,C701*%
X122910253Y-112083750D02*
X123191413Y-112083750D01*
X122910253Y-113103750D02*
X123191413Y-113103750D01*
%TO.C,R812*%
X139640175Y-131315000D02*
X139165659Y-131315000D01*
X139640175Y-132360000D02*
X139165659Y-132360000D01*
%TO.C,D712*%
X123053333Y-133256250D02*
X123053333Y-135541250D01*
X123053333Y-135541250D02*
X124523333Y-135541250D01*
X124523333Y-135541250D02*
X124523333Y-133256250D01*
%TO.C,D809*%
X137867917Y-146675000D02*
X137867917Y-148960000D01*
X137867917Y-148960000D02*
X139337917Y-148960000D01*
X139337917Y-148960000D02*
X139337917Y-146675000D01*
%TO.C,R211*%
X50413091Y-135752500D02*
X49938575Y-135752500D01*
X50413091Y-136797500D02*
X49938575Y-136797500D01*
%TO.C,R307*%
X65324758Y-153602500D02*
X64850242Y-153602500D01*
X65324758Y-154647500D02*
X64850242Y-154647500D01*
%TO.C,R207*%
X50413091Y-153602500D02*
X49938575Y-153602500D01*
X50413091Y-154647500D02*
X49938575Y-154647500D01*
%TO.C,C301*%
X63458587Y-112077500D02*
X63739747Y-112077500D01*
X63458587Y-113097500D02*
X63739747Y-113097500D01*
%TO.C,D210*%
X48690833Y-142225000D02*
X48690833Y-144510000D01*
X48690833Y-144510000D02*
X50160833Y-144510000D01*
X50160833Y-144510000D02*
X50160833Y-142225000D01*
%TO.C,R707*%
X124775591Y-153608750D02*
X124301075Y-153608750D01*
X124775591Y-154653750D02*
X124301075Y-154653750D01*
%TO.C,R510*%
X95049758Y-140290000D02*
X94575242Y-140290000D01*
X95049758Y-141335000D02*
X94575242Y-141335000D01*
%TO.C,D505*%
X91852500Y-137700000D02*
X91852500Y-139985000D01*
X91852500Y-139985000D02*
X93322500Y-139985000D01*
X93322500Y-139985000D02*
X93322500Y-137700000D01*
%TO.C,D701*%
X121578333Y-155556250D02*
X121578333Y-157841250D01*
X121578333Y-157841250D02*
X123048333Y-157841250D01*
X123048333Y-157841250D02*
X123048333Y-155556250D01*
%TO.C,R208*%
X50413091Y-149177500D02*
X49938575Y-149177500D01*
X50413091Y-150222500D02*
X49938575Y-150222500D01*
%TO.C,R701*%
X121326075Y-153608750D02*
X121800591Y-153608750D01*
X121326075Y-154653750D02*
X121800591Y-154653750D01*
%TO.C,U401*%
X75702083Y-113496250D02*
X81222083Y-113496250D01*
X75702083Y-113701250D02*
X75702083Y-113496250D01*
X75702083Y-123916250D02*
X75702083Y-123711250D01*
X81222083Y-113496250D02*
X81222083Y-113701250D01*
X81222083Y-123711250D02*
X81222083Y-123916250D01*
X81222083Y-123916250D02*
X75702083Y-123916250D01*
X75062083Y-113696250D02*
X74722083Y-113226250D01*
X75402083Y-113226250D01*
X75062083Y-113696250D01*
G36*
X75062083Y-113696250D02*
G01*
X74722083Y-113226250D01*
X75402083Y-113226250D01*
X75062083Y-113696250D01*
G37*
%TO.C,R411*%
X80187258Y-135758750D02*
X79712742Y-135758750D01*
X80187258Y-136803750D02*
X79712742Y-136803750D01*
%TO.C,R410*%
X80187258Y-140296250D02*
X79712742Y-140296250D01*
X80187258Y-141341250D02*
X79712742Y-141341250D01*
%TO.C,R610*%
X109913925Y-140290000D02*
X109439409Y-140290000D01*
X109913925Y-141335000D02*
X109439409Y-141335000D01*
%TO.C,R304*%
X61875242Y-140290000D02*
X62349758Y-140290000D01*
X61875242Y-141335000D02*
X62349758Y-141335000D01*
%TO.C,R804*%
X136140659Y-140290000D02*
X136615175Y-140290000D01*
X136140659Y-141335000D02*
X136615175Y-141335000D01*
%TO.C,D208*%
X48690833Y-151112500D02*
X48690833Y-153397500D01*
X48690833Y-153397500D02*
X50160833Y-153397500D01*
X50160833Y-153397500D02*
X50160833Y-151112500D01*
%TO.C,D301*%
X62127500Y-155550000D02*
X62127500Y-157835000D01*
X62127500Y-157835000D02*
X63597500Y-157835000D01*
X63597500Y-157835000D02*
X63597500Y-155550000D01*
%TO.C,D101*%
X82590000Y-101028050D02*
X82590000Y-103313050D01*
X84060000Y-101028050D02*
X82590000Y-101028050D01*
X84060000Y-103313050D02*
X84060000Y-101028050D01*
%TO.C,R111*%
X103487258Y-104227500D02*
X103012742Y-104227500D01*
X103487258Y-105272500D02*
X103012742Y-105272500D01*
%TO.C,U601*%
X105427917Y-113502500D02*
X110947917Y-113502500D01*
X105427917Y-113707500D02*
X105427917Y-113502500D01*
X105427917Y-123922500D02*
X105427917Y-123717500D01*
X110947917Y-113502500D02*
X110947917Y-113707500D01*
X110947917Y-123717500D02*
X110947917Y-123922500D01*
X110947917Y-123922500D02*
X105427917Y-123922500D01*
X104787917Y-113702500D02*
X104447917Y-113232500D01*
X105127917Y-113232500D01*
X104787917Y-113702500D01*
G36*
X104787917Y-113702500D02*
G01*
X104447917Y-113232500D01*
X105127917Y-113232500D01*
X104787917Y-113702500D01*
G37*
%TO.C,D206*%
X47215833Y-133250000D02*
X47215833Y-135535000D01*
X47215833Y-135535000D02*
X48685833Y-135535000D01*
X48685833Y-135535000D02*
X48685833Y-133250000D01*
%TO.C,R305*%
X61875242Y-135752500D02*
X62349758Y-135752500D01*
X61875242Y-136797500D02*
X62349758Y-136797500D01*
%TO.C,D205*%
X47215833Y-137700000D02*
X47215833Y-139985000D01*
X47215833Y-139985000D02*
X48685833Y-139985000D01*
X48685833Y-139985000D02*
X48685833Y-137700000D01*
%TO.C,D306*%
X62127500Y-133250000D02*
X62127500Y-135535000D01*
X62127500Y-135535000D02*
X63597500Y-135535000D01*
X63597500Y-135535000D02*
X63597500Y-133250000D01*
%TO.C,R602*%
X106464409Y-149177500D02*
X106938925Y-149177500D01*
X106464409Y-150222500D02*
X106938925Y-150222500D01*
%TO.C,R402*%
X76737742Y-149183750D02*
X77212258Y-149183750D01*
X76737742Y-150228750D02*
X77212258Y-150228750D01*
%TO.C,D312*%
X63602500Y-133250000D02*
X63602500Y-135535000D01*
X63602500Y-135535000D02*
X65072500Y-135535000D01*
X65072500Y-135535000D02*
X65072500Y-133250000D01*
%TO.C,D404*%
X76990000Y-142231250D02*
X76990000Y-144516250D01*
X76990000Y-144516250D02*
X78460000Y-144516250D01*
X78460000Y-144516250D02*
X78460000Y-142231250D01*
%TO.C,D203*%
X47215833Y-146675000D02*
X47215833Y-148960000D01*
X47215833Y-148960000D02*
X48685833Y-148960000D01*
X48685833Y-148960000D02*
X48685833Y-146675000D01*
%TO.C,R101*%
X94552499Y-108012742D02*
X94552499Y-108487258D01*
X95597499Y-108012742D02*
X95597499Y-108487258D01*
%TO.C,R210*%
X50413091Y-140290000D02*
X49938575Y-140290000D01*
X50413091Y-141335000D02*
X49938575Y-141335000D01*
%TO.C,C115*%
X97640580Y-106990000D02*
X97359420Y-106990000D01*
X97640580Y-108010000D02*
X97359420Y-108010000D01*
%TO.C,R805*%
X136140659Y-135752500D02*
X136615175Y-135752500D01*
X136140659Y-136797500D02*
X136615175Y-136797500D01*
%TO.C,D705*%
X121578333Y-137706250D02*
X121578333Y-139991250D01*
X121578333Y-139991250D02*
X123048333Y-139991250D01*
X123048333Y-139991250D02*
X123048333Y-137706250D01*
%TO.C,D805*%
X136392917Y-137700000D02*
X136392917Y-139985000D01*
X136392917Y-139985000D02*
X137862917Y-139985000D01*
X137862917Y-139985000D02*
X137862917Y-137700000D01*
%TO.C,D812*%
X137917917Y-133250000D02*
X137917917Y-135535000D01*
X137917917Y-135535000D02*
X139387917Y-135535000D01*
X139387917Y-135535000D02*
X139387917Y-133250000D01*
%TO.C,D410*%
X78465000Y-142231250D02*
X78465000Y-144516250D01*
X78465000Y-144516250D02*
X79935000Y-144516250D01*
X79935000Y-144516250D02*
X79935000Y-142231250D01*
%TO.C,D808*%
X137867917Y-151112500D02*
X137867917Y-153397500D01*
X137867917Y-153397500D02*
X139337917Y-153397500D01*
X139337917Y-153397500D02*
X139337917Y-151112500D01*
%TO.C,R709*%
X124775591Y-144733750D02*
X124301075Y-144733750D01*
X124775591Y-145778750D02*
X124301075Y-145778750D01*
%TO.C,D710*%
X123053333Y-142231250D02*
X123053333Y-144516250D01*
X123053333Y-144516250D02*
X124523333Y-144516250D01*
X124523333Y-144516250D02*
X124523333Y-142231250D01*
%TO.C,D508*%
X93327500Y-151112500D02*
X93327500Y-153397500D01*
X93327500Y-153397500D02*
X94797500Y-153397500D01*
X94797500Y-153397500D02*
X94797500Y-151112500D01*
%TO.C,D307*%
X63602500Y-155550000D02*
X63602500Y-157835000D01*
X63602500Y-157835000D02*
X65072500Y-157835000D01*
X65072500Y-157835000D02*
X65072500Y-155550000D01*
%TO.C,R404*%
X76737742Y-140296250D02*
X77212258Y-140296250D01*
X76737742Y-141341250D02*
X77212258Y-141341250D01*
%TO.C,D806*%
X136442917Y-133250000D02*
X136442917Y-135535000D01*
X136442917Y-135535000D02*
X137912917Y-135535000D01*
X137912917Y-135535000D02*
X137912917Y-133250000D01*
%TO.C,D401*%
X76990000Y-155556250D02*
X76990000Y-157841250D01*
X76990000Y-157841250D02*
X78460000Y-157841250D01*
X78460000Y-157841250D02*
X78460000Y-155556250D01*
%TO.C,R808*%
X139590175Y-149177500D02*
X139115659Y-149177500D01*
X139590175Y-150222500D02*
X139115659Y-150222500D01*
%TO.C,D709*%
X123053333Y-146681250D02*
X123053333Y-148966250D01*
X123053333Y-148966250D02*
X124523333Y-148966250D01*
X124523333Y-148966250D02*
X124523333Y-146681250D01*
%TO.C,R609*%
X109913925Y-144727500D02*
X109439409Y-144727500D01*
X109913925Y-145772500D02*
X109439409Y-145772500D01*
%TO.C,D201*%
X47215833Y-155550000D02*
X47215833Y-157835000D01*
X47215833Y-157835000D02*
X48685833Y-157835000D01*
X48685833Y-157835000D02*
X48685833Y-155550000D01*
%TO.C,D409*%
X78465000Y-146681250D02*
X78465000Y-148966250D01*
X78465000Y-148966250D02*
X79935000Y-148966250D01*
X79935000Y-148966250D02*
X79935000Y-146681250D01*
%TO.C,R803*%
X136140659Y-144727500D02*
X136615175Y-144727500D01*
X136140659Y-145772500D02*
X136615175Y-145772500D01*
%TO.C,D801*%
X136392917Y-155550000D02*
X136392917Y-157835000D01*
X136392917Y-157835000D02*
X137862917Y-157835000D01*
X137862917Y-157835000D02*
X137862917Y-155550000D01*
%TO.C,R303*%
X61875242Y-144727500D02*
X62349758Y-144727500D01*
X61875242Y-145772500D02*
X62349758Y-145772500D01*
%TO.C,D605*%
X106716667Y-137700000D02*
X106716667Y-139985000D01*
X106716667Y-139985000D02*
X108186667Y-139985000D01*
X108186667Y-139985000D02*
X108186667Y-137700000D01*
%TO.C,U801*%
X135153750Y-113502500D02*
X140673750Y-113502500D01*
X135153750Y-113707500D02*
X135153750Y-113502500D01*
X135153750Y-123922500D02*
X135153750Y-123717500D01*
X140673750Y-113502500D02*
X140673750Y-113707500D01*
X140673750Y-123717500D02*
X140673750Y-123922500D01*
X140673750Y-123922500D02*
X135153750Y-123922500D01*
X134513750Y-113702500D02*
X134173750Y-113232500D01*
X134853750Y-113232500D01*
X134513750Y-113702500D01*
G36*
X134513750Y-113702500D02*
G01*
X134173750Y-113232500D01*
X134853750Y-113232500D01*
X134513750Y-113702500D01*
G37*
%TO.C,R708*%
X124775591Y-149183750D02*
X124301075Y-149183750D01*
X124775591Y-150228750D02*
X124301075Y-150228750D01*
%TO.C,D406*%
X76990000Y-133256250D02*
X76990000Y-135541250D01*
X76990000Y-135541250D02*
X78460000Y-135541250D01*
X78460000Y-135541250D02*
X78460000Y-133256250D01*
%TO.C,D304*%
X62127500Y-142225000D02*
X62127500Y-144510000D01*
X62127500Y-144510000D02*
X63597500Y-144510000D01*
X63597500Y-144510000D02*
X63597500Y-142225000D01*
%TO.C,R801*%
X136140659Y-153602500D02*
X136615175Y-153602500D01*
X136140659Y-154647500D02*
X136615175Y-154647500D01*
%TO.C,D702*%
X121578333Y-151118750D02*
X121578333Y-153403750D01*
X121578333Y-153403750D02*
X123048333Y-153403750D01*
X123048333Y-153403750D02*
X123048333Y-151118750D01*
%TO.C,D310*%
X63602500Y-142225000D02*
X63602500Y-144510000D01*
X63602500Y-144510000D02*
X65072500Y-144510000D01*
X65072500Y-144510000D02*
X65072500Y-142225000D01*
%TO.C,R506*%
X91600242Y-131315000D02*
X92074758Y-131315000D01*
X91600242Y-132360000D02*
X92074758Y-132360000D01*
%TO.C,D501*%
X91852500Y-155550000D02*
X91852500Y-157835000D01*
X91852500Y-157835000D02*
X93322500Y-157835000D01*
X93322500Y-157835000D02*
X93322500Y-155550000D01*
%TO.C,D504*%
X91852500Y-142225000D02*
X91852500Y-144510000D01*
X91852500Y-144510000D02*
X93322500Y-144510000D01*
X93322500Y-144510000D02*
X93322500Y-142225000D01*
%TO.C,D601*%
X106716667Y-155550000D02*
X106716667Y-157835000D01*
X106716667Y-157835000D02*
X108186667Y-157835000D01*
X108186667Y-157835000D02*
X108186667Y-155550000D01*
%TO.C,D405*%
X76990000Y-137706250D02*
X76990000Y-139991250D01*
X76990000Y-139991250D02*
X78460000Y-139991250D01*
X78460000Y-139991250D02*
X78460000Y-137706250D01*
%TO.C,U701*%
X120290833Y-113508750D02*
X125810833Y-113508750D01*
X120290833Y-113713750D02*
X120290833Y-113508750D01*
X120290833Y-123928750D02*
X120290833Y-123723750D01*
X125810833Y-113508750D02*
X125810833Y-113713750D01*
X125810833Y-123723750D02*
X125810833Y-123928750D01*
X125810833Y-123928750D02*
X120290833Y-123928750D01*
X119650833Y-113708750D02*
X119310833Y-113238750D01*
X119990833Y-113238750D01*
X119650833Y-113708750D01*
G36*
X119650833Y-113708750D02*
G01*
X119310833Y-113238750D01*
X119990833Y-113238750D01*
X119650833Y-113708750D01*
G37*
%TD*%
D13*
X38325000Y-103125000D02*
X38325000Y-173125000D01*
X38325000Y-103125000D02*
G75*
G02*
X43325000Y-98125000I5000000J0D01*
G01*
X43325000Y-98125000D02*
X143325000Y-98125000D01*
X43325000Y-178125000D02*
G75*
G02*
X38325000Y-173125000I0J5000000D01*
G01*
X43325000Y-178125000D02*
X143325000Y-178125000D01*
X143325000Y-98125000D02*
G75*
G02*
X148325000Y-103125000I0J-5000000D01*
G01*
X148325000Y-103125000D02*
X148325000Y-173125000D01*
X148325000Y-173125000D02*
G75*
G02*
X143325000Y-178125000I-5000000J0D01*
G01*
%TO.C,J101*%
X90742000Y-104713050D02*
G75*
G02*
X90092000Y-104713050I-325000J0D01*
G01*
X90092000Y-104713050D02*
G75*
G02*
X90742000Y-104713050I325000J0D01*
G01*
X96558000Y-104713050D02*
G75*
G02*
X95908000Y-104713050I-325000J0D01*
G01*
X95908000Y-104713050D02*
G75*
G02*
X96558000Y-104713050I325000J0D01*
G01*
%TD*%
M02*
